goteka-black.ufo
<glyph name="exclam" format="2">
  <advance width="617"/>
  <unicode hex="0021"/>
  <outline>
    <contour>
      <point x="186" y="1460" type="line"/>
      <point x="452" y="1460" type="line"/>
      <point x="412" y="349" type="line"/>
      <point x="225" y="349" type="line"/>
    </contour>
    <contour>
      <point x="318" y="-22" type="qcurve"/>
      <point x="256" y="-21"/>
      <point x="213" y="23" type="qcurve"/>
      <point x="171" y="68"/>
      <point x="171" y="126" type="qcurve"/>
      <point x="171" y="183"/>
      <point x="214" y="226" type="qcurve"/>
      <point x="257" y="267"/>
      <point x="318" y="267" type="qcurve"/>
      <point x="378" y="267"/>
      <point x="417" y="226" type="qcurve"/>
      <point x="462" y="184"/>
      <point x="462" y="127" type="qcurve"/>
      <point x="462" y="68"/>
      <point x="418" y="22" type="qcurve"/>
      <point x="377" y="-20"/>
    </contour>
  </outline>
</glyph>
<glyph name="ampersand" format="2">
  <advance width="1494"/>
  <unicode hex="0026"/>
  <outline>
    <contour>
      <point x="1177" y="-21" type="line"/>
      <point x="1007" y="154" type="line"/>
      <point x="840" y="-24"/>
      <point x="584" y="-22" type="qcurve"/>
      <point x="455" y="-24"/>
      <point x="346" y="28" type="qcurve"/>
      <point x="239" y="82"/>
      <point x="173" y="180" type="qcurve"/>
      <point x="112" y="279"/>
      <point x="109" y="408" type="qcurve"/>
      <point x="107" y="558"/>
      <point x="195" y="669" type="qcurve"/>
      <point x="281" y="779"/>
      <point x="403" y="834" type="qcurve"/>
      <point x="370" y="879"/>
      <point x="338" y="954" type="qcurve"/>
      <point x="306" y="1033"/>
      <point x="310" y="1121" type="qcurve"/>
      <point x="310" y="1222"/>
      <point x="359" y="1304" type="qcurve"/>
      <point x="410" y="1389"/>
      <point x="503" y="1435" type="qcurve"/>
      <point x="594" y="1487"/>
      <point x="701" y="1483" type="qcurve"/>
      <point x="801" y="1483"/>
      <point x="885" y="1437" type="qcurve"/>
      <point x="969" y="1390"/>
      <point x="1018" y="1306" type="qcurve"/>
      <point x="1067" y="1223"/>
      <point x="1067" y="1122" type="qcurve"/>
      <point x="1068" y="981"/>
      <point x="971" y="891" type="qcurve"/>
      <point x="879" y="807"/>
      <point x="758" y="759" type="qcurve"/>
      <point x="841" y="660"/>
      <point x="998" y="494" type="qcurve"/>
      <point x="1067" y="593"/>
      <point x="1138" y="795" type="qcurve"/>
      <point x="1349" y="700" type="line"/>
      <point x="1233" y="446"/>
      <point x="1154" y="335" type="qcurve"/>
      <point x="1402" y="84" type="line"/>
    </contour>
    <contour>
      <point x="700" y="1270" type="qcurve"/>
      <point x="630" y="1270"/>
      <point x="585" y="1228" type="qcurve"/>
      <point x="541" y="1190"/>
      <point x="539" y="1120" type="qcurve"/>
      <point x="539" y="1027"/>
      <point x="622" y="921" type="qcurve"/>
      <point x="735" y="964"/>
      <point x="785" y="1010" type="qcurve"/>
      <point x="837" y="1056"/>
      <point x="838" y="1121" type="qcurve"/>
      <point x="838" y="1183"/>
      <point x="797" y="1226" type="qcurve"/>
      <point x="764" y="1270"/>
    </contour>
    <contour>
      <point x="590" y="195" type="qcurve"/>
      <point x="744" y="197"/>
      <point x="854" y="311" type="qcurve"/>
      <point x="650" y="525"/>
      <point x="533" y="667" type="qcurve"/>
      <point x="459" y="634"/>
      <point x="398" y="560" type="qcurve"/>
      <point x="342" y="496"/>
      <point x="342" y="414" type="qcurve"/>
      <point x="340" y="312"/>
      <point x="408" y="255" type="qcurve"/>
      <point x="482" y="195"/>
    </contour>
  </outline>
</glyph>
<glyph name="parenleft" format="2">
  <advance width="853"/>
  <unicode hex="0028"/>
  <outline>
    <contour>
      <point x="742" y="1369" type="line"/>
      <point x="632" y="1253"/>
      <point x="572" y="1166" type="qcurve"/>
      <point x="513" y="1080"/>
      <point x="470" y="991" type="qcurve"/>
      <point x="388" y="810"/>
      <point x="388" y="581" type="qcurve"/>
      <point x="388" y="352"/>
      <point x="470" y="173" type="qcurve"/>
      <point x="553" y="-6"/>
      <point x="743" y="-210" type="qcurve"/>
      <point x="609" y="-351" type="line"/>
      <point x="370" y="-149"/>
      <point x="258" y="80" type="qcurve"/>
      <point x="147" y="312"/>
      <point x="148" y="581" type="qcurve"/>
      <point x="147" y="846"/>
      <point x="258" y="1075" type="qcurve"/>
      <point x="370" y="1306"/>
      <point x="609" y="1511" type="qcurve"/>
    </contour>
  </outline>
</glyph>
<glyph name="parenright" format="2">
  <advance width="837"/>
  <unicode hex="0029"/>
  <outline>
    <contour>
      <point x="107" y="-210" type="line"/>
      <point x="218" y="-93"/>
      <point x="276" y="-7" type="qcurve"/>
      <point x="337" y="80"/>
      <point x="378" y="169" type="qcurve"/>
      <point x="461" y="351"/>
      <point x="460" y="579" type="qcurve"/>
      <point x="461" y="809"/>
      <point x="378" y="988" type="qcurve"/>
      <point x="299" y="1167"/>
      <point x="105" y="1368" type="qcurve"/>
      <point x="240" y="1510" type="line"/>
      <point x="481" y="1309"/>
      <point x="589" y="1078" type="qcurve"/>
      <point x="703" y="847"/>
      <point x="700" y="579" type="qcurve"/>
      <point x="703" y="315"/>
      <point x="589" y="85" type="qcurve"/>
      <point x="480" y="-146"/>
      <point x="239" y="-352" type="qcurve"/>
    </contour>
  </outline>
</glyph>
<glyph name="hyphen" format="2">
  <advance width="793"/>
  <unicode hex="002D"/>
  <outline>
    <contour>
      <point x="120" y="652" type="line"/>
      <point x="684" y="652" type="line"/>
      <point x="684" y="426" type="line"/>
      <point x="120" y="426" type="line"/>
    </contour>
  </outline>
</glyph>
<glyph name="period" format="2">
  <advance width="581"/>
  <unicode hex="002E"/>
  <outline>
    <contour>
      <point x="301" y="-22" type="qcurve"/>
      <point x="243" y="-21"/>
      <point x="197" y="21" type="qcurve"/>
      <point x="151" y="68"/>
      <point x="151" y="126" type="qcurve"/>
      <point x="151" y="184"/>
      <point x="197" y="227" type="qcurve"/>
      <point x="243" y="267"/>
      <point x="301" y="267" type="qcurve"/>
      <point x="361" y="267"/>
      <point x="400" y="225" type="qcurve"/>
      <point x="442" y="182"/>
      <point x="442" y="126" type="qcurve"/>
      <point x="442" y="70"/>
      <point x="404" y="24" type="qcurve"/>
      <point x="364" y="-20"/>
    </contour>
  </outline>
</glyph>
<glyph name="three" format="2">
  <advance width="1295"/>
  <unicode hex="0033"/>
  <outline>
    <contour>
      <point x="646" y="-15" type="qcurve"/>
      <point x="482" y="-17"/>
      <point x="341" y="51" type="qcurve"/>
      <point x="208" y="123"/>
      <point x="94" y="263" type="qcurve"/>
      <point x="258" y="418" type="line"/>
      <point x="353" y="302"/>
      <point x="442" y="254" type="qcurve"/>
      <point x="536" y="207"/>
      <point x="646" y="204" type="qcurve"/>
      <point x="777" y="207"/>
      <point x="852" y="268" type="qcurve"/>
      <point x="927" y="329"/>
      <point x="927" y="429" type="qcurve"/>
      <point x="927" y="526"/>
      <point x="850" y="573" type="qcurve"/>
      <point x="766" y="630"/>
      <point x="611" y="630" type="qcurve"/>
      <point x="425" y="630" type="line"/>
      <point x="425" y="854" type="line"/>
      <point x="613" y="854" type="line"/>
      <point x="747" y="854"/>
      <point x="822" y="908" type="qcurve"/>
      <point x="896" y="961"/>
      <point x="896" y="1054" type="qcurve"/>
      <point x="898" y="1143"/>
      <point x="823" y="1202" type="qcurve"/>
      <point x="748" y="1265"/>
      <point x="633" y="1262" type="qcurve"/>
      <point x="538" y="1263"/>
      <point x="458" y="1216" type="qcurve"/>
      <point x="383" y="1174"/>
      <point x="278" y="1053" type="qcurve"/>
      <point x="113" y="1195" type="line"/>
      <point x="335" y="1485"/>
      <point x="639" y="1483" type="qcurve"/>
      <point x="781" y="1486"/>
      <point x="889" y="1434" type="qcurve"/>
      <point x="997" y="1383"/>
      <point x="1064" y="1289" type="qcurve"/>
      <point x="1132" y="1192"/>
      <point x="1132" y="1073" type="qcurve"/>
      <point x="1132" y="1004"/>
      <point x="1114" y="948" type="qcurve"/>
      <point x="1095" y="887"/>
      <point x="1045" y="838" type="qcurve"/>
      <point x="1001" y="791"/>
      <point x="930" y="751" type="qcurve"/>
      <point x="860" y="715"/>
      <point x="1000" y="756" type="qcurve"/>
      <point x="861" y="788"/>
      <point x="935" y="752" type="qcurve"/>
      <point x="1013" y="717"/>
      <point x="1064" y="666" type="qcurve"/>
      <point x="1163" y="571"/>
      <point x="1163" y="419" type="qcurve"/>
      <point x="1163" y="294"/>
      <point x="1096" y="194" type="qcurve"/>
      <point x="1029" y="97"/>
      <point x="911" y="38" type="qcurve"/>
      <point x="800" y="-17"/>
    </contour>
  </outline>
</glyph>
<glyph name="four" format="2">
  <advance width="1369"/>
  <unicode hex="0034"/>
  <outline>
    <contour>
      <point x="810" y="339" type="line"/>
      <point x="136" y="339" type="line"/>
      <point x="104" y="521" type="line"/>
      <point x="807" y="1463" type="line"/>
      <point x="1047" y="1463" type="line"/>
      <point x="1047" y="562" type="line"/>
      <point x="1254" y="560" type="line"/>
      <point x="1251" y="339" type="line"/>
      <point x="1047" y="339" type="line"/>
      <point x="1047" y="0" type="line"/>
      <point x="813" y="0" type="line"/>
    </contour>
    <contour>
      <point x="810" y="560" type="line"/>
      <point x="810" y="1214" type="line"/>
      <point x="869" y="1185" type="line"/>
      <point x="331" y="499" type="line"/>
      <point x="312" y="537" type="line"/>
    </contour>
  </outline>
</glyph>
<glyph name="five" format="2">
  <advance width="1320"/>
  <unicode hex="0035"/>
  <outline>
    <contour>
      <point x="655" y="-22" type="qcurve"/>
      <point x="495" y="-24"/>
      <point x="365" y="39" type="qcurve"/>
      <point x="240" y="100"/>
      <point x="118" y="234" type="qcurve"/>
      <point x="275" y="406" type="line"/>
      <point x="470" y="195"/>
      <point x="660" y="196" type="qcurve"/>
      <point x="746" y="199"/>
      <point x="811" y="232" type="qcurve"/>
      <point x="875" y="266"/>
      <point x="909" y="326" type="qcurve"/>
      <point x="946" y="389"/>
      <point x="944" y="463" type="qcurve"/>
      <point x="946" y="575"/>
      <point x="865" y="647" type="qcurve"/>
      <point x="790" y="718"/>
      <point x="657" y="715" type="qcurve"/>
      <point x="514" y="718"/>
      <point x="359" y="606" type="qcurve"/>
      <point x="196" y="681" type="line"/>
      <point x="228" y="1463" type="line"/>
      <point x="1117" y="1463" type="line"/>
      <point x="1117" y="1233" type="line"/>
      <point x="458" y="1233" type="line"/>
      <point x="442" y="881" type="line"/>
      <point x="431" y="874"/>
      <point x="516" y="904" type="qcurve"/>
      <point x="603" y="936"/>
      <point x="689" y="936" type="qcurve"/>
      <point x="827" y="939"/>
      <point x="935" y="882" type="qcurve"/>
      <point x="1050" y="828"/>
      <point x="1115" y="720" type="qcurve"/>
      <point x="1187" y="614"/>
      <point x="1184" y="467" type="qcurve"/>
      <point x="1187" y="324"/>
      <point x="1116" y="212" type="qcurve"/>
      <point x="1051" y="101"/>
      <point x="926" y="37" type="qcurve"/>
      <point x="807" y="-23"/>
    </contour>
  </outline>
</glyph>
<glyph name="seven" format="2">
  <advance width="1317"/>
  <unicode hex="0037"/>
  <outline>
    <contour>
      <point x="867" y="1233" type="line"/>
      <point x="146" y="1233" type="line"/>
      <point x="146" y="1463" type="line"/>
      <point x="1150" y="1463" type="line"/>
      <point x="1150" y="1270" type="line"/>
      <point x="544" y="0" type="line"/>
      <point x="276" y="0" type="line"/>
    </contour>
  </outline>
</glyph>
<glyph name="eight" format="2">
  <advance width="1334"/>
  <unicode hex="0038"/>
  <outline>
    <contour>
      <point x="677" y="-22" type="qcurve"/>
      <point x="525" y="-24"/>
      <point x="402" y="27" type="qcurve"/>
      <point x="280" y="80"/>
      <point x="208" y="175" type="qcurve"/>
      <point x="132" y="274"/>
      <point x="129" y="403" type="qcurve"/>
      <point x="129" y="548"/>
      <point x="228" y="649" type="qcurve"/>
      <point x="281" y="700"/>
      <point x="354" y="742" type="qcurve"/>
      <point x="429" y="783"/>
      <point x="354" y="760" type="qcurve"/>
      <point x="432" y="727"/>
      <point x="366" y="763" type="qcurve"/>
      <point x="297" y="806"/>
      <point x="253" y="854" type="qcurve"/>
      <point x="167" y="950"/>
      <point x="167" y="1076" type="qcurve"/>
      <point x="167" y="1202"/>
      <point x="243" y="1295" type="qcurve"/>
      <point x="313" y="1391"/>
      <point x="430" y="1436" type="qcurve"/>
      <point x="549" y="1486"/>
      <point x="677" y="1483" type="qcurve"/>
      <point x="745" y="1483"/>
      <point x="802" y="1472" type="qcurve"/>
      <point x="863" y="1462"/>
      <point x="924" y="1435" type="qcurve"/>
      <point x="1042" y="1388"/>
      <point x="1113" y="1297" type="qcurve"/>
      <point x="1190" y="1201"/>
      <point x="1190" y="1074" type="qcurve"/>
      <point x="1190" y="942"/>
      <point x="1102" y="850" type="qcurve"/>
      <point x="1058" y="803"/>
      <point x="992" y="761" type="qcurve"/>
      <point x="928" y="722"/>
      <point x="1015" y="755" type="qcurve"/>
      <point x="929" y="780"/>
      <point x="1000" y="739" type="qcurve"/>
      <point x="1073" y="699"/>
      <point x="1124" y="647" type="qcurve"/>
      <point x="1224" y="543"/>
      <point x="1221" y="403" type="qcurve"/>
      <point x="1222" y="276"/>
      <point x="1148" y="177" type="qcurve"/>
      <point x="1077" y="82"/>
      <point x="952" y="27" type="qcurve"/>
      <point x="829" y="-24"/>
    </contour>
    <contour>
      <point x="677" y="857" type="qcurve"/>
      <point x="739" y="861"/>
      <point x="806" y="888" type="qcurve"/>
      <point x="870" y="915"/>
      <point x="911" y="963" type="qcurve"/>
      <point x="947" y="1004"/>
      <point x="946" y="1062" type="qcurve"/>
      <point x="946" y="1119"/>
      <point x="916" y="1161" type="qcurve"/>
      <point x="884" y="1208"/>
      <point x="819" y="1231" type="qcurve"/>
      <point x="753" y="1262"/>
      <point x="676" y="1262" type="qcurve"/>
      <point x="559" y="1261"/>
      <point x="482" y="1201" type="qcurve"/>
      <point x="410" y="1146"/>
      <point x="412" y="1061" type="qcurve"/>
      <point x="409" y="1000"/>
      <point x="444" y="961" type="qcurve"/>
      <point x="485" y="913"/>
      <point x="550" y="889" type="qcurve"/>
      <point x="618" y="860"/>
    </contour>
    <contour>
      <point x="678" y="200" type="qcurve"/>
      <point x="764" y="203"/>
      <point x="835" y="230" type="qcurve"/>
      <point x="905" y="257"/>
      <point x="946" y="306" type="qcurve"/>
      <point x="983" y="353"/>
      <point x="980" y="414" type="qcurve"/>
      <point x="981" y="446"/>
      <point x="972" y="470" type="qcurve"/>
      <point x="963" y="495"/>
      <point x="940" y="522" type="qcurve"/>
      <point x="894" y="577"/>
      <point x="817" y="605" type="qcurve"/>
      <point x="744" y="639"/>
      <point x="677" y="640" type="qcurve"/>
      <point x="612" y="640"/>
      <point x="537" y="606" type="qcurve"/>
      <point x="462" y="579"/>
      <point x="413" y="521" type="qcurve"/>
      <point x="391" y="495"/>
      <point x="382" y="471" type="qcurve"/>
      <point x="373" y="446"/>
      <point x="373" y="413" type="qcurve"/>
      <point x="371" y="355"/>
      <point x="408" y="306" type="qcurve"/>
      <point x="447" y="257"/>
      <point x="515" y="229" type="qcurve"/>
      <point x="593" y="203"/>
    </contour>
  </outline>
</glyph>
<glyph name="colon" format="2">
  <advance width="581"/>
  <unicode hex="003A"/>
  <outline>
    <contour>
      <point x="301" y="730" type="qcurve"/>
      <point x="243" y="731"/>
      <point x="198" y="772" type="qcurve"/>
      <point x="151" y="814"/>
      <point x="151" y="876" type="qcurve"/>
      <point x="151" y="933"/>
      <point x="197" y="979" type="qcurve"/>
      <point x="243" y="1021"/>
      <point x="301" y="1021" type="qcurve"/>
      <point x="361" y="1021"/>
      <point x="401" y="977" type="qcurve"/>
      <point x="442" y="932"/>
      <point x="442" y="876" type="qcurve"/>
      <point x="442" y="816"/>
      <point x="403" y="775" type="qcurve"/>
      <point x="364" y="732"/>
    </contour>
    <contour>
      <point x="301" y="-22" type="qcurve"/>
      <point x="243" y="-21"/>
      <point x="197" y="21" type="qcurve"/>
      <point x="151" y="68"/>
      <point x="151" y="126" type="qcurve"/>
      <point x="151" y="184"/>
      <point x="197" y="227" type="qcurve"/>
      <point x="243" y="267"/>
      <point x="301" y="267" type="qcurve"/>
      <point x="361" y="267"/>
      <point x="400" y="225" type="qcurve"/>
      <point x="442" y="182"/>
      <point x="442" y="126" type="qcurve"/>
      <point x="442" y="70"/>
      <point x="404" y="24" type="qcurve"/>
      <point x="364" y="-20"/>
    </contour>
  </outline>
</glyph>
<glyph name="A" format="2">
  <advance width="1409"/>
  <unicode hex="0041"/>
  <outline>
    <contour>
      <point x="595" y="1463" type="line"/>
      <point x="815" y="1463" type="line"/>
      <point x="1345" y="0" type="line"/>
      <point x="1094" y="0" type="line"/>
      <point x="953" y="393" type="line"/>
      <point x="456" y="393" type="line"/>
      <point x="312" y="0" type="line"/>
      <point x="59" y="0" type="line"/>
    </contour>
    <contour>
      <point x="705" y="1071" type="line"/>
      <point x="539" y="619" type="line"/>
      <point x="870" y="619" type="line"/>
    </contour>
  </outline>
</glyph>
<glyph name="B" format="2">
  <advance width="1355"/>
  <unicode hex="0042"/>
  <outline>
    <contour>
      <point x="190" y="1463" type="line"/>
      <point x="809" y="1463" type="line"/>
      <point x="923" y="1463"/>
      <point x="1010" y="1413" type="qcurve"/>
      <point x="1101" y="1364"/>
      <point x="1150" y="1271" type="qcurve"/>
      <point x="1198" y="1183"/>
      <point x="1198" y="1075" type="qcurve"/>
      <point x="1200" y="963"/>
      <point x="1149" y="875" type="qcurve"/>
      <point x="1098" y="799"/>
      <point x="1064" y="776" type="qcurve"/>
      <point x="1114" y="750"/>
      <point x="1180" y="651" type="qcurve"/>
      <point x="1247" y="552"/>
      <point x="1247" y="423" type="qcurve"/>
      <point x="1247" y="301"/>
      <point x="1195" y="206" type="qcurve"/>
      <point x="1145" y="108"/>
      <point x="1046" y="54" type="qcurve"/>
      <point x="952" y="0"/>
      <point x="831" y="0" type="qcurve"/>
      <point x="190" y="0" type="line"/>
    </contour>
    <contour>
      <point x="427" y="1239" type="line"/>
      <point x="427" y="878" type="line"/>
      <point x="773" y="878" type="line"/>
      <point x="857" y="878"/>
      <point x="908" y="928" type="qcurve"/>
      <point x="961" y="979"/>
      <point x="961" y="1058" type="qcurve"/>
      <point x="963" y="1139"/>
      <point x="910" y="1188" type="qcurve"/>
      <point x="858" y="1241"/>
      <point x="774" y="1239" type="qcurve"/>
    </contour>
    <contour>
      <point x="427" y="653" type="line"/>
      <point x="427" y="217" type="line"/>
      <point x="794" y="217" type="line"/>
      <point x="893" y="217"/>
      <point x="949" y="276" type="qcurve"/>
      <point x="1011" y="340"/>
      <point x="1011" y="435" type="qcurve"/>
      <point x="1013" y="533"/>
      <point x="952" y="592" type="qcurve"/>
      <point x="892" y="656"/>
      <point x="794" y="653" type="qcurve"/>
    </contour>
  </outline>
</glyph>
<glyph name="F" format="2">
  <advance width="1223"/>
  <unicode hex="0046"/>
  <outline>
    <contour>
      <point x="400" y="1233" type="line"/>
      <point x="400" y="918" type="line"/>
      <point x="1078" y="918" type="line"/>
      <point x="1078" y="690" type="line"/>
      <point x="400" y="690" type="line"/>
      <point x="400" y="0" type="line"/>
      <point x="164" y="0" type="line"/>
      <point x="164" y="1463" type="line"/>
      <point x="1152" y="1463" type="line"/>
      <point x="1152" y="1233" type="line"/>
    </contour>
  </outline>
</glyph>
<glyph name="G" format="2">
  <advance width="1656"/>
  <unicode hex="0047"/>
  <outline>
    <contour>
      <point x="113" y="729" type="qcurve"/>
      <point x="113" y="901"/>
      <point x="180" y="1042" type="qcurve"/>
      <point x="245" y="1181"/>
      <point x="352" y="1278" type="qcurve"/>
      <point x="460" y="1376"/>
      <point x="594" y="1429" type="qcurve"/>
      <point x="728" y="1483"/>
      <point x="870" y="1483" type="qcurve"/>
      <point x="997" y="1483"/>
      <point x="1101" y="1444" type="qcurve"/>
      <point x="1199" y="1405"/>
      <point x="1271" y="1360" type="qcurve"/>
      <point x="1342" y="1315"/>
      <point x="1451" y="1213" type="qcurve"/>
      <point x="1321" y="1051" type="line"/>
      <point x="1219" y="1138"/>
      <point x="1162" y="1169" type="qcurve"/>
      <point x="1106" y="1203"/>
      <point x="1028" y="1230" type="qcurve"/>
      <point x="956" y="1258"/>
      <point x="872" y="1257" type="qcurve"/>
      <point x="765" y="1258"/>
      <point x="669" y="1216" type="qcurve"/>
      <point x="574" y="1175"/>
      <point x="504" y="1105" type="qcurve"/>
      <point x="434" y="1036"/>
      <point x="394" y="940" type="qcurve"/>
      <point x="353" y="844"/>
      <point x="353" y="729" type="qcurve"/>
      <point x="353" y="639"/>
      <point x="385" y="544" type="qcurve"/>
      <point x="417" y="451"/>
      <point x="481" y="376" type="qcurve"/>
      <point x="545" y="304"/>
      <point x="636" y="256" type="qcurve"/>
      <point x="728" y="211"/>
      <point x="842" y="210" type="qcurve"/>
      <point x="981" y="210"/>
      <point x="1074" y="258" type="qcurve"/>
      <point x="1171" y="308"/>
      <point x="1230" y="374" type="qcurve"/>
      <point x="1289" y="440"/>
      <point x="1312" y="505" type="qcurve"/>
      <point x="1339" y="571"/>
      <point x="1339" y="549" type="qcurve"/>
      <point x="824" y="549" type="line"/>
      <point x="824" y="776" type="line"/>
      <point x="1566" y="776" type="line"/>
      <point x="1566" y="633" type="line"/>
      <point x="1566" y="552"/>
      <point x="1527" y="440" type="qcurve"/>
      <point x="1487" y="327"/>
      <point x="1401" y="227" type="qcurve"/>
      <point x="1315" y="123"/>
      <point x="1178" y="52" type="qcurve"/>
      <point x="1040" y="-22"/>
      <point x="842" y="-22" type="qcurve"/>
      <point x="706" y="-23"/>
      <point x="573" y="35" type="qcurve"/>
      <point x="443" y="92"/>
      <point x="339" y="191" type="qcurve"/>
      <point x="237" y="291"/>
      <point x="175" y="430" type="qcurve"/>
      <point x="113" y="571"/>
    </contour>
  </outline>
</glyph>
<glyph name="J" format="2">
  <advance width="1102"/>
  <unicode hex="004A"/>
  <outline>
    <contour>
      <point x="497" y="-22" type="qcurve"/>
      <point x="375" y="-22"/>
      <point x="258" y="42" type="qcurve"/>
      <point x="140" y="107"/>
      <point x="55" y="239" type="qcurve"/>
      <point x="232" y="411" type="line"/>
      <point x="291" y="289"/>
      <point x="358" y="244" type="qcurve"/>
      <point x="430" y="203"/>
      <point x="497" y="200" type="qcurve"/>
      <point x="586" y="202"/>
      <point x="643" y="269" type="qcurve"/>
      <point x="703" y="338"/>
      <point x="701" y="453" type="qcurve"/>
      <point x="701" y="1463" type="line"/>
      <point x="937" y="1463" type="line"/>
      <point x="937" y="455" type="line"/>
      <point x="940" y="320"/>
      <point x="884" y="211" type="qcurve"/>
      <point x="829" y="101"/>
      <point x="725" y="39" type="qcurve"/>
      <point x="626" y="-21"/>
    </contour>
  </outline>
</glyph>
<glyph name="K" format="2">
  <advance width="1376"/>
  <unicode hex="004B"/>
  <outline>
    <contour>
      <point x="186" y="1463" type="line"/>
      <point x="423" y="1463" type="line"/>
      <point x="423" y="881" type="line"/>
      <point x="1007" y="1463" type="line"/>
      <point x="1324" y="1463" type="line"/>
      <point x="608" y="750" type="line"/>
      <point x="1361" y="0" type="line"/>
      <point x="1042" y="0" type="line"/>
      <point x="423" y="619" type="line"/>
      <point x="423" y="0" type="line"/>
      <point x="186" y="0" type="line"/>
    </contour>
  </outline>
</glyph>
<glyph name="M" format="2">
  <advance width="1744"/>
  <unicode hex="004D"/>
  <outline>
    <contour>
      <point x="190" y="1463" type="line"/>
      <point x="415" y="1463" type="line"/>
      <point x="879" y="642" type="line"/>
      <point x="1339" y="1463" type="line"/>
      <point x="1564" y="1463" type="line"/>
      <point x="1564" y="0" type="line"/>
      <point x="1329" y="0" type="line"/>
      <point x="1329" y="946" type="line"/>
      <point x="879" y="158" type="line"/>
      <point x="427" y="946" type="line"/>
      <point x="427" y="0" type="line"/>
      <point x="190" y="0" type="line"/>
    </contour>
  </outline>
</glyph>
<glyph name="P" format="2">
  <advance width="1285"/>
  <unicode hex="0050"/>
  <outline>
    <contour>
      <point x="164" y="1463" type="line"/>
      <point x="715" y="1463" type="line"/>
      <point x="858" y="1463"/>
      <point x="968" y="1407" type="qcurve"/>
      <point x="1089" y="1353"/>
      <point x="1152" y="1250" type="qcurve"/>
      <point x="1224" y="1149"/>
      <point x="1223" y="1019" type="qcurve"/>
      <point x="1226" y="887"/>
      <point x="1153" y="786" type="qcurve"/>
      <point x="1088" y="686"/>
      <point x="969" y="627" type="qcurve"/>
      <point x="858" y="572"/>
      <point x="715" y="571" type="qcurve"/>
      <point x="398" y="571" type="line"/>
      <point x="398" y="0" type="line"/>
      <point x="164" y="0" type="line"/>
    </contour>
    <contour>
      <point x="692" y="799" type="line"/>
      <point x="831" y="799"/>
      <point x="909" y="860" type="qcurve"/>
      <point x="986" y="918"/>
      <point x="986" y="1019" type="qcurve"/>
      <point x="988" y="1118"/>
      <point x="911" y="1172" type="qcurve"/>
      <point x="831" y="1234"/>
      <point x="693" y="1233" type="qcurve"/>
      <point x="398" y="1233" type="line"/>
      <point x="398" y="799" type="line"/>
    </contour>
  </outline>
</glyph>
<glyph name="V" format="2">
  <advance width="1403"/>
  <unicode hex="0056"/>
  <outline>
    <contour>
      <point x="1088" y="1463" type="line"/>
      <point x="1339" y="1463" type="line"/>
      <point x="810" y="0" type="line"/>
      <point x="590" y="0" type="line"/>
      <point x="60" y="1463" type="line"/>
      <point x="312" y="1463" type="line"/>
      <point x="700" y="393" type="line"/>
    </contour>
  </outline>
</glyph>
<glyph name="bracketleft" format="2">
  <advance width="782"/>
  <unicode hex="005B"/>
  <outline>
    <contour>
      <point x="167" y="1463" type="line"/>
      <point x="703" y="1463" type="line"/>
      <point x="703" y="1262" type="line"/>
      <point x="383" y="1262" type="line"/>
      <point x="383" y="-118" type="line"/>
      <point x="703" y="-118" type="line"/>
      <point x="703" y="-315" type="line"/>
      <point x="167" y="-315" type="line"/>
    </contour>
  </outline>
</glyph>
<glyph name="backslash" format="2">
  <advance width="888"/>
  <unicode hex="005C"/>
  <outline>
    <contour>
      <point x="-13" y="1441" type="line"/>
      <point x="243" y="1441" type="line"/>
      <point x="921" y="-133" type="line"/>
      <point x="665" y="-133" type="line"/>
    </contour>
  </outline>
</glyph>
<glyph name="bracketright" format="2">
  <advance width="786"/>
  <unicode hex="005D"/>
  <outline>
    <contour>
      <point x="111" y="-118" type="line"/>
      <point x="431" y="-118" type="line"/>
      <point x="431" y="1262" type="line"/>
      <point x="111" y="1262" type="line"/>
      <point x="111" y="1463" type="line"/>
      <point x="645" y="1463" type="line"/>
      <point x="645" y="-315" type="line"/>
      <point x="111" y="-315" type="line"/>
    </contour>
  </outline>
</glyph>
<glyph name="asciicircum" format="2">
  <advance width="1044"/>
  <unicode hex="005E"/>
  <outline>
    <contour>
      <point x="432" y="1339" type="line"/>
      <point x="592" y="1339" type="line"/>
      <point x="940" y="749" type="line"/>
      <point x="713" y="749" type="line"/>
      <point x="513" y="1100" type="line"/>
      <point x="309" y="749" type="line"/>
      <point x="81" y="749" type="line"/>
    </contour>
  </outline>
</glyph>
<glyph name="grave" format="2">
  <advance width="766"/>
  <unicode hex="0060"/>
  <unicode hex="0300"/>
  <outline>
    <contour>
      <point x="82" y="1344" type="line"/>
      <point x="344" y="1404" type="line"/>
      <point x="643" y="1044" type="line"/>
      <point x="422" y="1044" type="line"/>
    </contour>
  </outline>
</glyph>
<glyph name="f" format="2">
  <advance width="816"/>
  <unicode hex="0066"/>
  <outline>
    <contour>
      <point x="234" y="1030" type="line"/>
      <point x="234" y="1147" type="line"/>
      <point x="233" y="1234"/>
      <point x="268" y="1307" type="qcurve"/>
      <point x="304" y="1381"/>
      <point x="368" y="1427" type="qcurve"/>
      <point x="433" y="1473"/>
      <point x="522" y="1483" type="qcurve"/>
      <point x="611" y="1494"/>
      <point x="757" y="1443" type="qcurve"/>
      <point x="692" y="1213" type="line"/>
      <point x="608" y="1257"/>
      <point x="574" y="1257" type="qcurve"/>
      <point x="543" y="1258"/>
      <point x="518" y="1244" type="qcurve"/>
      <point x="494" y="1231"/>
      <point x="479" y="1207" type="qcurve"/>
      <point x="464" y="1182"/>
      <point x="464" y="1147" type="qcurve"/>
      <point x="464" y="1030" type="line"/>
      <point x="697" y="1030" type="line"/>
      <point x="697" y="816" type="line"/>
      <point x="464" y="816" type="line"/>
      <point x="464" y="0" type="line"/>
      <point x="234" y="0" type="line"/>
      <point x="234" y="816" type="line"/>
      <point x="86" y="816" type="line"/>
      <point x="86" y="1030" type="line"/>
    </contour>
  </outline>
</glyph>
<glyph name="k" format="2">
  <advance width="1148"/>
  <unicode hex="006B"/>
  <outline>
    <contour>
      <point x="153" y="1463" type="line"/>
      <point x="386" y="1463" type="line"/>
      <point x="386" y="660" type="line"/>
      <point x="756" y="1030" type="line"/>
      <point x="1079" y="1030" type="line"/>
      <point x="577" y="528" type="line"/>
      <point x="1108" y="0" type="line"/>
      <point x="784" y="0" type="line"/>
      <point x="386" y="397" type="line"/>
      <point x="386" y="0" type="line"/>
      <point x="153" y="0" type="line"/>
    </contour>
  </outline>
</glyph>
<glyph name="l" format="2">
  <advance width="535"/>
  <unicode hex="006C"/>
  <outline>
    <contour>
      <point x="157" y="1463" type="line"/>
      <point x="387" y="1463" type="line"/>
      <point x="387" y="0" type="line"/>
      <point x="157" y="0" type="line"/>
    </contour>
  </outline>
</glyph>
<glyph name="q" format="2">
  <advance width="1279"/>
  <unicode hex="0071"/>
  <outline>
    <contour>
      <point x="634" y="193" type="qcurve"/>
      <point x="711" y="196"/>
      <point x="771" y="233" type="qcurve"/>
      <point x="833" y="273"/>
      <point x="866" y="342" type="qcurve"/>
      <point x="902" y="420"/>
      <point x="901" y="515" type="qcurve"/>
      <point x="902" y="614"/>
      <point x="865" y="685" type="qcurve"/>
      <point x="833" y="760"/>
      <point x="771" y="797" type="qcurve"/>
      <point x="712" y="838"/>
      <point x="634" y="837" type="qcurve"/>
      <point x="559" y="838"/>
      <point x="497" y="797" type="qcurve"/>
      <point x="437" y="760"/>
      <point x="401" y="685" type="qcurve"/>
      <point x="368" y="615"/>
      <point x="368" y="515" type="qcurve"/>
      <point x="368" y="419"/>
      <point x="401" y="344" type="qcurve"/>
      <point x="437" y="274"/>
      <point x="495" y="233" type="qcurve"/>
      <point x="559" y="196"/>
    </contour>
    <contour>
      <point x="1132" y="1030" type="line"/>
      <point x="1132" y="-356" type="line"/>
      <point x="901" y="-356" type="line"/>
      <point x="901" y="43" type="line"/>
      <point x="933" y="99"/>
      <point x="834" y="39" type="qcurve"/>
      <point x="735" y="-22"/>
      <point x="609" y="-22" type="qcurve"/>
      <point x="475" y="-24"/>
      <point x="364" y="48" type="qcurve"/>
      <point x="255" y="119"/>
      <point x="191" y="243" type="qcurve"/>
      <point x="133" y="369"/>
      <point x="129" y="515" type="qcurve"/>
      <point x="132" y="667"/>
      <point x="191" y="789" type="qcurve"/>
      <point x="255" y="916"/>
      <point x="362" y="982" type="qcurve"/>
      <point x="475" y="1055"/>
      <point x="609" y="1054" type="qcurve"/>
      <point x="732" y="1055"/>
      <point x="831" y="995" type="qcurve"/>
      <point x="930" y="936"/>
      <point x="901" y="986" type="qcurve"/>
      <point x="901" y="1030" type="line"/>
    </contour>
  </outline>
</glyph>
<glyph name="t" format="2">
  <advance width="791"/>
  <unicode hex="0074"/>
  <outline>
    <contour>
      <point x="278" y="0" type="line"/>
      <point x="278" y="817" type="line"/>
      <point x="88" y="817" type="line"/>
      <point x="88" y="1030" type="line"/>
      <point x="278" y="1030" type="line"/>
      <point x="278" y="1285" type="line"/>
      <point x="507" y="1285" type="line"/>
      <point x="507" y="1030" type="line"/>
      <point x="697" y="1030" type="line"/>
      <point x="697" y="817" type="line"/>
      <point x="507" y="817" type="line"/>
      <point x="507" y="0" type="line"/>
    </contour>
  </outline>
</glyph>
<glyph name="bar" format="2">
  <advance width="630"/>
  <unicode hex="007C"/>
  <outline>
    <contour>
      <point x="219" y="1462" type="line"/>
      <point x="421" y="1462" type="line"/>
      <point x="421" y="-133" type="line"/>
      <point x="219" y="-133" type="line"/>
    </contour>
  </outline>
</glyph>
<glyph name="braceright" format="2">
  <advance width="832"/>
  <unicode hex="007D"/>
  <outline>
    <contour>
      <point x="414" y="588" type="qcurve"/>
      <point x="437" y="580"/>
      <point x="398" y="641" type="qcurve"/>
      <point x="362" y="705"/>
      <point x="358" y="795" type="qcurve"/>
      <point x="360" y="1120" type="line"/>
      <point x="360" y="1185"/>
      <point x="346" y="1214" type="qcurve"/>
      <point x="333" y="1238"/>
      <point x="295" y="1254" type="qcurve"/>
      <point x="248" y="1277"/>
      <point x="96" y="1294" type="qcurve"/>
      <point x="118" y="1486" type="line"/>
      <point x="311" y="1465"/>
      <point x="399" y="1427" type="qcurve"/>
      <point x="495" y="1388"/>
      <point x="536" y="1308" type="qcurve"/>
      <point x="572" y="1238"/>
      <point x="572" y="1128" type="qcurve"/>
      <point x="572" y="812" type="line"/>
      <point x="572" y="741"/>
      <point x="601" y="712" type="qcurve"/>
      <point x="625" y="688"/>
      <point x="748" y="687" type="qcurve"/>
      <point x="748" y="494" type="line"/>
      <point x="625" y="494"/>
      <point x="601" y="469" type="qcurve"/>
      <point x="572" y="441"/>
      <point x="572" y="368" type="qcurve"/>
      <point x="572" y="53" type="line"/>
      <point x="572" y="-56"/>
      <point x="535" y="-127" type="qcurve"/>
      <point x="495" y="-206"/>
      <point x="398" y="-245" type="qcurve"/>
      <point x="311" y="-283"/>
      <point x="118" y="-306" type="qcurve"/>
      <point x="96" y="-117" type="line"/>
      <point x="247" y="-96"/>
      <point x="294" y="-73" type="qcurve"/>
      <point x="334" y="-57"/>
      <point x="345" y="-33" type="qcurve"/>
      <point x="360" y="-4"/>
      <point x="360" y="60" type="qcurve"/>
      <point x="358" y="385" type="line"/>
      <point x="361" y="478"/>
      <point x="399" y="540" type="qcurve"/>
      <point x="441" y="601"/>
    </contour>
  </outline>
</glyph>
<glyph name="exclamdown" format="2">
  <advance width="617"/>
  <unicode hex="00A1"/>
  <outline>
    <contour>
      <point x="312" y="1054" type="qcurve"/>
      <point x="373" y="1056"/>
      <point x="415" y="1010" type="qcurve"/>
      <point x="458" y="970"/>
      <point x="460" y="906" type="qcurve"/>
      <point x="458" y="849"/>
      <point x="415" y="807" type="qcurve"/>
      <point x="373" y="763"/>
      <point x="312" y="763" type="qcurve"/>
      <point x="255" y="763"/>
      <point x="212" y="807" type="qcurve"/>
      <point x="169" y="850"/>
      <point x="169" y="905" type="qcurve"/>
      <point x="166" y="968"/>
      <point x="210" y="1010" type="qcurve"/>
      <point x="253" y="1056"/>
    </contour>
    <contour>
      <point x="442" y="-308" type="line"/>
      <point x="179" y="-308" type="line"/>
      <point x="219" y="682" type="line"/>
      <point x="404" y="682" type="line"/>
    </contour>
  </outline>
</glyph>
<glyph name="dieresis" format="2">
  <advance width="866"/>
  <unicode hex="00A8"/>
  <unicode hex="0308"/>
  <outline>
    <contour>
      <point x="262" y="1342" type="qcurve"/>
      <point x="317" y="1342"/>
      <point x="354" y="1304" type="qcurve"/>
      <point x="394" y="1266"/>
      <point x="394" y="1212" type="qcurve"/>
      <point x="396" y="1157"/>
      <point x="355" y="1119" type="qcurve"/>
      <point x="316" y="1081"/>
      <point x="262" y="1081" type="qcurve"/>
      <point x="211" y="1081"/>
      <point x="171" y="1118" type="qcurve"/>
      <point x="133" y="1158"/>
      <point x="133" y="1210" type="qcurve"/>
      <point x="131" y="1264"/>
      <point x="170" y="1303" type="qcurve"/>
      <point x="210" y="1342"/>
    </contour>
    <contour>
      <point x="611" y="1342" type="qcurve"/>
      <point x="666" y="1342"/>
      <point x="703" y="1304" type="qcurve"/>
      <point x="743" y="1266"/>
      <point x="743" y="1213" type="qcurve"/>
      <point x="743" y="1160"/>
      <point x="705" y="1120" type="qcurve"/>
      <point x="666" y="1081"/>
      <point x="611" y="1081" type="qcurve"/>
      <point x="557" y="1081"/>
      <point x="519" y="1120" type="qcurve"/>
      <point x="483" y="1161"/>
      <point x="483" y="1213" type="qcurve"/>
      <point x="483" y="1264"/>
      <point x="518" y="1302" type="qcurve"/>
      <point x="557" y="1342"/>
    </contour>
  </outline>
</glyph>
<glyph name="guillemotleft" format="2">
  <advance width="1103"/>
  <unicode hex="00AB"/>
  <outline>
    <contour>
      <point x="88" y="503" type="line"/>
      <point x="422" y="913" type="line"/>
      <point x="645" y="859" type="line"/>
      <point x="355" y="503" type="line"/>
      <point x="643" y="145" type="line"/>
      <point x="422" y="86" type="line"/>
    </contour>
    <contour>
      <point x="446" y="503" type="line"/>
      <point x="780" y="913" type="line"/>
      <point x="1003" y="859" type="line"/>
      <point x="713" y="503" type="line"/>
      <point x="1001" y="145" type="line"/>
      <point x="780" y="86" type="line"/>
    </contour>
  </outline>
</glyph>
<glyph name="macron" format="2">
  <advance width="911"/>
  <unicode hex="00AF"/>
  <outline>
    <contour>
      <point x="134" y="1272" type="line"/>
      <point x="791" y="1272" type="line"/>
      <point x="791" y="1077" type="line"/>
      <point x="134" y="1077" type="line"/>
    </contour>
  </outline>
</glyph>
<glyph name="periodcentered" format="2">
  <advance width="554"/>
  <unicode hex="00B7"/>
  <outline>
    <contour>
      <point x="286" y="400" type="qcurve"/>
      <point x="230" y="400"/>
      <point x="184" y="441" type="qcurve"/>
      <point x="145" y="484"/>
      <point x="144" y="540" type="qcurve"/>
      <point x="145" y="599"/>
      <point x="184" y="641" type="qcurve"/>
      <point x="230" y="686"/>
      <point x="286" y="682" type="qcurve"/>
      <point x="342" y="686"/>
      <point x="383" y="643" type="qcurve"/>
      <point x="425" y="602"/>
      <point x="425" y="540" type="qcurve"/>
      <point x="425" y="483"/>
      <point x="383" y="442" type="qcurve"/>
      <point x="344" y="400"/>
    </contour>
  </outline>
</glyph>
<glyph name="cedilla" format="2">
  <advance width="688"/>
  <unicode hex="00B8"/>
  <unicode hex="0327"/>
  <outline>
    <contour>
      <point x="396" y="11" type="qcurve"/>
      <point x="468" y="15"/>
      <point x="516" y="-32" type="qcurve"/>
      <point x="572" y="-79"/>
      <point x="568" y="-155" type="qcurve"/>
      <point x="568" y="-241"/>
      <point x="497" y="-296" type="qcurve"/>
      <point x="436" y="-346"/>
      <point x="342" y="-347" type="qcurve"/>
      <point x="292" y="-347"/>
      <point x="240" y="-331" type="qcurve"/>
      <point x="190" y="-312"/>
      <point x="122" y="-267" type="qcurve"/>
      <point x="198" y="-103" type="line"/>
      <point x="287" y="-168"/>
      <point x="337" y="-170" type="qcurve"/>
      <point x="358" y="-170"/>
      <point x="370" y="-161" type="qcurve"/>
      <point x="378" y="-155"/>
      <point x="377" y="-148" type="qcurve"/>
      <point x="377" y="-140"/>
      <point x="377" y="-140" type="qcurve"/>
      <point x="368" y="-131"/>
      <point x="352" y="-131" type="qcurve"/>
      <point x="337" y="-131"/>
      <point x="289" y="-169" type="qcurve"/>
      <point x="210" y="-84" type="line"/>
      <point x="293" y="113" type="line"/>
      <point x="486" y="113" type="line"/>
      <point x="464" y="60" type="line"/>
      <point x="375" y="15"/>
    </contour>
  </outline>
</glyph>
<glyph name="guillemotright" format="2">
  <advance width="1079"/>
  <unicode hex="00BB"/>
  <outline>
    <contour>
      <point x="77" y="146" type="line"/>
      <point x="367" y="503" type="line"/>
      <point x="75" y="859" type="line"/>
      <point x="303" y="913" type="line"/>
      <point x="634" y="502" type="line"/>
      <point x="302" y="86" type="line"/>
    </contour>
    <contour>
      <point x="442" y="146" type="line"/>
      <point x="727" y="504" type="line"/>
      <point x="440" y="859" type="line"/>
      <point x="660" y="914" type="line"/>
      <point x="993" y="502" type="line"/>
      <point x="659" y="86" type="line"/>
    </contour>
  </outline>
</glyph>
<glyph name="Agrave" format="2">
  <advance width="1409"/>
  <unicode hex="00C0"/>
  <outline>
    <contour>
      <point x="595" y="1463" type="line"/>
      <point x="815" y="1463" type="line"/>
      <point x="1345" y="0" type="line"/>
      <point x="1094" y="0" type="line"/>
      <point x="953" y="393" type="line"/>
      <point x="456" y="393" type="line"/>
      <point x="312" y="0" type="line"/>
      <point x="59" y="0" type="line"/>
    </contour>
    <contour>
      <point x="705" y="1071" type="line"/>
      <point x="539" y="619" type="line"/>
      <point x="870" y="619" type="line"/>
    </contour>
    <contour>
      <point x="420" y="1765" type="line"/>
      <point x="682" y="1825" type="line"/>
      <point x="981" y="1465" type="line"/>
      <point x="759" y="1465" type="line"/>
    </contour>
  </outline>
</glyph>
<glyph name="Aacute" format="2">
  <advance width="1409"/>
  <unicode hex="00C1"/>
  <outline>
    <contour>
      <point x="595" y="1463" type="line"/>
      <point x="815" y="1463" type="line"/>
      <point x="1345" y="0" type="line"/>
      <point x="1094" y="0" type="line"/>
      <point x="953" y="393" type="line"/>
      <point x="456" y="393" type="line"/>
      <point x="312" y="0" type="line"/>
      <point x="59" y="0" type="line"/>
    </contour>
    <contour>
      <point x="705" y="1071" type="line"/>
      <point x="539" y="619" type="line"/>
      <point x="870" y="619" type="line"/>
    </contour>
    <contour>
      <point x="722" y="1824" type="line"/>
      <point x="981" y="1764" type="line"/>
      <point x="643" y="1465" type="line"/>
      <point x="419" y="1465" type="line"/>
    </contour>
  </outline>
</glyph>
<glyph name="Atilde" format="2">
  <advance width="1409"/>
  <unicode hex="00C3"/>
  <outline>
    <contour>
      <point x="595" y="1463" type="line"/>
      <point x="815" y="1463" type="line"/>
      <point x="1345" y="0" type="line"/>
      <point x="1094" y="0" type="line"/>
      <point x="953" y="393" type="line"/>
      <point x="456" y="393" type="line"/>
      <point x="312" y="0" type="line"/>
      <point x="59" y="0" type="line"/>
    </contour>
    <contour>
      <point x="705" y="1071" type="line"/>
      <point x="539" y="619" type="line"/>
      <point x="870" y="619" type="line"/>
    </contour>
    <contour>
      <point x="821" y="1468" type="qcurve"/>
      <point x="767" y="1465"/>
      <point x="724" y="1492" type="qcurve"/>
      <point x="696" y="1513"/>
      <point x="647" y="1548" type="qcurve"/>
      <point x="622" y="1574"/>
      <point x="604" y="1582" type="qcurve"/>
      <point x="596" y="1589"/>
      <point x="585" y="1588" type="qcurve"/>
      <point x="573" y="1588"/>
      <point x="564" y="1575" type="qcurve"/>
      <point x="549" y="1558"/>
      <point x="530" y="1459" type="qcurve"/>
      <point x="357" y="1482" type="line"/>
      <point x="398" y="1786"/>
      <point x="582" y="1786" type="qcurve"/>
      <point x="631" y="1789"/>
      <point x="671" y="1764" type="qcurve"/>
      <point x="706" y="1747"/>
      <point x="753" y="1708" type="qcurve"/>
      <point x="783" y="1683"/>
      <point x="796" y="1674" type="qcurve"/>
      <point x="808" y="1668"/>
      <point x="818" y="1668" type="qcurve"/>
      <point x="831" y="1668"/>
      <point x="838" y="1679" type="qcurve"/>
      <point x="853" y="1698"/>
      <point x="870" y="1795" type="qcurve"/>
      <point x="1044" y="1772" type="line"/>
      <point x="1005" y="1470"/>
    </contour>
  </outline>
</glyph>
<glyph name="Aring" format="2">
  <advance width="1409"/>
  <unicode hex="00C5"/>
  <outline>
    <contour>
      <point x="595" y="1463" type="line"/>
      <point x="815" y="1463" type="line"/>
      <point x="1345" y="0" type="line"/>
      <point x="1094" y="0" type="line"/>
      <point x="953" y="393" type="line"/>
      <point x="456" y="393" type="line"/>
      <point x="312" y="0" type="line"/>
      <point x="59" y="0" type="line"/>
    </contour>
    <contour>
      <point x="705" y="1071" type="line"/>
      <point x="539" y="619" type="line"/>
      <point x="870" y="619" type="line"/>
    </contour>
    <contour>
      <point x="700" y="1465" type="qcurve"/>
      <point x="605" y="1465"/>
      <point x="535" y="1532" type="qcurve"/>
      <point x="467" y="1601"/>
      <point x="467" y="1699" type="qcurve"/>
      <point x="467" y="1799"/>
      <point x="536" y="1863" type="qcurve"/>
      <point x="605" y="1933"/>
      <point x="700" y="1933" type="qcurve"/>
      <point x="804" y="1933"/>
      <point x="868" y="1861" type="qcurve"/>
      <point x="934" y="1798"/>
      <point x="934" y="1699" type="qcurve"/>
      <point x="934" y="1601"/>
      <point x="868" y="1532" type="qcurve"/>
      <point x="803" y="1465"/>
    </contour>
    <contour>
      <point x="700" y="1639" type="qcurve"/>
      <point x="725" y="1639"/>
      <point x="743" y="1657" type="qcurve"/>
      <point x="761" y="1675"/>
      <point x="761" y="1699" type="qcurve"/>
      <point x="761" y="1723"/>
      <point x="744" y="1741" type="qcurve"/>
      <point x="727" y="1758"/>
      <point x="700" y="1758" type="qcurve"/>
      <point x="678" y="1758"/>
      <point x="661" y="1743" type="qcurve"/>
      <point x="643" y="1724"/>
      <point x="642" y="1698" type="qcurve"/>
      <point x="642" y="1673"/>
      <point x="658" y="1657" type="qcurve"/>
      <point x="678" y="1639"/>
    </contour>
  </outline>
</glyph>
<glyph name="AE" format="2">
  <advance width="2173"/>
  <unicode hex="00C6"/>
  <outline>
    <contour>
      <point x="1223" y="1237" type="line"/>
      <point x="1225" y="861" type="line"/>
      <point x="1973" y="861" type="line"/>
      <point x="1977" y="632" type="line"/>
      <point x="1223" y="632" type="line"/>
      <point x="1225" y="233" type="line"/>
      <point x="2056" y="233" type="line"/>
      <point x="2052" y="2" type="line"/>
      <point x="982" y="0" type="line"/>
      <point x="984" y="316" type="line"/>
      <point x="519" y="316" type="line"/>
      <point x="337" y="0" type="line"/>
      <point x="62" y="0" type="line"/>
      <point x="903" y="1463" type="line"/>
      <point x="2056" y="1463" type="line"/>
      <point x="2052" y="1235" type="line"/>
    </contour>
    <contour>
      <point x="982" y="549" type="line"/>
      <point x="984" y="1126" type="line"/>
      <point x="649" y="549" type="line"/>
    </contour>
  </outline>
</glyph>
<glyph name="Egrave" format="2">
  <advance width="1257"/>
  <unicode hex="00C8"/>
  <outline>
    <contour>
      <point x="400" y="1233" type="line"/>
      <point x="400" y="857" type="line"/>
      <point x="1078" y="857" type="line"/>
      <point x="1078" y="630" type="line"/>
      <point x="400" y="630" type="line"/>
      <point x="400" y="227" type="line"/>
      <point x="1152" y="227" type="line"/>
      <point x="1152" y="0" type="line"/>
      <point x="164" y="0" type="line"/>
      <point x="164" y="1463" type="line"/>
      <point x="1152" y="1463" type="line"/>
      <point x="1152" y="1233" type="line"/>
    </contour>
    <contour>
      <point x="377" y="1764" type="line"/>
      <point x="638" y="1825" type="line"/>
      <point x="939" y="1465" type="line"/>
      <point x="716" y="1465" type="line"/>
    </contour>
  </outline>
</glyph>
<glyph name="Idieresis" format="2">
  <advance width="540"/>
  <unicode hex="00CF"/>
  <outline>
    <contour>
      <point x="164" y="1463" type="line"/>
      <point x="398" y="1463" type="line"/>
      <point x="398" y="0" type="line"/>
      <point x="164" y="0" type="line"/>
    </contour>
    <contour>
      <point x="104" y="1726" type="qcurve"/>
      <point x="159" y="1726"/>
      <point x="196" y="1687" type="qcurve"/>
      <point x="236" y="1650"/>
      <point x="236" y="1595" type="qcurve"/>
      <point x="238" y="1541"/>
      <point x="197" y="1502" type="qcurve"/>
      <point x="158" y="1465"/>
      <point x="104" y="1465" type="qcurve"/>
      <point x="53" y="1465"/>
      <point x="13" y="1501" type="qcurve"/>
      <point x="-25" y="1542"/>
      <point x="-25" y="1593" type="qcurve"/>
      <point x="-27" y="1648"/>
      <point x="12" y="1686" type="qcurve"/>
      <point x="52" y="1726"/>
    </contour>
    <contour>
      <point x="453" y="1726" type="qcurve"/>
      <point x="508" y="1726"/>
      <point x="545" y="1687" type="qcurve"/>
      <point x="585" y="1650"/>
      <point x="585" y="1596" type="qcurve"/>
      <point x="585" y="1543"/>
      <point x="547" y="1504" type="qcurve"/>
      <point x="509" y="1465"/>
      <point x="453" y="1465" type="qcurve"/>
      <point x="400" y="1465"/>
      <point x="361" y="1504" type="qcurve"/>
      <point x="325" y="1544"/>
      <point x="325" y="1596" type="qcurve"/>
      <point x="325" y="1648"/>
      <point x="360" y="1685" type="qcurve"/>
      <point x="400" y="1726"/>
    </contour>
  </outline>
</glyph>
<glyph name="Ntilde" format="2">
  <advance width="1597"/>
  <unicode hex="00D1"/>
  <outline>
    <contour>
      <point x="190" y="1463" type="line"/>
      <point x="403" y="1463" type="line"/>
      <point x="1181" y="422" type="line"/>
      <point x="1181" y="1463" type="line"/>
      <point x="1416" y="1463" type="line"/>
      <point x="1416" y="0" type="line"/>
      <point x="1204" y="0" type="line"/>
      <point x="427" y="1042" type="line"/>
      <point x="427" y="0" type="line"/>
      <point x="190" y="0" type="line"/>
    </contour>
    <contour>
      <point x="923" y="1468" type="qcurve"/>
      <point x="872" y="1465"/>
      <point x="826" y="1491" type="qcurve"/>
      <point x="800" y="1512"/>
      <point x="748" y="1547" type="qcurve"/>
      <point x="727" y="1574"/>
      <point x="707" y="1582" type="qcurve"/>
      <point x="698" y="1589"/>
      <point x="689" y="1588" type="qcurve"/>
      <point x="677" y="1588"/>
      <point x="667" y="1575" type="qcurve"/>
      <point x="651" y="1557"/>
      <point x="634" y="1459" type="qcurve"/>
      <point x="461" y="1482" type="line"/>
      <point x="500" y="1786"/>
      <point x="685" y="1786" type="qcurve"/>
      <point x="736" y="1789"/>
      <point x="776" y="1765" type="qcurve"/>
      <point x="810" y="1747"/>
      <point x="858" y="1708" type="qcurve"/>
      <point x="885" y="1684"/>
      <point x="899" y="1675" type="qcurve"/>
      <point x="912" y="1668"/>
      <point x="920" y="1668" type="qcurve"/>
      <point x="934" y="1668"/>
      <point x="942" y="1679" type="qcurve"/>
      <point x="956" y="1699"/>
      <point x="973" y="1795" type="qcurve"/>
      <point x="1149" y="1772" type="line"/>
      <point x="1107" y="1470"/>
    </contour>
  </outline>
</glyph>
<glyph name="Otilde" format="2">
  <advance width="1722"/>
  <unicode hex="00D5"/>
  <outline>
    <contour>
      <point x="862" y="-22" type="qcurve"/>
      <point x="665" y="-21"/>
      <point x="493" y="82" type="qcurve"/>
      <point x="321" y="185"/>
      <point x="218" y="356" type="qcurve"/>
      <point x="113" y="529"/>
      <point x="113" y="731" type="qcurve"/>
      <point x="113" y="936"/>
      <point x="219" y="1106" type="qcurve"/>
      <point x="322" y="1278"/>
      <point x="491" y="1381" type="qcurve"/>
      <point x="664" y="1487"/>
      <point x="862" y="1483" type="qcurve"/>
      <point x="1064" y="1485"/>
      <point x="1231" y="1383" type="qcurve"/>
      <point x="1400" y="1281"/>
      <point x="1503" y="1108" type="qcurve"/>
      <point x="1608" y="938"/>
      <point x="1605" y="731" type="qcurve"/>
      <point x="1607" y="530"/>
      <point x="1503" y="356" type="qcurve"/>
      <point x="1404" y="189"/>
      <point x="1233" y="84" type="qcurve"/>
      <point x="1064" y="-19"/>
    </contour>
    <contour>
      <point x="861" y="215" type="qcurve"/>
      <point x="991" y="218"/>
      <point x="1112" y="288" type="qcurve"/>
      <point x="1232" y="358"/>
      <point x="1298" y="478" type="qcurve"/>
      <point x="1371" y="599"/>
      <point x="1368" y="731" type="qcurve"/>
      <point x="1369" y="864"/>
      <point x="1298" y="987" type="qcurve"/>
      <point x="1232" y="1107"/>
      <point x="1114" y="1176" type="qcurve"/>
      <point x="994" y="1246"/>
      <point x="862" y="1246" type="qcurve"/>
      <point x="730" y="1248"/>
      <point x="609" y="1178" type="qcurve"/>
      <point x="550" y="1141"/>
      <point x="504" y="1096" type="qcurve"/>
      <point x="459" y="1053"/>
      <point x="422" y="991" type="qcurve"/>
      <point x="353" y="868"/>
      <point x="353" y="731" type="qcurve"/>
      <point x="351" y="599"/>
      <point x="419" y="478" type="qcurve"/>
      <point x="458" y="418"/>
      <point x="503" y="370" type="qcurve"/>
      <point x="549" y="324"/>
      <point x="608" y="287" type="qcurve"/>
      <point x="729" y="213"/>
    </contour>
    <contour>
      <point x="979" y="1492" type="qcurve"/>
      <point x="929" y="1489"/>
      <point x="884" y="1514" type="qcurve"/>
      <point x="856" y="1535"/>
      <point x="806" y="1571" type="qcurve"/>
      <point x="781" y="1597"/>
      <point x="762" y="1606" type="qcurve"/>
      <point x="755" y="1612"/>
      <point x="745" y="1611" type="qcurve"/>
      <point x="732" y="1611"/>
      <point x="723" y="1600" type="qcurve"/>
      <point x="708" y="1580"/>
      <point x="689" y="1482" type="qcurve"/>
      <point x="515" y="1506" type="line"/>
      <point x="557" y="1809"/>
      <point x="740" y="1809" type="qcurve"/>
      <point x="791" y="1814"/>
      <point x="832" y="1787" type="qcurve"/>
      <point x="865" y="1769"/>
      <point x="913" y="1731" type="qcurve"/>
      <point x="942" y="1706"/>
      <point x="955" y="1698" type="qcurve"/>
      <point x="968" y="1691"/>
      <point x="978" y="1691" type="qcurve"/>
      <point x="991" y="1691"/>
      <point x="996" y="1700" type="qcurve"/>
      <point x="1011" y="1722"/>
      <point x="1030" y="1820" type="qcurve"/>
      <point x="1203" y="1794" type="line"/>
      <point x="1164" y="1495"/>
    </contour>
  </outline>
</glyph>
<glyph name="Udieresis" format="2">
  <advance width="1476"/>
  <unicode hex="00DC"/>
  <outline>
    <contour>
      <point x="744" y="-22" type="qcurve"/>
      <point x="586" y="-22"/>
      <point x="452" y="55" type="qcurve"/>
      <point x="322" y="133"/>
      <point x="250" y="264" type="qcurve"/>
      <point x="180" y="400"/>
      <point x="177" y="562" type="qcurve"/>
      <point x="177" y="1463" type="line"/>
      <point x="412" y="1463" type="line"/>
      <point x="412" y="563" type="line"/>
      <point x="412" y="459"/>
      <point x="456" y="375" type="qcurve"/>
      <point x="498" y="294"/>
      <point x="572" y="247" type="qcurve"/>
      <point x="648" y="202"/>
      <point x="744" y="200" type="qcurve"/>
      <point x="838" y="203"/>
      <point x="913" y="247" type="qcurve"/>
      <point x="989" y="293"/>
      <point x="1032" y="373" type="qcurve"/>
      <point x="1077" y="457"/>
      <point x="1074" y="563" type="qcurve"/>
      <point x="1074" y="1463" type="line"/>
      <point x="1309" y="1463" type="line"/>
      <point x="1309" y="564" type="line"/>
      <point x="1313" y="400"/>
      <point x="1240" y="263" type="qcurve"/>
      <point x="1170" y="134"/>
      <point x="1039" y="55" type="qcurve"/>
      <point x="905" y="-22"/>
    </contour>
    <contour>
      <point x="569" y="1726" type="qcurve"/>
      <point x="623" y="1726"/>
      <point x="661" y="1687" type="qcurve"/>
      <point x="700" y="1650"/>
      <point x="700" y="1595" type="qcurve"/>
      <point x="702" y="1541"/>
      <point x="662" y="1502" type="qcurve"/>
      <point x="622" y="1465"/>
      <point x="569" y="1465" type="qcurve"/>
      <point x="517" y="1465"/>
      <point x="478" y="1501" type="qcurve"/>
      <point x="439" y="1542"/>
      <point x="439" y="1593" type="qcurve"/>
      <point x="437" y="1648"/>
      <point x="477" y="1686" type="qcurve"/>
      <point x="516" y="1726"/>
    </contour>
    <contour>
      <point x="917" y="1726" type="qcurve"/>
      <point x="972" y="1726"/>
      <point x="1010" y="1687" type="qcurve"/>
      <point x="1049" y="1650"/>
      <point x="1049" y="1596" type="qcurve"/>
      <point x="1049" y="1543"/>
      <point x="1011" y="1504" type="qcurve"/>
      <point x="973" y="1465"/>
      <point x="917" y="1465" type="qcurve"/>
      <point x="864" y="1465"/>
      <point x="825" y="1504" type="qcurve"/>
      <point x="790" y="1544"/>
      <point x="790" y="1596" type="qcurve"/>
      <point x="790" y="1648"/>
      <point x="824" y="1685" type="qcurve"/>
      <point x="864" y="1726"/>
    </contour>
  </outline>
</glyph>
<glyph name="Yacute" format="2">
  <advance width="1469"/>
  <unicode hex="00DD"/>
  <outline>
    <contour>
      <point x="604" y="591" type="line"/>
      <point x="12" y="1463" type="line"/>
      <point x="300" y="1463" type="line"/>
      <point x="729" y="836" type="line"/>
      <point x="1153" y="1463" type="line"/>
      <point x="1435" y="1463" type="line"/>
      <point x="847" y="591" type="line"/>
      <point x="847" y="0" type="line"/>
      <point x="604" y="0" type="line"/>
    </contour>
    <contour>
      <point x="746" y="1824" type="line"/>
      <point x="1006" y="1764" type="line"/>
      <point x="667" y="1465" type="line"/>
      <point x="442" y="1465" type="line"/>
    </contour>
  </outline>
</glyph>
<glyph name="aring" format="2">
  <advance width="1279"/>
  <unicode hex="00E5"/>
  <outline>
    <contour>
      <point x="622" y="193" type="qcurve"/>
      <point x="699" y="196"/>
      <point x="760" y="233" type="qcurve"/>
      <point x="821" y="273"/>
      <point x="854" y="343" type="qcurve"/>
      <point x="891" y="420"/>
      <point x="890" y="515" type="qcurve"/>
      <point x="891" y="614"/>
      <point x="854" y="685" type="qcurve"/>
      <point x="821" y="759"/>
      <point x="760" y="798" type="qcurve"/>
      <point x="700" y="838"/>
      <point x="622" y="837" type="qcurve"/>
      <point x="548" y="838"/>
      <point x="486" y="796" type="qcurve"/>
      <point x="424" y="759"/>
      <point x="389" y="686" type="qcurve"/>
      <point x="355" y="614"/>
      <point x="355" y="515" type="qcurve"/>
      <point x="355" y="420"/>
      <point x="390" y="345" type="qcurve"/>
      <point x="425" y="274"/>
      <point x="484" y="233" type="qcurve"/>
      <point x="548" y="196"/>
    </contour>
    <contour>
      <point x="1120" y="1030" type="line"/>
      <point x="1120" y="0" type="line"/>
      <point x="890" y="0" type="line"/>
      <point x="890" y="49" type="line"/>
      <point x="919" y="99"/>
      <point x="822" y="39" type="qcurve"/>
      <point x="724" y="-22"/>
      <point x="598" y="-22" type="qcurve"/>
      <point x="463" y="-24"/>
      <point x="352" y="48" type="qcurve"/>
      <point x="243" y="119"/>
      <point x="180" y="243" type="qcurve"/>
      <point x="121" y="368"/>
      <point x="117" y="515" type="qcurve"/>
      <point x="120" y="667"/>
      <point x="180" y="789" type="qcurve"/>
      <point x="243" y="916"/>
      <point x="351" y="982" type="qcurve"/>
      <point x="463" y="1055"/>
      <point x="598" y="1054" type="qcurve"/>
      <point x="721" y="1055"/>
      <point x="820" y="995" type="qcurve"/>
      <point x="918" y="936"/>
      <point x="890" y="986" type="qcurve"/>
      <point x="890" y="1030" type="line"/>
    </contour>
    <contour>
      <point x="619" y="1056" type="qcurve"/>
      <point x="523" y="1057"/>
      <point x="454" y="1123" type="qcurve"/>
      <point x="386" y="1191"/>
      <point x="384" y="1290" type="qcurve"/>
      <point x="385" y="1389"/>
      <point x="453" y="1455" type="qcurve"/>
      <point x="524" y="1525"/>
      <point x="619" y="1524" type="qcurve"/>
      <point x="719" y="1525"/>
      <point x="786" y="1454" type="qcurve"/>
      <point x="853" y="1388"/>
      <point x="853" y="1290" type="qcurve"/>
      <point x="853" y="1191"/>
      <point x="785" y="1124" type="qcurve"/>
      <point x="720" y="1057"/>
    </contour>
    <contour>
      <point x="619" y="1231" type="qcurve"/>
      <point x="643" y="1231"/>
      <point x="662" y="1248" type="qcurve"/>
      <point x="681" y="1266"/>
      <point x="680" y="1290" type="qcurve"/>
      <point x="680" y="1315"/>
      <point x="663" y="1331" type="qcurve"/>
      <point x="645" y="1349"/>
      <point x="618" y="1349" type="qcurve"/>
      <point x="595" y="1350"/>
      <point x="579" y="1334" type="qcurve"/>
      <point x="561" y="1316"/>
      <point x="560" y="1289" type="qcurve"/>
      <point x="560" y="1265"/>
      <point x="575" y="1248" type="qcurve"/>
      <point x="595" y="1231"/>
    </contour>
  </outline>
</glyph>
<glyph name="ae" format="2">
  <advance width="1871"/>
  <unicode hex="00E6"/>
  <outline>
    <contour>
      <point x="1303" y="193" type="qcurve"/>
      <point x="1377" y="196"/>
      <point x="1454" y="222" type="qcurve"/>
      <point x="1530" y="252"/>
      <point x="1600" y="329" type="qcurve"/>
      <point x="1747" y="170" type="line"/>
      <point x="1650" y="65"/>
      <point x="1531" y="22" type="qcurve"/>
      <point x="1418" y="-19"/>
      <point x="1306" y="-22" type="qcurve"/>
      <point x="1177" y="-24"/>
      <point x="1058" y="40" type="qcurve"/>
      <point x="945" y="108"/>
      <point x="913" y="155" type="qcurve"/>
      <point x="885" y="110"/>
      <point x="771" y="45" type="qcurve"/>
      <point x="660" y="-24"/>
      <point x="521" y="-22" type="qcurve"/>
      <point x="337" y="-24"/>
      <point x="225" y="67" type="qcurve"/>
      <point x="113" y="163"/>
      <point x="113" y="321" type="qcurve"/>
      <point x="111" y="429"/>
      <point x="168" y="512" type="qcurve"/>
      <point x="227" y="597"/>
      <point x="321" y="639" type="qcurve"/>
      <point x="418" y="684"/>
      <point x="526" y="683" type="qcurve"/>
      <point x="675" y="683"/>
      <point x="784" y="648" type="qcurve"/>
      <point x="784" y="618" type="line"/>
      <point x="786" y="716"/>
      <point x="734" y="783" type="qcurve"/>
      <point x="692" y="845"/>
      <point x="575" y="842" type="qcurve"/>
      <point x="523" y="845"/>
      <point x="464" y="823" type="qcurve"/>
      <point x="402" y="802"/>
      <point x="284" y="742" type="qcurve"/>
      <point x="185" y="933" type="line"/>
      <point x="419" y="1054"/>
      <point x="586" y="1054" type="qcurve"/>
      <point x="726" y="1055"/>
      <point x="820" y="997" type="qcurve"/>
      <point x="922" y="939"/>
      <point x="935" y="911" type="qcurve"/>
      <point x="957" y="943"/>
      <point x="1063" y="997" type="qcurve"/>
      <point x="1171" y="1055"/>
      <point x="1293" y="1054" type="qcurve"/>
      <point x="1525" y="1054"/>
      <point x="1655" y="889" type="qcurve"/>
      <point x="1787" y="730"/>
      <point x="1782" y="418" type="qcurve"/>
      <point x="1022" y="418" type="line"/>
      <point x="1031" y="346"/>
      <point x="1106" y="270" type="qcurve"/>
      <point x="1184" y="195"/>
    </contour>
    <contour>
      <point x="1297" y="837" type="qcurve"/>
      <point x="1189" y="838"/>
      <point x="1110" y="768" type="qcurve"/>
      <point x="1035" y="698"/>
      <point x="1025" y="632" type="qcurve"/>
      <point x="1552" y="632" type="line"/>
      <point x="1545" y="700"/>
      <point x="1477" y="768" type="qcurve"/>
      <point x="1416" y="837"/>
    </contour>
    <contour>
      <point x="541" y="190" type="qcurve"/>
      <point x="606" y="190"/>
      <point x="662" y="221" type="qcurve"/>
      <point x="720" y="254"/>
      <point x="751" y="306" type="qcurve"/>
      <point x="784" y="358"/>
      <point x="784" y="415" type="qcurve"/>
      <point x="784" y="447" type="line"/>
      <point x="685" y="474"/>
      <point x="547" y="474" type="qcurve"/>
      <point x="458" y="474"/>
      <point x="394" y="429" type="qcurve"/>
      <point x="338" y="389"/>
      <point x="338" y="328" type="qcurve"/>
      <point x="338" y="268"/>
      <point x="386" y="231" type="qcurve"/>
      <point x="441" y="190"/>
    </contour>
  </outline>
</glyph>
<glyph name="edieresis" format="2">
  <advance width="1198"/>
  <unicode hex="00EB"/>
  <outline>
    <contour>
      <point x="629" y="193" type="qcurve"/>
      <point x="703" y="196"/>
      <point x="777" y="222" type="qcurve"/>
      <point x="854" y="251"/>
      <point x="922" y="330" type="qcurve"/>
      <point x="1070" y="171" type="line"/>
      <point x="975" y="66"/>
      <point x="856" y="22" type="qcurve"/>
      <point x="743" y="-19"/>
      <point x="631" y="-22" type="qcurve"/>
      <point x="491" y="-22"/>
      <point x="371" y="49" type="qcurve"/>
      <point x="254" y="118"/>
      <point x="181" y="242" type="qcurve"/>
      <point x="109" y="368"/>
      <point x="109" y="517" type="qcurve"/>
      <point x="107" y="667"/>
      <point x="175" y="790" type="qcurve"/>
      <point x="245" y="915"/>
      <point x="359" y="983" type="qcurve"/>
      <point x="479" y="1055"/>
      <point x="617" y="1054" type="qcurve"/>
      <point x="850" y="1054"/>
      <point x="979" y="889" type="qcurve"/>
      <point x="1109" y="730"/>
      <point x="1109" y="418" type="qcurve"/>
      <point x="348" y="418" type="line"/>
      <point x="355" y="346"/>
      <point x="432" y="270" type="qcurve"/>
      <point x="511" y="195"/>
    </contour>
    <contour>
      <point x="622" y="837" type="qcurve"/>
      <point x="513" y="838"/>
      <point x="437" y="768" type="qcurve"/>
      <point x="361" y="698"/>
      <point x="351" y="632" type="qcurve"/>
      <point x="875" y="632" type="line"/>
      <point x="869" y="700"/>
      <point x="801" y="769" type="qcurve"/>
      <point x="739" y="837"/>
    </contour>
    <contour>
      <point x="434" y="1318" type="qcurve"/>
      <point x="488" y="1318"/>
      <point x="526" y="1278" type="qcurve"/>
      <point x="566" y="1239"/>
      <point x="566" y="1186" type="qcurve"/>
      <point x="566" y="1133"/>
      <point x="526" y="1094" type="qcurve"/>
      <point x="487" y="1056"/>
      <point x="434" y="1056" type="qcurve"/>
      <point x="382" y="1056"/>
      <point x="341" y="1094" type="qcurve"/>
      <point x="304" y="1134"/>
      <point x="304" y="1186" type="qcurve"/>
      <point x="304" y="1239"/>
      <point x="341" y="1278" type="qcurve"/>
      <point x="382" y="1318"/>
    </contour>
    <contour>
      <point x="783" y="1318" type="qcurve"/>
      <point x="837" y="1318"/>
      <point x="875" y="1278" type="qcurve"/>
      <point x="915" y="1239"/>
      <point x="915" y="1188" type="qcurve"/>
      <point x="915" y="1136"/>
      <point x="876" y="1095" type="qcurve"/>
      <point x="836" y="1056"/>
      <point x="783" y="1056" type="qcurve"/>
      <point x="729" y="1056"/>
      <point x="690" y="1096" type="qcurve"/>
      <point x="654" y="1136"/>
      <point x="654" y="1188" type="qcurve"/>
      <point x="654" y="1239"/>
      <point x="690" y="1277" type="qcurve"/>
      <point x="729" y="1318"/>
    </contour>
  </outline>
</glyph>
<glyph name="igrave" format="2">
  <advance width="577"/>
  <unicode hex="00EC"/>
  <outline>
    <contour>
      <point x="156" y="1030" type="line"/>
      <point x="386" y="1030" type="line"/>
      <point x="386" y="0" type="line"/>
      <point x="156" y="0" type="line"/>
    </contour>
    <contour>
      <point x="-9" y="1332" type="line"/>
      <point x="253" y="1392" type="line"/>
      <point x="552" y="1032" type="line"/>
      <point x="331" y="1032" type="line"/>
    </contour>
  </outline>
</glyph>
<glyph name="icircumflex" format="2">
  <advance width="566"/>
  <unicode hex="00EE"/>
  <outline>
    <contour>
      <point x="156" y="1030" type="line"/>
      <point x="386" y="1030" type="line"/>
      <point x="386" y="0" type="line"/>
      <point x="156" y="0" type="line"/>
    </contour>
    <contour>
      <point x="182" y="1375" type="line"/>
      <point x="356" y="1375" type="line"/>
      <point x="611" y="1032" type="line"/>
      <point x="391" y="1032" type="line"/>
      <point x="269" y="1164" type="line"/>
      <point x="149" y="1032" type="line"/>
      <point x="-68" y="1032" type="line"/>
    </contour>
  </outline>
</glyph>
<glyph name="idieresis" format="2">
  <advance width="519"/>
  <unicode hex="00EF"/>
  <outline>
    <contour>
      <point x="156" y="1030" type="line"/>
      <point x="386" y="1030" type="line"/>
      <point x="386" y="0" type="line"/>
      <point x="156" y="0" type="line"/>
    </contour>
    <contour>
      <point x="96" y="1293" type="qcurve"/>
      <point x="151" y="1293"/>
      <point x="188" y="1256" type="qcurve"/>
      <point x="227" y="1217"/>
      <point x="227" y="1163" type="qcurve"/>
      <point x="230" y="1109"/>
      <point x="189" y="1070" type="qcurve"/>
      <point x="150" y="1032"/>
      <point x="96" y="1032" type="qcurve"/>
      <point x="46" y="1032"/>
      <point x="6" y="1069" type="qcurve"/>
      <point x="-34" y="1109"/>
      <point x="-34" y="1162" type="qcurve"/>
      <point x="-34" y="1217"/>
      <point x="4" y="1254" type="qcurve"/>
      <point x="43" y="1293"/>
    </contour>
    <contour>
      <point x="445" y="1293" type="qcurve"/>
      <point x="499" y="1293"/>
      <point x="537" y="1255" type="qcurve"/>
      <point x="576" y="1217"/>
      <point x="576" y="1165" type="qcurve"/>
      <point x="578" y="1110"/>
      <point x="539" y="1073" type="qcurve"/>
      <point x="502" y="1032"/>
      <point x="445" y="1032" type="qcurve"/>
      <point x="392" y="1032"/>
      <point x="353" y="1072" type="qcurve"/>
      <point x="318" y="1111"/>
      <point x="317" y="1164" type="qcurve"/>
      <point x="317" y="1216"/>
      <point x="352" y="1254" type="qcurve"/>
      <point x="393" y="1293"/>
    </contour>
  </outline>
</glyph>
<glyph name="eth" format="2">
  <advance width="1257"/>
  <unicode hex="00F0"/>
  <outline>
    <contour>
      <point x="858" y="1136" type="qcurve"/>
      <point x="972" y="1030"/>
      <point x="1058" y="875" type="qcurve"/>
      <point x="1145" y="722"/>
      <point x="1142" y="535" type="qcurve"/>
      <point x="1145" y="381"/>
      <point x="1081" y="253" type="qcurve"/>
      <point x="1021" y="125"/>
      <point x="901" y="51" type="qcurve"/>
      <point x="786" y="-20"/>
      <point x="638" y="-22" type="qcurve"/>
      <point x="494" y="-24"/>
      <point x="376" y="45" type="qcurve"/>
      <point x="260" y="115"/>
      <point x="195" y="229" type="qcurve"/>
      <point x="129" y="349"/>
      <point x="129" y="498" type="qcurve"/>
      <point x="130" y="642"/>
      <point x="190" y="751" type="qcurve"/>
      <point x="247" y="867"/>
      <point x="355" y="932" type="qcurve"/>
      <point x="466" y="999"/>
      <point x="600" y="995" type="qcurve"/>
      <point x="798" y="996"/>
      <point x="683" y="1132" type="qcurve"/>
      <point x="790" y="920"/>
      <point x="649" y="1041" type="qcurve"/>
      <point x="413" y="937" type="line"/>
      <point x="322" y="1135" type="line"/>
      <point x="459" y="1195" type="line"/>
      <point x="427" y="1219"/>
      <point x="304" y="1296" type="qcurve"/>
      <point x="547" y="1400" type="line"/>
      <point x="649" y="1325"/>
      <point x="684" y="1293" type="qcurve"/>
      <point x="877" y="1382" type="line"/>
      <point x="918" y="1289" type="line"/>
      <point x="687" y="1058"/>
    </contour>
    <contour>
      <point x="639" y="195" type="qcurve"/>
      <point x="715" y="196"/>
      <point x="776" y="232" type="qcurve"/>
      <point x="838" y="270"/>
      <point x="870" y="337" type="qcurve"/>
      <point x="906" y="405"/>
      <point x="905" y="494" type="qcurve"/>
      <point x="908" y="574"/>
      <point x="871" y="641" type="qcurve"/>
      <point x="841" y="710"/>
      <point x="777" y="744" type="qcurve"/>
      <point x="717" y="784"/>
      <point x="634" y="784" type="qcurve"/>
      <point x="558" y="784"/>
      <point x="493" y="747" type="qcurve"/>
      <point x="434" y="713"/>
      <point x="399" y="648" type="qcurve"/>
      <point x="365" y="583"/>
      <point x="365" y="496" type="qcurve"/>
      <point x="365" y="409"/>
      <point x="400" y="340" type="qcurve"/>
      <point x="436" y="274"/>
      <point x="496" y="234" type="qcurve"/>
      <point x="561" y="196"/>
    </contour>
  </outline>
</glyph>
<glyph name="otilde" format="2">
  <advance width="1264"/>
  <unicode hex="00F5"/>
  <outline>
    <contour>
      <point x="640" y="-22" type="qcurve"/>
      <point x="499" y="-19"/>
      <point x="375" y="53" type="qcurve"/>
      <point x="255" y="125"/>
      <point x="181" y="248" type="qcurve"/>
      <point x="109" y="375"/>
      <point x="109" y="515" type="qcurve"/>
      <point x="109" y="661"/>
      <point x="180" y="783" type="qcurve"/>
      <point x="254" y="911"/>
      <point x="375" y="980" type="qcurve"/>
      <point x="499" y="1054"/>
      <point x="640" y="1054" type="qcurve"/>
      <point x="784" y="1054"/>
      <point x="904" y="980" type="qcurve"/>
      <point x="1029" y="911"/>
      <point x="1099" y="783" type="qcurve"/>
      <point x="1174" y="662"/>
      <point x="1170" y="515" type="qcurve"/>
      <point x="1170" y="443"/>
      <point x="1155" y="379" type="qcurve"/>
      <point x="1140" y="315"/>
      <point x="1101" y="251" type="qcurve"/>
      <point x="1032" y="128"/>
      <point x="907" y="53" type="qcurve"/>
      <point x="786" y="-19"/>
    </contour>
    <contour>
      <point x="640" y="193" type="qcurve"/>
      <point x="716" y="196"/>
      <point x="785" y="238" type="qcurve"/>
      <point x="854" y="281"/>
      <point x="891" y="352" type="qcurve"/>
      <point x="934" y="430"/>
      <point x="934" y="515" type="qcurve"/>
      <point x="936" y="602"/>
      <point x="893" y="676" type="qcurve"/>
      <point x="854" y="750"/>
      <point x="787" y="792" type="qcurve"/>
      <point x="716" y="837"/>
      <point x="639" y="837" type="qcurve"/>
      <point x="562" y="838"/>
      <point x="495" y="795" type="qcurve"/>
      <point x="426" y="752"/>
      <point x="384" y="676" type="qcurve"/>
      <point x="346" y="603"/>
      <point x="346" y="515" type="qcurve"/>
      <point x="344" y="429"/>
      <point x="382" y="354" type="qcurve"/>
      <point x="424" y="282"/>
      <point x="493" y="237" type="qcurve"/>
      <point x="564" y="196"/>
    </contour>
    <contour>
      <point x="761" y="1060" type="qcurve"/>
      <point x="711" y="1058"/>
      <point x="666" y="1083" type="qcurve"/>
      <point x="638" y="1104"/>
      <point x="587" y="1138" type="qcurve"/>
      <point x="564" y="1165"/>
      <point x="544" y="1174" type="qcurve"/>
      <point x="536" y="1181"/>
      <point x="526" y="1180" type="qcurve"/>
      <point x="515" y="1180"/>
      <point x="505" y="1167" type="qcurve"/>
      <point x="490" y="1150"/>
      <point x="473" y="1050" type="qcurve"/>
      <point x="298" y="1075" type="line"/>
      <point x="339" y="1378"/>
      <point x="523" y="1377" type="qcurve"/>
      <point x="574" y="1381"/>
      <point x="615" y="1355" type="qcurve"/>
      <point x="647" y="1337"/>
      <point x="696" y="1300" type="qcurve"/>
      <point x="724" y="1276"/>
      <point x="738" y="1266" type="qcurve"/>
      <point x="750" y="1260"/>
      <point x="760" y="1260" type="qcurve"/>
      <point x="772" y="1260"/>
      <point x="778" y="1269" type="qcurve"/>
      <point x="793" y="1291"/>
      <point x="812" y="1386" type="qcurve"/>
      <point x="985" y="1363" type="line"/>
      <point x="946" y="1063"/>
    </contour>
  </outline>
</glyph>
<glyph name="oslash" format="2">
  <advance width="1264"/>
  <unicode hex="00F8"/>
  <outline>
    <contour>
      <point x="1061" y="843" type="qcurve"/>
      <point x="1099" y="800"/>
      <point x="1132" y="709" type="qcurve"/>
      <point x="1171" y="620"/>
      <point x="1170" y="515" type="qcurve"/>
      <point x="1170" y="443"/>
      <point x="1155" y="379" type="qcurve"/>
      <point x="1140" y="315"/>
      <point x="1101" y="251" type="qcurve"/>
      <point x="1032" y="128"/>
      <point x="907" y="53" type="qcurve"/>
      <point x="786" y="-19"/>
      <point x="640" y="-22" type="qcurve"/>
      <point x="485" y="-19"/>
      <point x="382" y="47" type="qcurve"/>
      <point x="342" y="0" type="line"/>
      <point x="60" y="0" type="line"/>
      <point x="222" y="185" type="line"/>
      <point x="184" y="227"/>
      <point x="146" y="320" type="qcurve"/>
      <point x="109" y="415"/>
      <point x="109" y="515" type="qcurve"/>
      <point x="109" y="661"/>
      <point x="180" y="783" type="qcurve"/>
      <point x="254" y="911"/>
      <point x="375" y="980" type="qcurve"/>
      <point x="499" y="1054"/>
      <point x="640" y="1054" type="qcurve"/>
      <point x="799" y="1055"/>
      <point x="902" y="982" type="qcurve"/>
      <point x="944" y="1030" type="line"/>
      <point x="1118" y="1030" type="line"/>
      <point x="1224" y="1030"/>
    </contour>
    <contour>
      <point x="346" y="515" type="qcurve"/>
      <point x="346" y="403"/>
      <point x="374" y="365" type="qcurve"/>
      <point x="758" y="814" type="line"/>
      <point x="724" y="838"/>
      <point x="640" y="837" type="qcurve"/>
      <point x="562" y="838"/>
      <point x="495" y="795" type="qcurve"/>
      <point x="426" y="752"/>
      <point x="384" y="676" type="qcurve"/>
      <point x="346" y="603"/>
    </contour>
    <contour>
      <point x="639" y="193" type="qcurve"/>
      <point x="716" y="196"/>
      <point x="785" y="238" type="qcurve"/>
      <point x="854" y="281"/>
      <point x="891" y="352" type="qcurve"/>
      <point x="934" y="430"/>
      <point x="934" y="515" type="qcurve"/>
      <point x="934" y="622"/>
      <point x="906" y="662" type="qcurve"/>
      <point x="525" y="216" type="line"/>
      <point x="556" y="194"/>
    </contour>
  </outline>
</glyph>
<glyph name="ugrave" format="2">
  <advance width="1196"/>
  <unicode hex="00F9"/>
  <outline>
    <contour>
      <point x="556" y="-24" type="qcurve"/>
      <point x="441" y="-24"/>
      <point x="351" y="29" type="qcurve"/>
      <point x="257" y="81"/>
      <point x="209" y="175" type="qcurve"/>
      <point x="156" y="267"/>
      <point x="159" y="387" type="qcurve"/>
      <point x="159" y="1030" type="line"/>
      <point x="387" y="1030" type="line"/>
      <point x="387" y="405" type="line"/>
      <point x="388" y="307"/>
      <point x="441" y="250" type="qcurve"/>
      <point x="491" y="194"/>
      <point x="573" y="195" type="qcurve"/>
      <point x="640" y="195"/>
      <point x="699" y="221" type="qcurve"/>
      <point x="755" y="246"/>
      <point x="788" y="295" type="qcurve"/>
      <point x="819" y="337"/>
      <point x="818" y="385" type="qcurve"/>
      <point x="818" y="1030" type="line"/>
      <point x="1048" y="1030" type="line"/>
      <point x="1048" y="0" type="line"/>
      <point x="818" y="0" type="line"/>
      <point x="818" y="7" type="line"/>
      <point x="860" y="88"/>
      <point x="762" y="33" type="qcurve"/>
      <point x="668" y="-24"/>
    </contour>
    <contour>
      <point x="325" y="1333" type="line"/>
      <point x="587" y="1393" type="line"/>
      <point x="888" y="1033" type="line"/>
      <point x="665" y="1033" type="line"/>
    </contour>
  </outline>
</glyph>
<glyph name="udieresis" format="2">
  <advance width="1196"/>
  <unicode hex="00FC"/>
  <outline>
    <contour>
      <point x="430" y="1294" type="qcurve"/>
      <point x="484" y="1296"/>
      <point x="524" y="1256" type="qcurve"/>
      <point x="563" y="1216"/>
      <point x="563" y="1163" type="qcurve"/>
      <point x="563" y="1110"/>
      <point x="524" y="1072" type="qcurve"/>
      <point x="484" y="1033"/>
      <point x="431" y="1033" type="qcurve"/>
      <point x="379" y="1031"/>
      <point x="338" y="1071" type="qcurve"/>
      <point x="301" y="1110"/>
      <point x="301" y="1163" type="qcurve"/>
      <point x="301" y="1217"/>
      <point x="339" y="1255" type="qcurve"/>
      <point x="379" y="1294"/>
    </contour>
    <contour>
      <point x="778" y="1294" type="qcurve"/>
      <point x="835" y="1296"/>
      <point x="873" y="1256" type="qcurve"/>
      <point x="912" y="1216"/>
      <point x="912" y="1165" type="qcurve"/>
      <point x="912" y="1111"/>
      <point x="872" y="1073" type="qcurve"/>
      <point x="835" y="1033"/>
      <point x="780" y="1033" type="qcurve"/>
      <point x="725" y="1031"/>
      <point x="687" y="1073" type="qcurve"/>
      <point x="651" y="1111"/>
      <point x="651" y="1165" type="qcurve"/>
      <point x="651" y="1216"/>
      <point x="688" y="1255" type="qcurve"/>
      <point x="725" y="1294"/>
    </contour>
    <contour>
      <point x="556" y="-24" type="qcurve"/>
      <point x="441" y="-24"/>
      <point x="351" y="29" type="qcurve"/>
      <point x="257" y="81"/>
      <point x="209" y="175" type="qcurve"/>
      <point x="156" y="267"/>
      <point x="159" y="387" type="qcurve"/>
      <point x="159" y="1030" type="line"/>
      <point x="387" y="1030" type="line"/>
      <point x="387" y="405" type="line"/>
      <point x="388" y="307"/>
      <point x="441" y="250" type="qcurve"/>
      <point x="491" y="194"/>
      <point x="573" y="195" type="qcurve"/>
      <point x="640" y="195"/>
      <point x="699" y="221" type="qcurve"/>
      <point x="755" y="246"/>
      <point x="788" y="295" type="qcurve"/>
      <point x="819" y="337"/>
      <point x="818" y="385" type="qcurve"/>
      <point x="818" y="1030" type="line"/>
      <point x="1048" y="1030" type="line"/>
      <point x="1048" y="0" type="line"/>
      <point x="818" y="0" type="line"/>
      <point x="818" y="7" type="line"/>
      <point x="860" y="88"/>
      <point x="762" y="33" type="qcurve"/>
      <point x="668" y="-24"/>
    </contour>
  </outline>
</glyph>
<glyph name="yacute" format="2">
  <advance width="1217"/>
  <unicode hex="00FD"/>
  <outline>
    <contour>
      <point x="329" y="-356" type="line"/>
      <point x="484" y="46" type="line"/>
      <point x="49" y="1030" type="line"/>
      <point x="303" y="1030" type="line"/>
      <point x="602" y="333" type="line"/>
      <point x="879" y="1030" type="line"/>
      <point x="1128" y="1030" type="line"/>
      <point x="561" y="-356" type="line"/>
    </contour>
    <contour>
      <point x="612" y="1392" type="line"/>
      <point x="870" y="1333" type="line"/>
      <point x="533" y="1033" type="line"/>
      <point x="307" y="1033" type="line"/>
    </contour>
  </outline>
</glyph>
<glyph name="Amacron" format="2">
  <advance width="1409"/>
  <unicode hex="0100"/>
  <outline>
    <contour>
      <point x="595" y="1463" type="line"/>
      <point x="815" y="1463" type="line"/>
      <point x="1345" y="0" type="line"/>
      <point x="1094" y="0" type="line"/>
      <point x="953" y="393" type="line"/>
      <point x="456" y="393" type="line"/>
      <point x="312" y="0" type="line"/>
      <point x="59" y="0" type="line"/>
    </contour>
    <contour>
      <point x="705" y="1071" type="line"/>
      <point x="539" y="619" type="line"/>
      <point x="870" y="619" type="line"/>
    </contour>
    <contour>
      <point x="512" y="1864" type="line"/>
      <point x="1100" y="1864" type="line"/>
      <point x="1100" y="1667" type="line"/>
      <point x="512" y="1667" type="line"/>
    </contour>
    <contour>
      <point x="352" y="1512" type="line"/>
      <point x="352" y="1512" type="line"/>
      <point x="352" y="1512" type="line"/>
      <point x="352" y="1512" type="line"/>
    </contour>
    <contour>
      <point x="352" y="1512" type="line"/>
      <point x="352" y="1512" type="line"/>
      <point x="352" y="1512" type="line"/>
      <point x="352" y="1512" type="line"/>
    </contour>
  </outline>
</glyph>
<glyph name="abreve" format="2">
  <advance width="1279"/>
  <unicode hex="0103"/>
  <outline>
    <contour>
      <point x="622" y="193" type="qcurve"/>
      <point x="699" y="196"/>
      <point x="760" y="233" type="qcurve"/>
      <point x="821" y="273"/>
      <point x="854" y="343" type="qcurve"/>
      <point x="891" y="420"/>
      <point x="890" y="515" type="qcurve"/>
      <point x="891" y="614"/>
      <point x="854" y="685" type="qcurve"/>
      <point x="821" y="759"/>
      <point x="760" y="798" type="qcurve"/>
      <point x="700" y="838"/>
      <point x="622" y="837" type="qcurve"/>
      <point x="548" y="838"/>
      <point x="486" y="796" type="qcurve"/>
      <point x="424" y="759"/>
      <point x="389" y="686" type="qcurve"/>
      <point x="355" y="614"/>
      <point x="355" y="515" type="qcurve"/>
      <point x="355" y="420"/>
      <point x="390" y="345" type="qcurve"/>
      <point x="425" y="274"/>
      <point x="484" y="233" type="qcurve"/>
      <point x="548" y="196"/>
    </contour>
    <contour>
      <point x="1120" y="1030" type="line"/>
      <point x="1120" y="0" type="line"/>
      <point x="890" y="0" type="line"/>
      <point x="890" y="49" type="line"/>
      <point x="919" y="99"/>
      <point x="822" y="39" type="qcurve"/>
      <point x="724" y="-22"/>
      <point x="598" y="-22" type="qcurve"/>
      <point x="463" y="-24"/>
      <point x="352" y="48" type="qcurve"/>
      <point x="243" y="119"/>
      <point x="180" y="243" type="qcurve"/>
      <point x="121" y="368"/>
      <point x="117" y="515" type="qcurve"/>
      <point x="120" y="667"/>
      <point x="180" y="789" type="qcurve"/>
      <point x="243" y="916"/>
      <point x="351" y="982" type="qcurve"/>
      <point x="463" y="1055"/>
      <point x="598" y="1054" type="qcurve"/>
      <point x="721" y="1055"/>
      <point x="820" y="995" type="qcurve"/>
      <point x="918" y="936"/>
      <point x="890" y="986" type="qcurve"/>
      <point x="890" y="1030" type="line"/>
    </contour>
    <contour>
      <point x="620" y="1056" type="qcurve"/>
      <point x="540" y="1057"/>
      <point x="462" y="1086" type="qcurve"/>
      <point x="384" y="1120"/>
      <point x="287" y="1212" type="qcurve"/>
      <point x="441" y="1362" type="line"/>
      <point x="505" y="1302"/>
      <point x="542" y="1282" type="qcurve"/>
      <point x="582" y="1267"/>
      <point x="620" y="1267" type="qcurve"/>
      <point x="659" y="1267"/>
      <point x="695" y="1283" type="qcurve"/>
      <point x="740" y="1303"/>
      <point x="801" y="1364" type="qcurve"/>
      <point x="948" y="1214" type="line"/>
      <point x="862" y="1122"/>
      <point x="781" y="1089" type="qcurve"/>
      <point x="705" y="1057"/>
    </contour>
  </outline>
</glyph>
<glyph name="Ccircumflex" format="2">
  <advance width="1472"/>
  <unicode hex="0108"/>
  <outline>
    <contour>
      <point x="862" y="1483" type="qcurve"/>
      <point x="1064" y="1485"/>
      <point x="1231" y="1383" type="qcurve"/>
      <point x="1318" y="1328"/>
      <point x="1418" y="1227" type="qcurve"/>
      <point x="1254" y="1060" type="line"/>
      <point x="1172" y="1139"/>
      <point x="1113" y="1176" type="qcurve"/>
      <point x="995" y="1248"/>
      <point x="862" y="1246" type="qcurve"/>
      <point x="730" y="1248"/>
      <point x="609" y="1178" type="qcurve"/>
      <point x="550" y="1141"/>
      <point x="504" y="1096" type="qcurve"/>
      <point x="459" y="1053"/>
      <point x="422" y="991" type="qcurve"/>
      <point x="353" y="868"/>
      <point x="353" y="731" type="qcurve"/>
      <point x="351" y="599"/>
      <point x="419" y="478" type="qcurve"/>
      <point x="458" y="418"/>
      <point x="503" y="370" type="qcurve"/>
      <point x="549" y="324"/>
      <point x="608" y="287" type="qcurve"/>
      <point x="729" y="213"/>
      <point x="862" y="215" type="qcurve"/>
      <point x="993" y="213"/>
      <point x="1111" y="287" type="qcurve"/>
      <point x="1171" y="323"/>
      <point x="1252" y="403" type="qcurve"/>
      <point x="1418" y="236" type="line"/>
      <point x="1321" y="138"/>
      <point x="1233" y="85" type="qcurve"/>
      <point x="1064" y="-19"/>
      <point x="862" y="-22" type="qcurve"/>
      <point x="665" y="-21"/>
      <point x="493" y="82" type="qcurve"/>
      <point x="321" y="185"/>
      <point x="218" y="356" type="qcurve"/>
      <point x="113" y="529"/>
      <point x="113" y="731" type="qcurve"/>
      <point x="113" y="936"/>
      <point x="219" y="1106" type="qcurve"/>
      <point x="322" y="1278"/>
      <point x="491" y="1381" type="qcurve"/>
      <point x="664" y="1487"/>
    </contour>
    <contour>
      <point x="668" y="1830" type="line"/>
      <point x="843" y="1830" type="line"/>
      <point x="1097" y="1488" type="line"/>
      <point x="878" y="1488" type="line"/>
      <point x="756" y="1620" type="line"/>
      <point x="635" y="1488" type="line"/>
      <point x="419" y="1488" type="line"/>
    </contour>
  </outline>
</glyph>
<glyph name="ccaron" format="2">
  <advance width="1120"/>
  <unicode hex="010D"/>
  <outline>
    <contour>
      <point x="639" y="-22" type="qcurve"/>
      <point x="499" y="-19"/>
      <point x="375" y="53" type="qcurve"/>
      <point x="255" y="125"/>
      <point x="181" y="248" type="qcurve"/>
      <point x="109" y="375"/>
      <point x="109" y="515" type="qcurve"/>
      <point x="109" y="661"/>
      <point x="180" y="783" type="qcurve"/>
      <point x="254" y="911"/>
      <point x="375" y="980" type="qcurve"/>
      <point x="499" y="1054"/>
      <point x="640" y="1054" type="qcurve"/>
      <point x="744" y="1054"/>
      <point x="838" y="1013" type="qcurve"/>
      <point x="934" y="973"/>
      <point x="1041" y="867" type="qcurve"/>
      <point x="878" y="706" type="line"/>
      <point x="807" y="789"/>
      <point x="752" y="813" type="qcurve"/>
      <point x="701" y="837"/>
      <point x="639" y="837" type="qcurve"/>
      <point x="562" y="838"/>
      <point x="495" y="795" type="qcurve"/>
      <point x="426" y="752"/>
      <point x="384" y="676" type="qcurve"/>
      <point x="346" y="603"/>
      <point x="346" y="515" type="qcurve"/>
      <point x="344" y="429"/>
      <point x="382" y="354" type="qcurve"/>
      <point x="424" y="282"/>
      <point x="493" y="237" type="qcurve"/>
      <point x="564" y="196"/>
      <point x="641" y="193" type="qcurve"/>
      <point x="702" y="193"/>
      <point x="753" y="216" type="qcurve"/>
      <point x="807" y="243"/>
      <point x="882" y="330" type="qcurve"/>
      <point x="1046" y="168" type="line"/>
      <point x="941" y="64"/>
      <point x="844" y="21" type="qcurve"/>
      <point x="749" y="-21"/>
    </contour>
    <contour>
      <point x="231" y="1399" type="line"/>
      <point x="446" y="1399" type="line"/>
      <point x="567" y="1266" type="line"/>
      <point x="689" y="1399" type="line"/>
      <point x="908" y="1399" type="line"/>
      <point x="654" y="1056" type="line"/>
      <point x="478" y="1056" type="line"/>
    </contour>
  </outline>
</glyph>
<glyph name="emacron" format="2">
  <advance width="1198"/>
  <unicode hex="0113"/>
  <outline>
    <contour>
      <point x="629" y="193" type="qcurve"/>
      <point x="703" y="196"/>
      <point x="777" y="222" type="qcurve"/>
      <point x="854" y="251"/>
      <point x="922" y="330" type="qcurve"/>
      <point x="1070" y="171" type="line"/>
      <point x="975" y="66"/>
      <point x="856" y="22" type="qcurve"/>
      <point x="743" y="-19"/>
      <point x="631" y="-22" type="qcurve"/>
      <point x="491" y="-22"/>
      <point x="371" y="49" type="qcurve"/>
      <point x="254" y="118"/>
      <point x="181" y="242" type="qcurve"/>
      <point x="109" y="368"/>
      <point x="109" y="517" type="qcurve"/>
      <point x="107" y="667"/>
      <point x="175" y="790" type="qcurve"/>
      <point x="245" y="916"/>
      <point x="360" y="983" type="qcurve"/>
      <point x="479" y="1055"/>
      <point x="617" y="1054" type="qcurve"/>
      <point x="850" y="1054"/>
      <point x="979" y="889" type="qcurve"/>
      <point x="1109" y="730"/>
      <point x="1109" y="418" type="qcurve"/>
      <point x="348" y="418" type="line"/>
      <point x="355" y="346"/>
      <point x="432" y="270" type="qcurve"/>
      <point x="511" y="195"/>
    </contour>
    <contour>
      <point x="622" y="837" type="qcurve"/>
      <point x="513" y="838"/>
      <point x="437" y="768" type="qcurve"/>
      <point x="362" y="698"/>
      <point x="352" y="632" type="qcurve"/>
      <point x="875" y="632" type="line"/>
      <point x="869" y="700"/>
      <point x="801" y="769" type="qcurve"/>
      <point x="739" y="837"/>
    </contour>
    <contour>
      <point x="418" y="1455" type="line"/>
      <point x="1006" y="1455" type="line"/>
      <point x="1006" y="1258" type="line"/>
      <point x="418" y="1258" type="line"/>
    </contour>
    <contour>
      <point x="258" y="1103" type="line"/>
      <point x="258" y="1103" type="line"/>
      <point x="258" y="1103" type="line"/>
      <point x="258" y="1103" type="line"/>
    </contour>
    <contour>
      <point x="258" y="1103" type="line"/>
      <point x="258" y="1103" type="line"/>
      <point x="258" y="1103" type="line"/>
      <point x="258" y="1103" type="line"/>
    </contour>
  </outline>
</glyph>
<glyph name="ebreve" format="2">
  <advance width="1198"/>
  <unicode hex="0115"/>
  <outline>
    <contour>
      <point x="629" y="193" type="qcurve"/>
      <point x="703" y="196"/>
      <point x="777" y="222" type="qcurve"/>
      <point x="854" y="251"/>
      <point x="922" y="330" type="qcurve"/>
      <point x="1070" y="171" type="line"/>
      <point x="975" y="66"/>
      <point x="856" y="22" type="qcurve"/>
      <point x="743" y="-19"/>
      <point x="631" y="-22" type="qcurve"/>
      <point x="491" y="-22"/>
      <point x="371" y="49" type="qcurve"/>
      <point x="254" y="118"/>
      <point x="181" y="242" type="qcurve"/>
      <point x="109" y="368"/>
      <point x="109" y="517" type="qcurve"/>
      <point x="107" y="667"/>
      <point x="175" y="790" type="qcurve"/>
      <point x="245" y="915"/>
      <point x="359" y="983" type="qcurve"/>
      <point x="479" y="1055"/>
      <point x="617" y="1054" type="qcurve"/>
      <point x="850" y="1054"/>
      <point x="979" y="889" type="qcurve"/>
      <point x="1109" y="730"/>
      <point x="1109" y="418" type="qcurve"/>
      <point x="348" y="418" type="line"/>
      <point x="355" y="346"/>
      <point x="432" y="270" type="qcurve"/>
      <point x="511" y="195"/>
    </contour>
    <contour>
      <point x="622" y="837" type="qcurve"/>
      <point x="513" y="838"/>
      <point x="437" y="768" type="qcurve"/>
      <point x="361" y="698"/>
      <point x="351" y="632" type="qcurve"/>
      <point x="875" y="632" type="line"/>
      <point x="869" y="700"/>
      <point x="801" y="769" type="qcurve"/>
      <point x="739" y="837"/>
    </contour>
    <contour>
      <point x="611" y="1056" type="qcurve"/>
      <point x="531" y="1057"/>
      <point x="453" y="1087" type="qcurve"/>
      <point x="377" y="1120"/>
      <point x="276" y="1212" type="qcurve"/>
      <point x="431" y="1363" type="line"/>
      <point x="494" y="1302"/>
      <point x="532" y="1283" type="qcurve"/>
      <point x="572" y="1267"/>
      <point x="611" y="1267" type="qcurve"/>
      <point x="649" y="1267"/>
      <point x="684" y="1283" type="qcurve"/>
      <point x="729" y="1303"/>
      <point x="791" y="1364" type="qcurve"/>
      <point x="939" y="1214" type="line"/>
      <point x="853" y="1122"/>
      <point x="772" y="1089" type="qcurve"/>
      <point x="696" y="1057"/>
    </contour>
  </outline>
</glyph>
<glyph name="Gbreve" format="2">
  <advance width="1656"/>
  <unicode hex="011E"/>
  <outline>
    <contour>
      <point x="113" y="729" type="qcurve"/>
      <point x="113" y="901"/>
      <point x="180" y="1042" type="qcurve"/>
      <point x="245" y="1181"/>
      <point x="352" y="1278" type="qcurve"/>
      <point x="460" y="1376"/>
      <point x="594" y="1429" type="qcurve"/>
      <point x="728" y="1483"/>
      <point x="870" y="1483" type="qcurve"/>
      <point x="997" y="1483"/>
      <point x="1101" y="1444" type="qcurve"/>
      <point x="1199" y="1405"/>
      <point x="1271" y="1360" type="qcurve"/>
      <point x="1342" y="1315"/>
      <point x="1451" y="1213" type="qcurve"/>
      <point x="1321" y="1051" type="line"/>
      <point x="1219" y="1138"/>
      <point x="1162" y="1169" type="qcurve"/>
      <point x="1106" y="1203"/>
      <point x="1028" y="1230" type="qcurve"/>
      <point x="956" y="1258"/>
      <point x="872" y="1257" type="qcurve"/>
      <point x="765" y="1258"/>
      <point x="669" y="1216" type="qcurve"/>
      <point x="574" y="1175"/>
      <point x="504" y="1105" type="qcurve"/>
      <point x="434" y="1036"/>
      <point x="394" y="940" type="qcurve"/>
      <point x="353" y="844"/>
      <point x="353" y="729" type="qcurve"/>
      <point x="353" y="639"/>
      <point x="385" y="544" type="qcurve"/>
      <point x="417" y="451"/>
      <point x="481" y="376" type="qcurve"/>
      <point x="545" y="304"/>
      <point x="636" y="256" type="qcurve"/>
      <point x="728" y="211"/>
      <point x="842" y="210" type="qcurve"/>
      <point x="981" y="210"/>
      <point x="1074" y="258" type="qcurve"/>
      <point x="1171" y="308"/>
      <point x="1230" y="374" type="qcurve"/>
      <point x="1289" y="440"/>
      <point x="1312" y="505" type="qcurve"/>
      <point x="1339" y="571"/>
      <point x="1339" y="549" type="qcurve"/>
      <point x="824" y="549" type="line"/>
      <point x="824" y="776" type="line"/>
      <point x="1566" y="776" type="line"/>
      <point x="1566" y="633" type="line"/>
      <point x="1566" y="552"/>
      <point x="1527" y="440" type="qcurve"/>
      <point x="1487" y="327"/>
      <point x="1401" y="227" type="qcurve"/>
      <point x="1315" y="123"/>
      <point x="1178" y="52" type="qcurve"/>
      <point x="1040" y="-22"/>
      <point x="842" y="-22" type="qcurve"/>
      <point x="706" y="-23"/>
      <point x="573" y="35" type="qcurve"/>
      <point x="443" y="92"/>
      <point x="339" y="191" type="qcurve"/>
      <point x="237" y="291"/>
      <point x="175" y="430" type="qcurve"/>
      <point x="113" y="571"/>
    </contour>
    <contour>
      <point x="840" y="1486" type="qcurve"/>
      <point x="761" y="1487"/>
      <point x="682" y="1516" type="qcurve"/>
      <point x="605" y="1548"/>
      <point x="507" y="1641" type="qcurve"/>
      <point x="661" y="1794" type="line"/>
      <point x="724" y="1732"/>
      <point x="761" y="1712" type="qcurve"/>
      <point x="802" y="1698"/>
      <point x="840" y="1698" type="qcurve"/>
      <point x="878" y="1698"/>
      <point x="914" y="1713" type="qcurve"/>
      <point x="959" y="1732"/>
      <point x="1021" y="1794" type="qcurve"/>
      <point x="1167" y="1643" type="line"/>
      <point x="1082" y="1552"/>
      <point x="1001" y="1518" type="qcurve"/>
      <point x="925" y="1486"/>
    </contour>
  </outline>
</glyph>
<glyph name="Hcircumflex" format="2">
  <advance width="1496"/>
  <unicode hex="0124"/>
  <outline>
    <contour>
      <point x="1346" y="1463" type="line"/>
      <point x="1346" y="0" type="line"/>
      <point x="1111" y="0" type="line"/>
      <point x="1111" y="635" type="line"/>
      <point x="398" y="635" type="line"/>
      <point x="398" y="0" type="line"/>
      <point x="164" y="0" type="line"/>
      <point x="164" y="1463" type="line"/>
      <point x="398" y="1463" type="line"/>
      <point x="398" y="865" type="line"/>
      <point x="1111" y="865" type="line"/>
      <point x="1111" y="1463" type="line"/>
    </contour>
    <contour>
      <point x="665" y="1807" type="line"/>
      <point x="838" y="1807" type="line"/>
      <point x="1094" y="1465" type="line"/>
      <point x="873" y="1465" type="line"/>
      <point x="752" y="1596" type="line"/>
      <point x="632" y="1465" type="line"/>
      <point x="415" y="1465" type="line"/>
    </contour>
  </outline>
</glyph>
<glyph name="Itilde" format="2">
  <advance width="544"/>
  <unicode hex="0128"/>
  <outline>
    <contour>
      <point x="164" y="1463" type="line"/>
      <point x="398" y="1463" type="line"/>
      <point x="398" y="0" type="line"/>
      <point x="164" y="0" type="line"/>
    </contour>
    <contour>
      <point x="400" y="1468" type="qcurve"/>
      <point x="349" y="1465"/>
      <point x="304" y="1491" type="qcurve"/>
      <point x="275" y="1513"/>
      <point x="226" y="1547" type="qcurve"/>
      <point x="201" y="1574"/>
      <point x="183" y="1583" type="qcurve"/>
      <point x="175" y="1589"/>
      <point x="164" y="1588" type="qcurve"/>
      <point x="152" y="1588"/>
      <point x="143" y="1575" type="qcurve"/>
      <point x="127" y="1557"/>
      <point x="110" y="1459" type="qcurve"/>
      <point x="-65" y="1482" type="line"/>
      <point x="-23" y="1786"/>
      <point x="161" y="1786" type="qcurve"/>
      <point x="212" y="1789"/>
      <point x="251" y="1765" type="qcurve"/>
      <point x="286" y="1747"/>
      <point x="333" y="1708" type="qcurve"/>
      <point x="362" y="1683"/>
      <point x="375" y="1674" type="qcurve"/>
      <point x="387" y="1668"/>
      <point x="397" y="1668" type="qcurve"/>
      <point x="410" y="1668"/>
      <point x="418" y="1680" type="qcurve"/>
      <point x="433" y="1699"/>
      <point x="449" y="1795" type="qcurve"/>
      <point x="624" y="1772" type="line"/>
      <point x="583" y="1470"/>
    </contour>
  </outline>
</glyph>
<glyph name="dotlessi" format="2">
  <advance width="531"/>
  <unicode hex="0131"/>
  <outline>
    <contour>
      <point x="156" y="1030" type="line"/>
      <point x="386" y="1030" type="line"/>
      <point x="386" y="0" type="line"/>
      <point x="156" y="0" type="line"/>
    </contour>
  </outline>
</glyph>
<glyph name="jcircumflex" format="2">
  <advance width="573"/>
  <unicode hex="0135"/>
  <outline>
    <contour>
      <point x="277" y="1108" type="qcurve"/>
      <point x="222" y="1105"/>
      <point x="180" y="1150" type="qcurve"/>
      <point x="139" y="1194"/>
      <point x="140" y="1244" type="qcurve"/>
      <point x="138" y="1299"/>
      <point x="179" y="1340" type="qcurve"/>
      <point x="220" y="1381"/>
      <point x="275" y="1381" type="qcurve"/>
      <point x="332" y="1386"/>
      <point x="374" y="1342" type="qcurve"/>
      <point x="418" y="1298"/>
      <point x="414" y="1245" type="qcurve"/>
      <point x="420" y="1196"/>
      <point x="378" y="1150" type="qcurve"/>
      <point x="337" y="1105"/>
    </contour>
    <contour>
      <point x="118" y="-378" type="qcurve"/>
      <point x="77" y="-378"/>
      <point x="27" y="-369" type="qcurve"/>
      <point x="-15" y="-357"/>
      <point x="-81" y="-333" type="qcurve"/>
      <point x="-47" y="-130" type="line"/>
      <point x="29" y="-152"/>
      <point x="55" y="-160" type="qcurve"/>
      <point x="85" y="-162"/>
      <point x="109" y="-163" type="qcurve"/>
      <point x="131" y="-162"/>
      <point x="144" y="-146" type="qcurve"/>
      <point x="162" y="-126"/>
      <point x="162" y="-94" type="qcurve"/>
      <point x="162" y="1030" type="line"/>
      <point x="392" y="1030" type="line"/>
      <point x="392" y="-93" type="line"/>
      <point x="396" y="-216"/>
      <point x="316" y="-298" type="qcurve"/>
      <point x="235" y="-378"/>
    </contour>
    <contour>
      <point x="83" y="1728" type="line"/>
      <point x="257" y="1728" type="line"/>
      <point x="512" y="1386" type="line"/>
      <point x="291" y="1386" type="line"/>
      <point x="170" y="1517" type="line"/>
      <point x="50" y="1386" type="line"/>
      <point x="-167" y="1386" type="line"/>
    </contour>
  </outline>
</glyph>
<glyph name="Kcedilla" format="2">
  <advance width="1376"/>
  <unicode hex="0136"/>
  <outline>
    <contour>
      <point x="186" y="1463" type="line"/>
      <point x="423" y="1463" type="line"/>
      <point x="423" y="881" type="line"/>
      <point x="1007" y="1463" type="line"/>
      <point x="1324" y="1463" type="line"/>
      <point x="608" y="750" type="line"/>
      <point x="1361" y="0" type="line"/>
      <point x="1042" y="0" type="line"/>
      <point x="423" y="619" type="line"/>
      <point x="423" y="0" type="line"/>
      <point x="186" y="0" type="line"/>
    </contour>
    <contour>
      <point x="788" y="-103" type="qcurve"/>
      <point x="858" y="-101"/>
      <point x="904" y="-148" type="qcurve"/>
      <point x="961" y="-193"/>
      <point x="957" y="-271" type="qcurve"/>
      <point x="957" y="-356"/>
      <point x="886" y="-412" type="qcurve"/>
      <point x="825" y="-462"/>
      <point x="730" y="-462" type="qcurve"/>
      <point x="682" y="-462"/>
      <point x="629" y="-446" type="qcurve"/>
      <point x="579" y="-428"/>
      <point x="511" y="-383" type="qcurve"/>
      <point x="588" y="-219" type="line"/>
      <point x="676" y="-284"/>
      <point x="726" y="-286" type="qcurve"/>
      <point x="747" y="-286"/>
      <point x="760" y="-276" type="qcurve"/>
      <point x="767" y="-271"/>
      <point x="766" y="-263" type="qcurve"/>
      <point x="766" y="-256"/>
      <point x="766" y="-256" type="qcurve"/>
      <point x="758" y="-246"/>
      <point x="743" y="-246" type="qcurve"/>
      <point x="727" y="-246"/>
      <point x="677" y="-285" type="qcurve"/>
      <point x="599" y="-199" type="line"/>
      <point x="682" y="-2" type="line"/>
      <point x="875" y="-2" type="line"/>
      <point x="856" y="-48" type="line"/>
      <point x="765" y="-98"/>
    </contour>
  </outline>
</glyph>
<glyph name="kcedilla" format="2">
  <advance width="1148"/>
  <unicode hex="0137"/>
  <outline>
    <contour>
      <point x="153" y="1463" type="line"/>
      <point x="386" y="1463" type="line"/>
      <point x="386" y="660" type="line"/>
      <point x="756" y="1030" type="line"/>
      <point x="1079" y="1030" type="line"/>
      <point x="577" y="528" type="line"/>
      <point x="1108" y="0" type="line"/>
      <point x="784" y="0" type="line"/>
      <point x="386" y="397" type="line"/>
      <point x="386" y="0" type="line"/>
      <point x="153" y="0" type="line"/>
    </contour>
    <contour>
      <point x="645" y="-103" type="qcurve"/>
      <point x="715" y="-101"/>
      <point x="761" y="-148" type="qcurve"/>
      <point x="818" y="-193"/>
      <point x="814" y="-271" type="qcurve"/>
      <point x="814" y="-356"/>
      <point x="744" y="-412" type="qcurve"/>
      <point x="682" y="-462"/>
      <point x="588" y="-462" type="qcurve"/>
      <point x="540" y="-462"/>
      <point x="486" y="-446" type="qcurve"/>
      <point x="436" y="-428"/>
      <point x="368" y="-383" type="qcurve"/>
      <point x="445" y="-219" type="line"/>
      <point x="533" y="-284"/>
      <point x="583" y="-286" type="qcurve"/>
      <point x="604" y="-286"/>
      <point x="617" y="-276" type="qcurve"/>
      <point x="625" y="-270"/>
      <point x="624" y="-264" type="qcurve"/>
      <point x="624" y="-257"/>
      <point x="622" y="-255" type="qcurve"/>
      <point x="615" y="-246"/>
      <point x="600" y="-246" type="qcurve"/>
      <point x="584" y="-246"/>
      <point x="534" y="-285" type="qcurve"/>
      <point x="457" y="-199" type="line"/>
      <point x="540" y="-2" type="line"/>
      <point x="732" y="-2" type="line"/>
      <point x="713" y="-48" type="line"/>
      <point x="622" y="-98"/>
    </contour>
  </outline>
</glyph>
<glyph name="lacute" format="2">
  <advance width="581"/>
  <unicode hex="013A"/>
  <outline>
    <contour>
      <point x="158" y="1463" type="line"/>
      <point x="388" y="1463" type="line"/>
      <point x="388" y="0" type="line"/>
      <point x="158" y="0" type="line"/>
    </contour>
    <contour>
      <point x="295" y="1824" type="line"/>
      <point x="555" y="1764" type="line"/>
      <point x="216" y="1465" type="line"/>
      <point x="-8" y="1465" type="line"/>
    </contour>
  </outline>
</glyph>
<glyph name="Lcedilla" format="2">
  <advance width="1123"/>
  <unicode hex="013B"/>
  <outline>
    <contour>
      <point x="1058" y="227" type="line"/>
      <point x="1058" y="0" type="line"/>
      <point x="144" y="0" type="line"/>
      <point x="144" y="1463" type="line"/>
      <point x="381" y="1463" type="line"/>
      <point x="381" y="227" type="line"/>
    </contour>
    <contour>
      <point x="649" y="-103" type="qcurve"/>
      <point x="719" y="-101"/>
      <point x="765" y="-148" type="qcurve"/>
      <point x="822" y="-193"/>
      <point x="818" y="-271" type="qcurve"/>
      <point x="818" y="-356"/>
      <point x="748" y="-412" type="qcurve"/>
      <point x="686" y="-462"/>
      <point x="592" y="-462" type="qcurve"/>
      <point x="543" y="-462"/>
      <point x="490" y="-446" type="qcurve"/>
      <point x="440" y="-428"/>
      <point x="372" y="-383" type="qcurve"/>
      <point x="448" y="-219" type="line"/>
      <point x="537" y="-284"/>
      <point x="587" y="-286" type="qcurve"/>
      <point x="608" y="-286"/>
      <point x="620" y="-276" type="qcurve"/>
      <point x="629" y="-270"/>
      <point x="628" y="-264" type="qcurve"/>
      <point x="628" y="-257"/>
      <point x="626" y="-255" type="qcurve"/>
      <point x="619" y="-246"/>
      <point x="603" y="-246" type="qcurve"/>
      <point x="588" y="-246"/>
      <point x="538" y="-285" type="qcurve"/>
      <point x="461" y="-199" type="line"/>
      <point x="543" y="-2" type="line"/>
      <point x="738" y="-2" type="line"/>
      <point x="719" y="-46" type="line"/>
      <point x="626" y="-98"/>
    </contour>
  </outline>
</glyph>
<glyph name="Lcaron" format="2">
  <advance width="1123"/>
  <unicode hex="013D"/>
  <outline>
    <contour>
      <point x="1058" y="227" type="line"/>
      <point x="1058" y="0" type="line"/>
      <point x="144" y="0" type="line"/>
      <point x="144" y="1463" type="line"/>
      <point x="381" y="1463" type="line"/>
      <point x="381" y="227" type="line"/>
    </contour>
    <contour>
      <point x="262" y="1807" type="line"/>
      <point x="479" y="1807" type="line"/>
      <point x="600" y="1674" type="line"/>
      <point x="722" y="1807" type="line"/>
      <point x="942" y="1807" type="line"/>
      <point x="686" y="1465" type="line"/>
      <point x="512" y="1465" type="line"/>
    </contour>
  </outline>
</glyph>
<glyph name="lcaron" format="2">
  <advance width="571"/>
  <unicode hex="013E"/>
  <outline>
    <contour>
      <point x="158" y="1463" type="line"/>
      <point x="388" y="1463" type="line"/>
      <point x="388" y="0" type="line"/>
      <point x="158" y="0" type="line"/>
    </contour>
    <contour>
      <point x="-65" y="1807" type="line"/>
      <point x="152" y="1807" type="line"/>
      <point x="272" y="1673" type="line"/>
      <point x="394" y="1807" type="line"/>
      <point x="615" y="1807" type="line"/>
      <point x="359" y="1465" type="line"/>
      <point x="185" y="1465" type="line"/>
    </contour>
  </outline>
</glyph>
<glyph name="lslash" format="2">
  <advance width="675"/>
  <unicode hex="0142"/>
  <outline>
    <contour>
      <point x="604" y="658" type="line"/>
      <point x="456" y="585" type="line"/>
      <point x="456" y="0" type="line"/>
      <point x="225" y="0" type="line"/>
      <point x="225" y="463" type="line"/>
      <point x="88" y="394" type="line"/>
      <point x="88" y="636" type="line"/>
      <point x="225" y="707" type="line"/>
      <point x="225" y="1463" type="line"/>
      <point x="456" y="1463" type="line"/>
      <point x="456" y="825" type="line"/>
      <point x="604" y="902" type="line"/>
    </contour>
  </outline>
</glyph>
<glyph name="nacute" format="2">
  <advance width="1196"/>
  <unicode hex="0144"/>
  <outline>
    <contour>
      <point x="649" y="1054" type="qcurve"/>
      <point x="766" y="1057"/>
      <point x="854" y="1002" type="qcurve"/>
      <point x="949" y="952"/>
      <point x="998" y="854" type="qcurve"/>
      <point x="1051" y="764"/>
      <point x="1048" y="645" type="qcurve"/>
      <point x="1048" y="0" type="line"/>
      <point x="820" y="0" type="line"/>
      <point x="820" y="625" type="line"/>
      <point x="820" y="722"/>
      <point x="765" y="781" type="qcurve"/>
      <point x="716" y="838"/>
      <point x="634" y="837" type="qcurve"/>
      <point x="568" y="837"/>
      <point x="508" y="809" type="qcurve"/>
      <point x="453" y="785"/>
      <point x="419" y="735" type="qcurve"/>
      <point x="390" y="695"/>
      <point x="389" y="644" type="qcurve"/>
      <point x="389" y="0" type="line"/>
      <point x="159" y="0" type="line"/>
      <point x="159" y="1030" type="line"/>
      <point x="389" y="1030" type="line"/>
      <point x="389" y="1022" type="line"/>
      <point x="348" y="943"/>
      <point x="444" y="998" type="qcurve"/>
      <point x="541" y="1055"/>
    </contour>
    <contour>
      <point x="626" y="1417" type="line"/>
      <point x="885" y="1357" type="line"/>
      <point x="547" y="1058" type="line"/>
      <point x="321" y="1058" type="line"/>
    </contour>
  </outline>
</glyph>
<glyph name="oe" format="2">
  <advance width="2023"/>
  <unicode hex="0153"/>
  <outline>
    <contour>
      <point x="1455" y="193" type="qcurve"/>
      <point x="1530" y="196"/>
      <point x="1606" y="222" type="qcurve"/>
      <point x="1683" y="252"/>
      <point x="1752" y="329" type="qcurve"/>
      <point x="1899" y="170" type="line"/>
      <point x="1802" y="65"/>
      <point x="1684" y="22" type="qcurve"/>
      <point x="1570" y="-19"/>
      <point x="1457" y="-22" type="qcurve"/>
      <point x="1320" y="-22"/>
      <point x="1200" y="49" type="qcurve"/>
      <point x="1082" y="119"/>
      <point x="1053" y="170" type="qcurve"/>
      <point x="1023" y="121"/>
      <point x="901" y="51" type="qcurve"/>
      <point x="779" y="-21"/>
      <point x="639" y="-22" type="qcurve"/>
      <point x="499" y="-19"/>
      <point x="375" y="53" type="qcurve"/>
      <point x="255" y="125"/>
      <point x="181" y="248" type="qcurve"/>
      <point x="109" y="375"/>
      <point x="109" y="515" type="qcurve"/>
      <point x="109" y="661"/>
      <point x="180" y="783" type="qcurve"/>
      <point x="254" y="911"/>
      <point x="375" y="980" type="qcurve"/>
      <point x="499" y="1054"/>
      <point x="640" y="1054" type="qcurve"/>
      <point x="778" y="1055"/>
      <point x="899" y="983" type="qcurve"/>
      <point x="1019" y="916"/>
      <point x="1050" y="865" type="qcurve"/>
      <point x="1081" y="916"/>
      <point x="1195" y="983" type="qcurve"/>
      <point x="1312" y="1055"/>
      <point x="1444" y="1054" type="qcurve"/>
      <point x="1677" y="1054"/>
      <point x="1808" y="889" type="qcurve"/>
      <point x="1939" y="730"/>
      <point x="1935" y="418" type="qcurve"/>
      <point x="1174" y="418" type="line"/>
      <point x="1183" y="347"/>
      <point x="1261" y="270" type="qcurve"/>
      <point x="1338" y="196"/>
    </contour>
    <contour>
      <point x="640" y="193" type="qcurve"/>
      <point x="716" y="196"/>
      <point x="785" y="238" type="qcurve"/>
      <point x="854" y="281"/>
      <point x="891" y="352" type="qcurve"/>
      <point x="934" y="430"/>
      <point x="934" y="515" type="qcurve"/>
      <point x="936" y="602"/>
      <point x="893" y="676" type="qcurve"/>
      <point x="854" y="750"/>
      <point x="787" y="792" type="qcurve"/>
      <point x="716" y="837"/>
      <point x="639" y="837" type="qcurve"/>
      <point x="562" y="838"/>
      <point x="495" y="795" type="qcurve"/>
      <point x="426" y="752"/>
      <point x="384" y="676" type="qcurve"/>
      <point x="346" y="603"/>
      <point x="346" y="515" type="qcurve"/>
      <point x="344" y="429"/>
      <point x="382" y="354" type="qcurve"/>
      <point x="424" y="282"/>
      <point x="493" y="237" type="qcurve"/>
      <point x="564" y="196"/>
    </contour>
    <contour>
      <point x="1449" y="837" type="qcurve"/>
      <point x="1343" y="838"/>
      <point x="1264" y="768" type="qcurve"/>
      <point x="1187" y="698"/>
      <point x="1177" y="632" type="qcurve"/>
      <point x="1703" y="632" type="line"/>
      <point x="1696" y="700"/>
      <point x="1627" y="768" type="qcurve"/>
      <point x="1566" y="837"/>
    </contour>
  </outline>
</glyph>
<glyph name="rcedilla" format="2">
  <advance width="816"/>
  <unicode hex="0157"/>
  <outline>
    <contour>
      <point x="400" y="1020" type="line"/>
      <point x="358" y="929"/>
      <point x="468" y="989" type="qcurve"/>
      <point x="575" y="1055"/>
      <point x="762" y="1054" type="qcurve"/>
      <point x="762" y="837" type="line"/>
      <point x="621" y="837"/>
      <point x="548" y="803" type="qcurve"/>
      <point x="481" y="770"/>
      <point x="441" y="708" type="qcurve"/>
      <point x="400" y="647"/>
      <point x="400" y="571" type="qcurve"/>
      <point x="400" y="0" type="line"/>
      <point x="171" y="0" type="line"/>
      <point x="171" y="1030" type="line"/>
      <point x="400" y="1030" type="line"/>
    </contour>
    <contour>
      <point x="513" y="-104" type="qcurve"/>
      <point x="585" y="-101"/>
      <point x="631" y="-148" type="qcurve"/>
      <point x="687" y="-193"/>
      <point x="683" y="-270" type="qcurve"/>
      <point x="684" y="-356"/>
      <point x="613" y="-413" type="qcurve"/>
      <point x="551" y="-462"/>
      <point x="457" y="-462" type="qcurve"/>
      <point x="409" y="-462"/>
      <point x="355" y="-446" type="qcurve"/>
      <point x="306" y="-428"/>
      <point x="238" y="-383" type="qcurve"/>
      <point x="314" y="-218" type="line"/>
      <point x="402" y="-284"/>
      <point x="452" y="-286" type="qcurve"/>
      <point x="474" y="-286"/>
      <point x="486" y="-276" type="qcurve"/>
      <point x="493" y="-270"/>
      <point x="493" y="-262" type="qcurve"/>
      <point x="493" y="-256"/>
      <point x="492" y="-255" type="qcurve"/>
      <point x="484" y="-246"/>
      <point x="468" y="-246" type="qcurve"/>
      <point x="453" y="-246"/>
      <point x="403" y="-285" type="qcurve"/>
      <point x="325" y="-199" type="line"/>
      <point x="409" y="-2" type="line"/>
      <point x="602" y="-2" type="line"/>
      <point x="583" y="-48" type="line"/>
      <point x="493" y="-98"/>
    </contour>
  </outline>
</glyph>
<glyph name="rcaron" format="2">
  <advance width="861"/>
  <unicode hex="0159"/>
  <outline>
    <contour>
      <point x="400" y="1020" type="line"/>
      <point x="358" y="929"/>
      <point x="468" y="989" type="qcurve"/>
      <point x="575" y="1055"/>
      <point x="762" y="1054" type="qcurve"/>
      <point x="762" y="837" type="line"/>
      <point x="621" y="837"/>
      <point x="548" y="803" type="qcurve"/>
      <point x="481" y="770"/>
      <point x="441" y="708" type="qcurve"/>
      <point x="400" y="647"/>
      <point x="400" y="571" type="qcurve"/>
      <point x="400" y="0" type="line"/>
      <point x="171" y="0" type="line"/>
      <point x="171" y="1030" type="line"/>
      <point x="400" y="1030" type="line"/>
    </contour>
    <contour>
      <point x="128" y="1399" type="line"/>
      <point x="345" y="1399" type="line"/>
      <point x="464" y="1265" type="line"/>
      <point x="587" y="1399" type="line"/>
      <point x="807" y="1399" type="line"/>
      <point x="552" y="1056" type="line"/>
      <point x="378" y="1056" type="line"/>
    </contour>
  </outline>
</glyph>
<glyph name="tcedilla" format="2">
  <advance width="791"/>
  <unicode hex="0163"/>
  <outline>
    <contour>
      <point x="235" y="0" type="line"/>
      <point x="235" y="815" type="line"/>
      <point x="88" y="815" type="line"/>
      <point x="88" y="1028" type="line"/>
      <point x="235" y="1028" type="line"/>
      <point x="235" y="1285" type="line"/>
      <point x="463" y="1285" type="line"/>
      <point x="463" y="1028" type="line"/>
      <point x="697" y="1028" type="line"/>
      <point x="697" y="815" type="line"/>
      <point x="463" y="815" type="line"/>
      <point x="465" y="0" type="line"/>
    </contour>
    <contour>
      <point x="441" y="-103" type="qcurve"/>
      <point x="511" y="-101"/>
      <point x="557" y="-148" type="qcurve"/>
      <point x="614" y="-193"/>
      <point x="610" y="-270" type="qcurve"/>
      <point x="611" y="-356"/>
      <point x="540" y="-412" type="qcurve"/>
      <point x="477" y="-462"/>
      <point x="384" y="-462" type="qcurve"/>
      <point x="336" y="-462"/>
      <point x="282" y="-446" type="qcurve"/>
      <point x="232" y="-428"/>
      <point x="164" y="-383" type="qcurve"/>
      <point x="241" y="-218" type="line"/>
      <point x="329" y="-284"/>
      <point x="379" y="-286" type="qcurve"/>
      <point x="400" y="-286"/>
      <point x="413" y="-276" type="qcurve"/>
      <point x="419" y="-270"/>
      <point x="419" y="-262" type="qcurve"/>
      <point x="419" y="-256"/>
      <point x="418" y="-255" type="qcurve"/>
      <point x="411" y="-246"/>
      <point x="395" y="-246" type="qcurve"/>
      <point x="380" y="-246"/>
      <point x="330" y="-285" type="qcurve"/>
      <point x="252" y="-199" type="line"/>
      <point x="336" y="-2" type="line"/>
      <point x="528" y="-2" type="line"/>
      <point x="509" y="-48" type="line"/>
      <point x="418" y="-98"/>
    </contour>
  </outline>
</glyph>
<glyph name="Tcaron" format="2">
  <advance width="1261"/>
  <unicode hex="0164"/>
  <outline>
    <contour>
      <point x="520" y="1233" type="line"/>
      <point x="103" y="1233" type="line"/>
      <point x="103" y="1463" type="line"/>
      <point x="1175" y="1463" type="line"/>
      <point x="1175" y="1233" type="line"/>
      <point x="755" y="1233" type="line"/>
      <point x="755" y="0" type="line"/>
      <point x="520" y="0" type="line"/>
    </contour>
    <contour>
      <point x="301" y="1807" type="line"/>
      <point x="518" y="1807" type="line"/>
      <point x="638" y="1674" type="line"/>
      <point x="760" y="1807" type="line"/>
      <point x="980" y="1807" type="line"/>
      <point x="725" y="1465" type="line"/>
      <point x="551" y="1465" type="line"/>
    </contour>
  </outline>
</glyph>
<glyph name="Utilde" format="2">
  <advance width="1476"/>
  <unicode hex="0168"/>
  <outline>
    <contour>
      <point x="744" y="-22" type="qcurve"/>
      <point x="586" y="-22"/>
      <point x="452" y="55" type="qcurve"/>
      <point x="322" y="133"/>
      <point x="250" y="264" type="qcurve"/>
      <point x="180" y="400"/>
      <point x="177" y="562" type="qcurve"/>
      <point x="177" y="1463" type="line"/>
      <point x="412" y="1463" type="line"/>
      <point x="412" y="563" type="line"/>
      <point x="412" y="459"/>
      <point x="456" y="375" type="qcurve"/>
      <point x="498" y="294"/>
      <point x="572" y="247" type="qcurve"/>
      <point x="648" y="202"/>
      <point x="744" y="200" type="qcurve"/>
      <point x="838" y="203"/>
      <point x="913" y="247" type="qcurve"/>
      <point x="989" y="293"/>
      <point x="1032" y="373" type="qcurve"/>
      <point x="1077" y="457"/>
      <point x="1074" y="563" type="qcurve"/>
      <point x="1074" y="1463" type="line"/>
      <point x="1309" y="1463" type="line"/>
      <point x="1309" y="564" type="line"/>
      <point x="1313" y="400"/>
      <point x="1240" y="263" type="qcurve"/>
      <point x="1170" y="134"/>
      <point x="1039" y="55" type="qcurve"/>
      <point x="905" y="-22"/>
    </contour>
    <contour>
      <point x="864" y="1468" type="qcurve"/>
      <point x="813" y="1465"/>
      <point x="768" y="1491" type="qcurve"/>
      <point x="740" y="1513"/>
      <point x="690" y="1547" type="qcurve"/>
      <point x="666" y="1574"/>
      <point x="648" y="1583" type="qcurve"/>
      <point x="639" y="1589"/>
      <point x="628" y="1588" type="qcurve"/>
      <point x="617" y="1588"/>
      <point x="607" y="1575" type="qcurve"/>
      <point x="591" y="1557"/>
      <point x="574" y="1459" type="qcurve"/>
      <point x="400" y="1482" type="line"/>
      <point x="442" y="1786"/>
      <point x="625" y="1786" type="qcurve"/>
      <point x="676" y="1789"/>
      <point x="715" y="1765" type="qcurve"/>
      <point x="750" y="1747"/>
      <point x="797" y="1708" type="qcurve"/>
      <point x="826" y="1683"/>
      <point x="839" y="1674" type="qcurve"/>
      <point x="852" y="1668"/>
      <point x="861" y="1668" type="qcurve"/>
      <point x="874" y="1668"/>
      <point x="883" y="1680" type="qcurve"/>
      <point x="898" y="1699"/>
      <point x="914" y="1795" type="qcurve"/>
      <point x="1089" y="1772" type="line"/>
      <point x="1047" y="1470"/>
    </contour>
  </outline>
</glyph>
<glyph name="Ubreve" format="2">
  <advance width="1476"/>
  <unicode hex="016C"/>
  <outline>
    <contour>
      <point x="744" y="-22" type="qcurve"/>
      <point x="586" y="-22"/>
      <point x="452" y="55" type="qcurve"/>
      <point x="322" y="133"/>
      <point x="250" y="264" type="qcurve"/>
      <point x="180" y="400"/>
      <point x="177" y="562" type="qcurve"/>
      <point x="177" y="1463" type="line"/>
      <point x="412" y="1463" type="line"/>
      <point x="412" y="563" type="line"/>
      <point x="412" y="459"/>
      <point x="456" y="375" type="qcurve"/>
      <point x="498" y="294"/>
      <point x="572" y="247" type="qcurve"/>
      <point x="648" y="202"/>
      <point x="744" y="200" type="qcurve"/>
      <point x="838" y="203"/>
      <point x="913" y="247" type="qcurve"/>
      <point x="989" y="293"/>
      <point x="1032" y="373" type="qcurve"/>
      <point x="1077" y="457"/>
      <point x="1074" y="563" type="qcurve"/>
      <point x="1074" y="1463" type="line"/>
      <point x="1309" y="1463" type="line"/>
      <point x="1309" y="564" type="line"/>
      <point x="1313" y="400"/>
      <point x="1240" y="263" type="qcurve"/>
      <point x="1170" y="134"/>
      <point x="1039" y="55" type="qcurve"/>
      <point x="905" y="-22"/>
    </contour>
    <contour>
      <point x="746" y="1465" type="qcurve"/>
      <point x="667" y="1465"/>
      <point x="588" y="1495" type="qcurve"/>
      <point x="509" y="1528"/>
      <point x="413" y="1622" type="qcurve"/>
      <point x="567" y="1772" type="line"/>
      <point x="630" y="1710"/>
      <point x="666" y="1692" type="qcurve"/>
      <point x="707" y="1676"/>
      <point x="746" y="1676" type="qcurve"/>
      <point x="784" y="1676"/>
      <point x="820" y="1692" type="qcurve"/>
      <point x="864" y="1711"/>
      <point x="925" y="1774" type="qcurve"/>
      <point x="1073" y="1622" type="line"/>
      <point x="987" y="1531"/>
      <point x="906" y="1497" type="qcurve"/>
      <point x="832" y="1465"/>
    </contour>
  </outline>
</glyph>
<glyph name="ubreve" format="2">
  <advance width="1196"/>
  <unicode hex="016D"/>
  <outline>
    <contour>
      <point x="556" y="-24" type="qcurve"/>
      <point x="441" y="-24"/>
      <point x="351" y="29" type="qcurve"/>
      <point x="257" y="81"/>
      <point x="209" y="175" type="qcurve"/>
      <point x="156" y="267"/>
      <point x="159" y="387" type="qcurve"/>
      <point x="159" y="1030" type="line"/>
      <point x="387" y="1030" type="line"/>
      <point x="387" y="405" type="line"/>
      <point x="388" y="307"/>
      <point x="441" y="250" type="qcurve"/>
      <point x="491" y="194"/>
      <point x="573" y="195" type="qcurve"/>
      <point x="640" y="195"/>
      <point x="699" y="221" type="qcurve"/>
      <point x="755" y="246"/>
      <point x="788" y="295" type="qcurve"/>
      <point x="819" y="337"/>
      <point x="818" y="385" type="qcurve"/>
      <point x="818" y="1030" type="line"/>
      <point x="1048" y="1030" type="line"/>
      <point x="1048" y="0" type="line"/>
      <point x="818" y="0" type="line"/>
      <point x="818" y="7" type="line"/>
      <point x="860" y="88"/>
      <point x="762" y="33" type="qcurve"/>
      <point x="668" y="-24"/>
    </contour>
    <contour>
      <point x="608" y="1033" type="qcurve"/>
      <point x="528" y="1034"/>
      <point x="450" y="1063" type="qcurve"/>
      <point x="373" y="1096"/>
      <point x="274" y="1190" type="qcurve"/>
      <point x="429" y="1340" type="line"/>
      <point x="492" y="1279"/>
      <point x="529" y="1259" type="qcurve"/>
      <point x="570" y="1245"/>
      <point x="608" y="1245" type="qcurve"/>
      <point x="646" y="1245"/>
      <point x="681" y="1260" type="qcurve"/>
      <point x="727" y="1279"/>
      <point x="789" y="1341" type="qcurve"/>
      <point x="935" y="1191" type="line"/>
      <point x="850" y="1097"/>
      <point x="768" y="1065" type="qcurve"/>
      <point x="693" y="1034"/>
    </contour>
  </outline>
</glyph>
<glyph name="Uring" format="2">
  <advance width="1476"/>
  <unicode hex="016E"/>
  <outline>
    <contour>
      <point x="744" y="-22" type="qcurve"/>
      <point x="586" y="-22"/>
      <point x="452" y="55" type="qcurve"/>
      <point x="322" y="133"/>
      <point x="250" y="264" type="qcurve"/>
      <point x="180" y="400"/>
      <point x="177" y="562" type="qcurve"/>
      <point x="177" y="1463" type="line"/>
      <point x="412" y="1463" type="line"/>
      <point x="412" y="563" type="line"/>
      <point x="412" y="459"/>
      <point x="456" y="375" type="qcurve"/>
      <point x="498" y="294"/>
      <point x="572" y="247" type="qcurve"/>
      <point x="648" y="202"/>
      <point x="744" y="200" type="qcurve"/>
      <point x="838" y="203"/>
      <point x="913" y="247" type="qcurve"/>
      <point x="989" y="293"/>
      <point x="1032" y="373" type="qcurve"/>
      <point x="1077" y="457"/>
      <point x="1074" y="563" type="qcurve"/>
      <point x="1074" y="1463" type="line"/>
      <point x="1309" y="1463" type="line"/>
      <point x="1309" y="564" type="line"/>
      <point x="1313" y="400"/>
      <point x="1240" y="263" type="qcurve"/>
      <point x="1170" y="134"/>
      <point x="1039" y="55" type="qcurve"/>
      <point x="905" y="-22"/>
    </contour>
    <contour>
      <point x="744" y="1465" type="qcurve"/>
      <point x="649" y="1465"/>
      <point x="578" y="1532" type="qcurve"/>
      <point x="510" y="1601"/>
      <point x="510" y="1699" type="qcurve"/>
      <point x="510" y="1799"/>
      <point x="579" y="1863" type="qcurve"/>
      <point x="649" y="1933"/>
      <point x="744" y="1933" type="qcurve"/>
      <point x="847" y="1933"/>
      <point x="911" y="1861" type="qcurve"/>
      <point x="978" y="1798"/>
      <point x="978" y="1699" type="qcurve"/>
      <point x="978" y="1601"/>
      <point x="911" y="1532" type="qcurve"/>
      <point x="846" y="1465"/>
    </contour>
    <contour>
      <point x="744" y="1639" type="qcurve"/>
      <point x="769" y="1639"/>
      <point x="787" y="1657" type="qcurve"/>
      <point x="805" y="1674"/>
      <point x="805" y="1699" type="qcurve"/>
      <point x="805" y="1724"/>
      <point x="789" y="1740" type="qcurve"/>
      <point x="771" y="1758"/>
      <point x="744" y="1758" type="qcurve"/>
      <point x="721" y="1758"/>
      <point x="704" y="1743" type="qcurve"/>
      <point x="686" y="1724"/>
      <point x="685" y="1698" type="qcurve"/>
      <point x="685" y="1674"/>
      <point x="702" y="1656" type="qcurve"/>
      <point x="720" y="1639"/>
    </contour>
  </outline>
</glyph>
<glyph name="uring" format="2">
  <advance width="1196"/>
  <unicode hex="016F"/>
  <outline>
    <contour>
      <point x="556" y="-24" type="qcurve"/>
      <point x="441" y="-24"/>
      <point x="351" y="29" type="qcurve"/>
      <point x="257" y="81"/>
      <point x="209" y="175" type="qcurve"/>
      <point x="156" y="267"/>
      <point x="159" y="387" type="qcurve"/>
      <point x="159" y="1030" type="line"/>
      <point x="387" y="1030" type="line"/>
      <point x="387" y="405" type="line"/>
      <point x="388" y="307"/>
      <point x="441" y="250" type="qcurve"/>
      <point x="491" y="194"/>
      <point x="573" y="195" type="qcurve"/>
      <point x="640" y="195"/>
      <point x="699" y="221" type="qcurve"/>
      <point x="755" y="246"/>
      <point x="788" y="295" type="qcurve"/>
      <point x="819" y="337"/>
      <point x="818" y="385" type="qcurve"/>
      <point x="818" y="1030" type="line"/>
      <point x="1048" y="1030" type="line"/>
      <point x="1048" y="0" type="line"/>
      <point x="818" y="0" type="line"/>
      <point x="818" y="7" type="line"/>
      <point x="860" y="88"/>
      <point x="762" y="33" type="qcurve"/>
      <point x="668" y="-24"/>
    </contour>
    <contour>
      <point x="606" y="1033" type="qcurve"/>
      <point x="511" y="1033"/>
      <point x="441" y="1101" type="qcurve"/>
      <point x="373" y="1168"/>
      <point x="372" y="1267" type="qcurve"/>
      <point x="373" y="1367"/>
      <point x="441" y="1432" type="qcurve"/>
      <point x="511" y="1500"/>
      <point x="606" y="1500" type="qcurve"/>
      <point x="709" y="1500"/>
      <point x="773" y="1431" type="qcurve"/>
      <point x="840" y="1366"/>
      <point x="840" y="1267" type="qcurve"/>
      <point x="840" y="1168"/>
      <point x="772" y="1101" type="qcurve"/>
      <point x="708" y="1033"/>
    </contour>
    <contour>
      <point x="606" y="1208" type="qcurve"/>
      <point x="631" y="1208"/>
      <point x="649" y="1227" type="qcurve"/>
      <point x="668" y="1243"/>
      <point x="667" y="1267" type="qcurve"/>
      <point x="667" y="1292"/>
      <point x="650" y="1308" type="qcurve"/>
      <point x="633" y="1325"/>
      <point x="606" y="1325" type="qcurve"/>
      <point x="582" y="1325"/>
      <point x="566" y="1310" type="qcurve"/>
      <point x="548" y="1292"/>
      <point x="547" y="1266" type="qcurve"/>
      <point x="547" y="1242"/>
      <point x="563" y="1226" type="qcurve"/>
      <point x="584" y="1208"/>
    </contour>
  </outline>
</glyph>
<glyph name="udblacute" format="2">
  <advance width="1216"/>
  <unicode hex="0171"/>
  <outline>
    <contour>
      <point x="556" y="-24" type="qcurve"/>
      <point x="441" y="-24"/>
      <point x="351" y="29" type="qcurve"/>
      <point x="257" y="81"/>
      <point x="209" y="175" type="qcurve"/>
      <point x="156" y="267"/>
      <point x="159" y="387" type="qcurve"/>
      <point x="159" y="1030" type="line"/>
      <point x="387" y="1030" type="line"/>
      <point x="387" y="405" type="line"/>
      <point x="388" y="307"/>
      <point x="441" y="250" type="qcurve"/>
      <point x="491" y="194"/>
      <point x="573" y="195" type="qcurve"/>
      <point x="640" y="195"/>
      <point x="699" y="221" type="qcurve"/>
      <point x="755" y="246"/>
      <point x="788" y="295" type="qcurve"/>
      <point x="819" y="337"/>
      <point x="818" y="385" type="qcurve"/>
      <point x="818" y="1030" type="line"/>
      <point x="1048" y="1030" type="line"/>
      <point x="1048" y="0" type="line"/>
      <point x="818" y="0" type="line"/>
      <point x="818" y="7" type="line"/>
      <point x="860" y="88"/>
      <point x="762" y="33" type="qcurve"/>
      <point x="668" y="-24"/>
    </contour>
    <contour>
      <point x="446" y="1395" type="line"/>
      <point x="705" y="1335" type="line"/>
      <point x="367" y="1033" type="line"/>
      <point x="144" y="1033" type="line"/>
    </contour>
    <contour>
      <point x="809" y="1390" type="line"/>
      <point x="1068" y="1331" type="line"/>
      <point x="730" y="1033" type="line"/>
      <point x="505" y="1033" type="line"/>
    </contour>
  </outline>
</glyph>
<glyph name="uogonek" format="2">
  <advance width="1196"/>
  <unicode hex="0173"/>
  <outline>
    <contour>
      <point x="556" y="-24" type="qcurve"/>
      <point x="441" y="-24"/>
      <point x="351" y="29" type="qcurve"/>
      <point x="257" y="81"/>
      <point x="209" y="175" type="qcurve"/>
      <point x="156" y="267"/>
      <point x="159" y="387" type="qcurve"/>
      <point x="159" y="1030" type="line"/>
      <point x="387" y="1030" type="line"/>
      <point x="387" y="405" type="line"/>
      <point x="388" y="307"/>
      <point x="441" y="250" type="qcurve"/>
      <point x="491" y="194"/>
      <point x="573" y="195" type="qcurve"/>
      <point x="640" y="195"/>
      <point x="699" y="221" type="qcurve"/>
      <point x="755" y="246"/>
      <point x="788" y="295" type="qcurve"/>
      <point x="819" y="337"/>
      <point x="818" y="385" type="qcurve"/>
      <point x="818" y="1030" type="line"/>
      <point x="1048" y="1030" type="line"/>
      <point x="1048" y="0" type="line"/>
      <point x="818" y="0" type="line"/>
      <point x="818" y="7" type="line"/>
      <point x="860" y="88"/>
      <point x="762" y="33" type="qcurve"/>
      <point x="668" y="-24"/>
    </contour>
    <contour>
      <point x="633" y="-466" type="qcurve"/>
      <point x="525" y="-468"/>
      <point x="454" y="-404" type="qcurve"/>
      <point x="386" y="-333"/>
      <point x="386" y="-227" type="qcurve"/>
      <point x="383" y="-162"/>
      <point x="420" y="-105" type="qcurve"/>
      <point x="459" y="-53"/>
      <point x="525" y="-22" type="qcurve"/>
      <point x="944" y="-154" type="line"/>
      <point x="616" y="-154"/>
      <point x="598" y="-170" type="qcurve"/>
      <point x="582" y="-185"/>
      <point x="582" y="-210" type="qcurve"/>
      <point x="582" y="-239"/>
      <point x="596" y="-254" type="qcurve"/>
      <point x="609" y="-268"/>
      <point x="637" y="-266" type="qcurve"/>
      <point x="673" y="-264"/>
      <point x="734" y="-202" type="qcurve"/>
      <point x="844" y="-381" type="line"/>
      <point x="736" y="-466"/>
    </contour>
  </outline>
</glyph>
<glyph name="Wcircumflex" format="2">
  <advance width="1906"/>
  <unicode hex="0174"/>
  <outline>
    <contour>
      <point x="7" y="1463" type="line"/>
      <point x="244" y="1463" type="line"/>
      <point x="516" y="457" type="line"/>
      <point x="833" y="1463" type="line"/>
      <point x="1041" y="1463" type="line"/>
      <point x="1359" y="457" type="line"/>
      <point x="1627" y="1463" type="line"/>
      <point x="1867" y="1463" type="line"/>
      <point x="1476" y="0" type="line"/>
      <point x="1262" y="0" type="line"/>
      <point x="934" y="1038" type="line"/>
      <point x="609" y="0" type="line"/>
      <point x="399" y="0" type="line"/>
    </contour>
    <contour>
      <point x="848" y="1807" type="line"/>
      <point x="1022" y="1807" type="line"/>
      <point x="1277" y="1465" type="line"/>
      <point x="1057" y="1465" type="line"/>
      <point x="934" y="1596" type="line"/>
      <point x="815" y="1465" type="line"/>
      <point x="598" y="1465" type="line"/>
    </contour>
  </outline>
</glyph>
<glyph name="wcircumflex" format="2">
  <advance width="1647"/>
  <unicode hex="0175"/>
  <outline>
    <contour>
      <point x="67" y="1030" type="line"/>
      <point x="310" y="1030" type="line"/>
      <point x="513" y="381" type="line"/>
      <point x="731" y="1030" type="line"/>
      <point x="918" y="1030" type="line"/>
      <point x="1137" y="382" type="line"/>
      <point x="1338" y="1030" type="line"/>
      <point x="1583" y="1030" type="line"/>
      <point x="1236" y="0" type="line"/>
      <point x="1040" y="0" type="line"/>
      <point x="825" y="648" type="line"/>
      <point x="606" y="0" type="line"/>
      <point x="412" y="0" type="line"/>
    </contour>
    <contour>
      <point x="736" y="1375" type="line"/>
      <point x="910" y="1375" type="line"/>
      <point x="1166" y="1033" type="line"/>
      <point x="945" y="1033" type="line"/>
      <point x="823" y="1165" type="line"/>
      <point x="703" y="1033" type="line"/>
      <point x="486" y="1033" type="line"/>
    </contour>
  </outline>
</glyph>
<glyph name="ycircumflex" format="2">
  <advance width="1217"/>
  <unicode hex="0177"/>
  <outline>
    <contour>
      <point x="329" y="-356" type="line"/>
      <point x="484" y="46" type="line"/>
      <point x="49" y="1030" type="line"/>
      <point x="303" y="1030" type="line"/>
      <point x="602" y="333" type="line"/>
      <point x="879" y="1030" type="line"/>
      <point x="1128" y="1030" type="line"/>
      <point x="561" y="-356" type="line"/>
    </contour>
    <contour>
      <point x="501" y="1375" type="line"/>
      <point x="675" y="1375" type="line"/>
      <point x="931" y="1033" type="line"/>
      <point x="710" y="1033" type="line"/>
      <point x="588" y="1165" type="line"/>
      <point x="468" y="1033" type="line"/>
      <point x="251" y="1033" type="line"/>
    </contour>
  </outline>
</glyph>
<glyph name="Zacute" format="2">
  <advance width="1357"/>
  <unicode hex="0179"/>
  <outline>
    <contour>
      <point x="125" y="175" type="line"/>
      <point x="924" y="1233" type="line"/>
      <point x="140" y="1233" type="line"/>
      <point x="140" y="1463" type="line"/>
      <point x="1252" y="1463" type="line"/>
      <point x="1252" y="1276" type="line"/>
      <point x="460" y="227" type="line"/>
      <point x="1252" y="227" type="line"/>
      <point x="1252" y="0" type="line"/>
      <point x="125" y="0" type="line"/>
    </contour>
    <contour>
      <point x="710" y="1824" type="line"/>
      <point x="969" y="1764" type="line"/>
      <point x="631" y="1465" type="line"/>
      <point x="405" y="1465" type="line"/>
    </contour>
  </outline>
</glyph>
<glyph name="zcaron" format="2">
  <advance width="1052"/>
  <unicode hex="017E"/>
  <outline>
    <contour>
      <point x="117" y="169" type="line"/>
      <point x="620" y="809" type="line"/>
      <point x="129" y="809" type="line"/>
      <point x="129" y="1030" type="line"/>
      <point x="948" y="1030" type="line"/>
      <point x="948" y="860" type="line"/>
      <point x="442" y="221" type="line"/>
      <point x="951" y="221" type="line"/>
      <point x="951" y="0" type="line"/>
      <point x="117" y="0" type="line"/>
    </contour>
    <contour>
      <point x="196" y="1375" type="line"/>
      <point x="412" y="1375" type="line"/>
      <point x="532" y="1243" type="line"/>
      <point x="654" y="1375" type="line"/>
      <point x="873" y="1375" type="line"/>
      <point x="619" y="1033" type="line"/>
      <point x="445" y="1033" type="line"/>
    </contour>
  </outline>
</glyph>
<glyph name="Uhorn" format="2">
  <advance width="1476"/>
  <unicode hex="01AF"/>
  <outline>
    <contour>
      <point x="744" y="-22" type="qcurve"/>
      <point x="586" y="-22"/>
      <point x="452" y="55" type="qcurve"/>
      <point x="322" y="133"/>
      <point x="250" y="264" type="qcurve"/>
      <point x="180" y="400"/>
      <point x="177" y="562" type="qcurve"/>
      <point x="177" y="1463" type="line"/>
      <point x="412" y="1463" type="line"/>
      <point x="412" y="563" type="line"/>
      <point x="412" y="459"/>
      <point x="456" y="375" type="qcurve"/>
      <point x="498" y="294"/>
      <point x="572" y="247" type="qcurve"/>
      <point x="648" y="202"/>
      <point x="744" y="200" type="qcurve"/>
      <point x="838" y="203"/>
      <point x="913" y="247" type="qcurve"/>
      <point x="989" y="293"/>
      <point x="1032" y="373" type="qcurve"/>
      <point x="1077" y="457"/>
      <point x="1074" y="563" type="qcurve"/>
      <point x="1074" y="1463" type="line"/>
      <point x="1309" y="1463" type="line"/>
      <point x="1309" y="564" type="line"/>
      <point x="1313" y="401"/>
      <point x="1240" y="263" type="qcurve"/>
      <point x="1170" y="134"/>
      <point x="1039" y="55" type="qcurve"/>
      <point x="905" y="-22"/>
    </contour>
    <contour>
      <point x="574" y="1554" type="line"/>
      <point x="674" y="1669"/>
      <point x="678" y="1683" type="qcurve"/>
      <point x="682" y="1683"/>
      <point x="634" y="1725" type="qcurve"/>
      <point x="592" y="1772"/>
      <point x="592" y="1829" type="qcurve"/>
      <point x="592" y="1889"/>
      <point x="634" y="1929" type="qcurve"/>
      <point x="678" y="1971"/>
      <point x="737" y="1973" type="qcurve"/>
      <point x="814" y="1978"/>
      <point x="855" y="1913" type="qcurve"/>
      <point x="896" y="1865"/>
      <point x="896" y="1782" type="qcurve"/>
      <point x="899" y="1723"/>
      <point x="862" y="1651" type="qcurve"/>
      <point x="831" y="1591"/>
      <point x="718" y="1446" type="qcurve"/>
    </contour>
  </outline>
</glyph>
<glyph name="uhorn" format="2">
  <advance width="1196"/>
  <unicode hex="01B0"/>
  <outline>
    <contour>
      <point x="552" y="-24" type="qcurve"/>
      <point x="436" y="-24"/>
      <point x="347" y="29" type="qcurve"/>
      <point x="253" y="81"/>
      <point x="205" y="175" type="qcurve"/>
      <point x="151" y="267"/>
      <point x="153" y="387" type="qcurve"/>
      <point x="153" y="1030" type="line"/>
      <point x="383" y="1030" type="line"/>
      <point x="383" y="405" type="line"/>
      <point x="384" y="307"/>
      <point x="436" y="250" type="qcurve"/>
      <point x="485" y="195"/>
      <point x="569" y="195" type="qcurve"/>
      <point x="635" y="195"/>
      <point x="695" y="221" type="qcurve"/>
      <point x="749" y="245"/>
      <point x="784" y="296" type="qcurve"/>
      <point x="814" y="337"/>
      <point x="813" y="385" type="qcurve"/>
      <point x="813" y="1030" type="line"/>
      <point x="1043" y="1030" type="line"/>
      <point x="1043" y="0" type="line"/>
      <point x="813" y="0" type="line"/>
      <point x="813" y="3" type="line"/>
      <point x="856" y="87"/>
      <point x="758" y="34" type="qcurve"/>
      <point x="664" y="-24"/>
    </contour>
    <contour>
      <point x="427" y="1121" type="line"/>
      <point x="526" y="1237"/>
      <point x="530" y="1250" type="qcurve"/>
      <point x="534" y="1250"/>
      <point x="487" y="1292" type="qcurve"/>
      <point x="445" y="1340"/>
      <point x="445" y="1397" type="qcurve"/>
      <point x="445" y="1457"/>
      <point x="488" y="1497" type="qcurve"/>
      <point x="531" y="1540"/>
      <point x="589" y="1541" type="qcurve"/>
      <point x="666" y="1545"/>
      <point x="708" y="1480" type="qcurve"/>
      <point x="748" y="1433"/>
      <point x="748" y="1350" type="qcurve"/>
      <point x="751" y="1291"/>
      <point x="714" y="1218" type="qcurve"/>
      <point x="683" y="1159"/>
      <point x="571" y="1013" type="qcurve"/>
    </contour>
  </outline>
</glyph>
<glyph name="Acaron" format="2">
  <advance width="1409"/>
  <unicode hex="01CD"/>
  <outline>
    <contour>
      <point x="595" y="1463" type="line"/>
      <point x="815" y="1463" type="line"/>
      <point x="1345" y="0" type="line"/>
      <point x="1094" y="0" type="line"/>
      <point x="953" y="393" type="line"/>
      <point x="456" y="393" type="line"/>
      <point x="312" y="0" type="line"/>
      <point x="59" y="0" type="line"/>
    </contour>
    <contour>
      <point x="705" y="1071" type="line"/>
      <point x="539" y="619" type="line"/>
      <point x="870" y="619" type="line"/>
    </contour>
    <contour>
      <point x="362" y="1807" type="line"/>
      <point x="579" y="1807" type="line"/>
      <point x="698" y="1673" type="line"/>
      <point x="821" y="1807" type="line"/>
      <point x="1041" y="1807" type="line"/>
      <point x="786" y="1465" type="line"/>
      <point x="612" y="1465" type="line"/>
    </contour>
  </outline>
</glyph>
<glyph name="icaron" format="2">
  <advance width="566"/>
  <unicode hex="01D0"/>
  <outline>
    <contour>
      <point x="156" y="1030" type="line"/>
      <point x="386" y="1030" type="line"/>
      <point x="386" y="0" type="line"/>
      <point x="156" y="0" type="line"/>
    </contour>
    <contour>
      <point x="-68" y="1375" type="line"/>
      <point x="149" y="1375" type="line"/>
      <point x="269" y="1242" type="line"/>
      <point x="391" y="1375" type="line"/>
      <point x="611" y="1375" type="line"/>
      <point x="356" y="1032" type="line"/>
      <point x="182" y="1032" type="line"/>
    </contour>
  </outline>
</glyph>
<glyph name="gcaron" format="2">
  <advance width="1279"/>
  <unicode hex="01E7"/>
  <outline>
    <contour>
      <point x="901" y="94" type="qcurve"/>
      <point x="1132" y="94" type="line"/>
      <point x="1132" y="-63"/>
      <point x="1067" y="-158" type="qcurve"/>
      <point x="1003" y="-260"/>
      <point x="887" y="-320" type="qcurve"/>
      <point x="774" y="-378"/>
      <point x="624" y="-380" type="qcurve"/>
      <point x="508" y="-377"/>
      <point x="398" y="-343" type="qcurve"/>
      <point x="289" y="-303"/>
      <point x="187" y="-220" type="qcurve"/>
      <point x="294" y="-24" type="line"/>
      <point x="387" y="-112"/>
      <point x="456" y="-138" type="qcurve"/>
      <point x="528" y="-164"/>
      <point x="608" y="-164" type="qcurve"/>
      <point x="752" y="-164"/>
      <point x="827" y="-101" type="qcurve"/>
      <point x="901" y="-16"/>
    </contour>
    <contour>
      <point x="634" y="193" type="qcurve"/>
      <point x="711" y="196"/>
      <point x="771" y="233" type="qcurve"/>
      <point x="833" y="273"/>
      <point x="866" y="342" type="qcurve"/>
      <point x="902" y="420"/>
      <point x="901" y="515" type="qcurve"/>
      <point x="902" y="614"/>
      <point x="865" y="685" type="qcurve"/>
      <point x="833" y="760"/>
      <point x="771" y="797" type="qcurve"/>
      <point x="712" y="838"/>
      <point x="634" y="837" type="qcurve"/>
      <point x="559" y="838"/>
      <point x="497" y="797" type="qcurve"/>
      <point x="437" y="760"/>
      <point x="401" y="685" type="qcurve"/>
      <point x="368" y="615"/>
      <point x="368" y="515" type="qcurve"/>
      <point x="368" y="419"/>
      <point x="401" y="344" type="qcurve"/>
      <point x="437" y="274"/>
      <point x="495" y="233" type="qcurve"/>
      <point x="559" y="196"/>
    </contour>
    <contour>
      <point x="1132" y="1030" type="line"/>
      <point x="1132" y="0" type="line"/>
      <point x="901" y="0" type="line"/>
      <point x="901" y="43" type="line"/>
      <point x="933" y="99"/>
      <point x="834" y="39" type="qcurve"/>
      <point x="735" y="-22"/>
      <point x="609" y="-22" type="qcurve"/>
      <point x="475" y="-24"/>
      <point x="364" y="48" type="qcurve"/>
      <point x="255" y="119"/>
      <point x="191" y="243" type="qcurve"/>
      <point x="133" y="369"/>
      <point x="129" y="515" type="qcurve"/>
      <point x="132" y="667"/>
      <point x="191" y="789" type="qcurve"/>
      <point x="255" y="916"/>
      <point x="362" y="982" type="qcurve"/>
      <point x="475" y="1055"/>
      <point x="609" y="1054" type="qcurve"/>
      <point x="732" y="1055"/>
      <point x="831" y="995" type="qcurve"/>
      <point x="930" y="936"/>
      <point x="901" y="986" type="qcurve"/>
      <point x="901" y="1030" type="line"/>
    </contour>
    <contour>
      <point x="291" y="1399" type="line"/>
      <point x="509" y="1399" type="line"/>
      <point x="629" y="1266" type="line"/>
      <point x="750" y="1399" type="line"/>
      <point x="970" y="1399" type="line"/>
      <point x="715" y="1056" type="line"/>
      <point x="541" y="1056" type="line"/>
    </contour>
  </outline>
</glyph>
<glyph name="kcaron" format="2">
  <advance width="1148"/>
  <unicode hex="01E9"/>
  <outline>
    <contour>
      <point x="153" y="1463" type="line"/>
      <point x="386" y="1463" type="line"/>
      <point x="386" y="660" type="line"/>
      <point x="756" y="1030" type="line"/>
      <point x="1079" y="1030" type="line"/>
      <point x="577" y="528" type="line"/>
      <point x="1108" y="0" type="line"/>
      <point x="784" y="0" type="line"/>
      <point x="386" y="397" type="line"/>
      <point x="386" y="0" type="line"/>
      <point x="153" y="0" type="line"/>
    </contour>
    <contour>
      <point x="258" y="1807" type="line"/>
      <point x="476" y="1807" type="line"/>
      <point x="596" y="1674" type="line"/>
      <point x="717" y="1807" type="line"/>
      <point x="938" y="1807" type="line"/>
      <point x="682" y="1465" type="line"/>
      <point x="509" y="1465" type="line"/>
    </contour>
  </outline>
</glyph>
<glyph name="oogonek" format="2">
  <advance width="1264"/>
  <unicode hex="01EB"/>
  <outline>
    <contour>
      <point x="640" y="-22" type="qcurve"/>
      <point x="499" y="-19"/>
      <point x="375" y="53" type="qcurve"/>
      <point x="255" y="125"/>
      <point x="181" y="248" type="qcurve"/>
      <point x="109" y="375"/>
      <point x="109" y="515" type="qcurve"/>
      <point x="109" y="661"/>
      <point x="180" y="783" type="qcurve"/>
      <point x="254" y="911"/>
      <point x="375" y="980" type="qcurve"/>
      <point x="499" y="1054"/>
      <point x="640" y="1054" type="qcurve"/>
      <point x="784" y="1054"/>
      <point x="904" y="980" type="qcurve"/>
      <point x="1029" y="911"/>
      <point x="1099" y="783" type="qcurve"/>
      <point x="1174" y="662"/>
      <point x="1170" y="515" type="qcurve"/>
      <point x="1170" y="443"/>
      <point x="1155" y="379" type="qcurve"/>
      <point x="1140" y="315"/>
      <point x="1101" y="251" type="qcurve"/>
      <point x="1032" y="128"/>
      <point x="907" y="53" type="qcurve"/>
      <point x="786" y="-19"/>
    </contour>
    <contour>
      <point x="640" y="193" type="qcurve"/>
      <point x="716" y="196"/>
      <point x="785" y="238" type="qcurve"/>
      <point x="854" y="281"/>
      <point x="891" y="352" type="qcurve"/>
      <point x="934" y="430"/>
      <point x="934" y="515" type="qcurve"/>
      <point x="936" y="602"/>
      <point x="893" y="676" type="qcurve"/>
      <point x="854" y="750"/>
      <point x="787" y="792" type="qcurve"/>
      <point x="716" y="837"/>
      <point x="639" y="837" type="qcurve"/>
      <point x="562" y="838"/>
      <point x="495" y="795" type="qcurve"/>
      <point x="426" y="752"/>
      <point x="384" y="676" type="qcurve"/>
      <point x="346" y="603"/>
      <point x="346" y="515" type="qcurve"/>
      <point x="344" y="429"/>
      <point x="382" y="354" type="qcurve"/>
      <point x="424" y="282"/>
      <point x="493" y="237" type="qcurve"/>
      <point x="564" y="196"/>
    </contour>
    <contour>
      <point x="668" y="-464" type="qcurve"/>
      <point x="561" y="-466"/>
      <point x="490" y="-403" type="qcurve"/>
      <point x="421" y="-331"/>
      <point x="421" y="-226" type="qcurve"/>
      <point x="418" y="-159"/>
      <point x="457" y="-104" type="qcurve"/>
      <point x="494" y="-51"/>
      <point x="561" y="-20" type="qcurve"/>
      <point x="979" y="-152" type="line"/>
      <point x="651" y="-152"/>
      <point x="634" y="-168" type="qcurve"/>
      <point x="618" y="-183"/>
      <point x="618" y="-208" type="qcurve"/>
      <point x="619" y="-237"/>
      <point x="633" y="-253" type="qcurve"/>
      <point x="644" y="-265"/>
      <point x="673" y="-264" type="qcurve"/>
      <point x="711" y="-262"/>
      <point x="770" y="-199" type="qcurve"/>
      <point x="879" y="-378" type="line"/>
      <point x="773" y="-464"/>
    </contour>
  </outline>
</glyph>
<glyph name="rdblgrave" format="2">
  <advance width="696"/>
  <unicode hex="0211"/>
  <outline>
    <contour>
      <point x="400" y="1020" type="line"/>
      <point x="358" y="929"/>
      <point x="468" y="989" type="qcurve"/>
      <point x="575" y="1055"/>
      <point x="762" y="1054" type="qcurve"/>
      <point x="762" y="837" type="line"/>
      <point x="621" y="837"/>
      <point x="548" y="803" type="qcurve"/>
      <point x="481" y="770"/>
      <point x="441" y="708" type="qcurve"/>
      <point x="400" y="647"/>
      <point x="400" y="571" type="qcurve"/>
      <point x="400" y="0" type="line"/>
      <point x="171" y="0" type="line"/>
      <point x="171" y="1030" type="line"/>
      <point x="400" y="1030" type="line"/>
    </contour>
    <contour>
      <point x="591" y="1312" type="line"/>
      <point x="565" y="1307" type="line"/>
      <point x="740" y="1150" type="line"/>
      <point x="728" y="1150" type="line"/>
    </contour>
    <contour>
      <point x="229" y="1309" type="line"/>
      <point x="203" y="1303" type="line"/>
      <point x="378" y="1150" type="line"/>
      <point x="365" y="1150" type="line"/>
    </contour>
  </outline>
</glyph>
<glyph name="Tcommabelow" format="2">
  <advance width="1261"/>
  <unicode hex="021A"/>
  <outline>
    <contour>
      <point x="520" y="1233" type="line"/>
      <point x="103" y="1233" type="line"/>
      <point x="103" y="1463" type="line"/>
      <point x="1175" y="1463" type="line"/>
      <point x="1175" y="1233" type="line"/>
      <point x="755" y="1233" type="line"/>
      <point x="755" y="0" type="line"/>
      <point x="520" y="0" type="line"/>
    </contour>
    <contour>
      <point x="486" y="-368" type="line"/>
      <point x="573" y="-265"/>
      <point x="572" y="-266" type="qcurve"/>
      <point x="586" y="-265"/>
      <point x="541" y="-225" type="qcurve"/>
      <point x="505" y="-183"/>
      <point x="505" y="-136" type="qcurve"/>
      <point x="500" y="-87"/>
      <point x="540" y="-43" type="qcurve"/>
      <point x="585" y="0"/>
      <point x="635" y="-5" type="qcurve"/>
      <point x="697" y="-5"/>
      <point x="737" y="-55" type="qcurve"/>
      <point x="776" y="-101"/>
      <point x="776" y="-174" type="qcurve"/>
      <point x="779" y="-227"/>
      <point x="744" y="-290" type="qcurve"/>
      <point x="718" y="-338"/>
      <point x="618" y="-465" type="qcurve"/>
    </contour>
  </outline>
</glyph>
<glyph name="Ecedilla" format="2">
  <advance width="1257"/>
  <unicode hex="0228"/>
  <outline>
    <contour>
      <point x="400" y="1233" type="line"/>
      <point x="400" y="857" type="line"/>
      <point x="1078" y="857" type="line"/>
      <point x="1078" y="630" type="line"/>
      <point x="400" y="630" type="line"/>
      <point x="400" y="227" type="line"/>
      <point x="1152" y="227" type="line"/>
      <point x="1152" y="0" type="line"/>
      <point x="164" y="0" type="line"/>
      <point x="164" y="1463" type="line"/>
      <point x="1152" y="1463" type="line"/>
      <point x="1152" y="1233" type="line"/>
    </contour>
    <contour>
      <point x="704" y="-103" type="qcurve"/>
      <point x="775" y="-101"/>
      <point x="822" y="-147" type="qcurve"/>
      <point x="878" y="-193"/>
      <point x="874" y="-271" type="qcurve"/>
      <point x="874" y="-356"/>
      <point x="804" y="-412" type="qcurve"/>
      <point x="743" y="-462"/>
      <point x="648" y="-462" type="qcurve"/>
      <point x="599" y="-462"/>
      <point x="546" y="-446" type="qcurve"/>
      <point x="496" y="-428"/>
      <point x="429" y="-383" type="qcurve"/>
      <point x="505" y="-219" type="line"/>
      <point x="593" y="-284"/>
      <point x="643" y="-286" type="qcurve"/>
      <point x="665" y="-286"/>
      <point x="677" y="-276" type="qcurve"/>
      <point x="684" y="-271"/>
      <point x="683" y="-263" type="qcurve"/>
      <point x="683" y="-256"/>
      <point x="683" y="-256" type="qcurve"/>
      <point x="675" y="-246"/>
      <point x="659" y="-246" type="qcurve"/>
      <point x="643" y="-246"/>
      <point x="596" y="-286" type="qcurve"/>
      <point x="516" y="-199" type="line"/>
      <point x="600" y="-2" type="line"/>
      <point x="792" y="-2" type="line"/>
      <point x="778" y="-37" type="line"/>
      <point x="681" y="-99"/>
    </contour>
  </outline>
</glyph>
<glyph name="Ymacron" format="2">
  <advance width="1469"/>
  <unicode hex="0232"/>
  <outline>
    <contour>
      <point x="604" y="591" type="line"/>
      <point x="12" y="1463" type="line"/>
      <point x="300" y="1463" type="line"/>
      <point x="729" y="836" type="line"/>
      <point x="1153" y="1463" type="line"/>
      <point x="1435" y="1463" type="line"/>
      <point x="847" y="591" type="line"/>
      <point x="847" y="0" type="line"/>
      <point x="604" y="0" type="line"/>
    </contour>
    <contour>
      <point x="534" y="1864" type="line"/>
      <point x="1121" y="1864" type="line"/>
      <point x="1121" y="1667" type="line"/>
      <point x="534" y="1667" type="line"/>
    </contour>
    <contour>
      <point x="374" y="1512" type="line"/>
      <point x="374" y="1512" type="line"/>
      <point x="374" y="1512" type="line"/>
      <point x="374" y="1512" type="line"/>
    </contour>
    <contour>
      <point x="374" y="1512" type="line"/>
      <point x="374" y="1512" type="line"/>
      <point x="374" y="1512" type="line"/>
      <point x="374" y="1512" type="line"/>
    </contour>
  </outline>
</glyph>
<glyph name="ymacron" format="2">
  <advance width="1217"/>
  <unicode hex="0233"/>
  <outline>
    <contour>
      <point x="329" y="-356" type="line"/>
      <point x="484" y="46" type="line"/>
      <point x="49" y="1030" type="line"/>
      <point x="303" y="1030" type="line"/>
      <point x="602" y="333" type="line"/>
      <point x="879" y="1030" type="line"/>
      <point x="1128" y="1030" type="line"/>
      <point x="561" y="-356" type="line"/>
    </contour>
    <contour>
      <point x="400" y="1432" type="line"/>
      <point x="987" y="1432" type="line"/>
      <point x="987" y="1234" type="line"/>
      <point x="400" y="1234" type="line"/>
    </contour>
    <contour>
      <point x="240" y="1079" type="line"/>
      <point x="240" y="1079" type="line"/>
      <point x="240" y="1079" type="line"/>
      <point x="240" y="1079" type="line"/>
    </contour>
    <contour>
      <point x="240" y="1079" type="line"/>
      <point x="240" y="1079" type="line"/>
      <point x="240" y="1079" type="line"/>
      <point x="240" y="1079" type="line"/>
    </contour>
  </outline>
</glyph>
<glyph name="dotlessj" format="2">
  <advance width="531"/>
  <unicode hex="0237"/>
  <outline>
    <contour>
      <point x="112" y="-321" type="qcurve"/>
      <point x="71" y="-321"/>
      <point x="23" y="-313" type="qcurve"/>
      <point x="-19" y="-303"/>
      <point x="-88" y="-276" type="qcurve"/>
      <point x="-53" y="-75" type="line"/>
      <point x="22" y="-96"/>
      <point x="48" y="-103" type="qcurve"/>
      <point x="79" y="-105"/>
      <point x="103" y="-106" type="qcurve"/>
      <point x="125" y="-105"/>
      <point x="138" y="-88" type="qcurve"/>
      <point x="156" y="-71"/>
      <point x="156" y="-38" type="qcurve"/>
      <point x="156" y="1030" type="line"/>
      <point x="386" y="1030" type="line"/>
      <point x="386" y="-37" type="line"/>
      <point x="390" y="-161"/>
      <point x="309" y="-243" type="qcurve"/>
      <point x="229" y="-321"/>
    </contour>
  </outline>
</glyph>
<glyph name="breve" format="2">
  <advance width="898"/>
  <unicode hex="02D8"/>
  <unicode hex="0306"/>
  <outline>
    <contour>
      <point x="447" y="1068" type="qcurve"/>
      <point x="368" y="1068"/>
      <point x="290" y="1097" type="qcurve"/>
      <point x="211" y="1132"/>
      <point x="114" y="1225" type="qcurve"/>
      <point x="267" y="1375" type="line"/>
      <point x="331" y="1314"/>
      <point x="368" y="1294" type="qcurve"/>
      <point x="408" y="1279"/>
      <point x="447" y="1279" type="qcurve"/>
      <point x="485" y="1279"/>
      <point x="521" y="1294" type="qcurve"/>
      <point x="565" y="1314"/>
      <point x="627" y="1376" type="qcurve"/>
      <point x="776" y="1226" type="line"/>
      <point x="690" y="1134"/>
      <point x="608" y="1100" type="qcurve"/>
      <point x="532" y="1068"/>
    </contour>
  </outline>
</glyph>
<glyph name="dotaccent" format="2">
  <advance width="517"/>
  <unicode hex="02D9"/>
  <unicode hex="0307"/>
  <outline>
    <contour>
      <point x="266" y="1342" type="qcurve"/>
      <point x="321" y="1342"/>
      <point x="358" y="1304" type="qcurve"/>
      <point x="398" y="1266"/>
      <point x="398" y="1214" type="qcurve"/>
      <point x="400" y="1159"/>
      <point x="359" y="1120" type="qcurve"/>
      <point x="320" y="1081"/>
      <point x="266" y="1081" type="qcurve"/>
      <point x="213" y="1081"/>
      <point x="175" y="1120" type="qcurve"/>
      <point x="140" y="1159"/>
      <point x="136" y="1213" type="qcurve"/>
      <point x="140" y="1264"/>
      <point x="174" y="1302" type="qcurve"/>
      <point x="212" y="1342"/>
    </contour>
  </outline>
</glyph>
<glyph name="circumflex" format="2">
  <advance width="888"/>
  <unicode hex="0302"/>
  <unicode hex="02C6"/>
  <outline>
    <contour>
      <point x="339" y="1387" type="line"/>
      <point x="513" y="1387" type="line"/>
      <point x="768" y="1044" type="line"/>
      <point x="548" y="1044" type="line"/>
      <point x="426" y="1176" type="line"/>
      <point x="306" y="1044" type="line"/>
      <point x="89" y="1044" type="line"/>
    </contour>
  </outline>
</glyph>
<glyph name="tilde" format="2">
  <advance width="944"/>
  <unicode hex="0303"/>
  <unicode hex="02DC"/>
  <outline>
    <contour>
      <point x="596" y="1042" type="qcurve"/>
      <point x="545" y="1040"/>
      <point x="500" y="1065" type="qcurve"/>
      <point x="473" y="1087"/>
      <point x="421" y="1121" type="qcurve"/>
      <point x="399" y="1148"/>
      <point x="379" y="1157" type="qcurve"/>
      <point x="371" y="1163"/>
      <point x="362" y="1162" type="qcurve"/>
      <point x="349" y="1162"/>
      <point x="338" y="1150" type="qcurve"/>
      <point x="324" y="1132"/>
      <point x="306" y="1033" type="qcurve"/>
      <point x="132" y="1057" type="line"/>
      <point x="174" y="1361"/>
      <point x="357" y="1360" type="qcurve"/>
      <point x="408" y="1364"/>
      <point x="448" y="1338" type="qcurve"/>
      <point x="481" y="1320"/>
      <point x="529" y="1281" type="qcurve"/>
      <point x="558" y="1257"/>
      <point x="572" y="1248" type="qcurve"/>
      <point x="584" y="1243"/>
      <point x="594" y="1243" type="qcurve"/>
      <point x="606" y="1243"/>
      <point x="614" y="1252" type="qcurve"/>
      <point x="629" y="1272"/>
      <point x="646" y="1370" type="qcurve"/>
      <point x="820" y="1346" type="line"/>
      <point x="780" y="1045"/>
    </contour>
  </outline>
</glyph>
<glyph name="caron" format="2">
  <advance width="888"/>
  <unicode hex="030C"/>
  <unicode hex="02C7"/>
  <outline>
    <contour>
      <point x="89" y="1387" type="line"/>
      <point x="306" y="1387" type="line"/>
      <point x="426" y="1254" type="line"/>
      <point x="548" y="1387" type="line"/>
      <point x="768" y="1387" type="line"/>
      <point x="513" y="1044" type="line"/>
      <point x="339" y="1044" type="line"/>
    </contour>
  </outline>
</glyph>
<glyph name="horncmb" format="2">
  <advance width="611"/>
  <unicode hex="031B"/>
  <outline>
    <contour>
      <point x="142" y="899" type="line"/>
      <point x="241" y="1013"/>
      <point x="245" y="1027" type="qcurve"/>
      <point x="249" y="1027"/>
      <point x="202" y="1070" type="qcurve"/>
      <point x="160" y="1115"/>
      <point x="160" y="1174" type="qcurve"/>
      <point x="160" y="1234"/>
      <point x="203" y="1275" type="qcurve"/>
      <point x="245" y="1315"/>
      <point x="305" y="1318" type="qcurve"/>
      <point x="382" y="1321"/>
      <point x="424" y="1259" type="qcurve"/>
      <point x="463" y="1208"/>
      <point x="463" y="1126" type="qcurve"/>
      <point x="464" y="1067"/>
      <point x="430" y="995" type="qcurve"/>
      <point x="400" y="935"/>
      <point x="286" y="791" type="qcurve"/>
    </contour>
  </outline>
</glyph>
<glyph name="uni0326" format="2">
  <advance width="124"/>
  <unicode hex="0326"/>
  <outline>
    <contour>
      <point x="-315" y="-417" type="line"/>
      <point x="-227" y="-315"/>
      <point x="-227" y="-316" type="qcurve"/>
      <point x="-214" y="-315"/>
      <point x="-259" y="-275" type="qcurve"/>
      <point x="-295" y="-230"/>
      <point x="-295" y="-185" type="qcurve"/>
      <point x="-298" y="-135"/>
      <point x="-259" y="-93" type="qcurve"/>
      <point x="-214" y="-51"/>
      <point x="-166" y="-55" type="qcurve"/>
      <point x="-101" y="-55"/>
      <point x="-61" y="-107" type="qcurve"/>
      <point x="-24" y="-151"/>
      <point x="-24" y="-224" type="qcurve"/>
      <point x="-22" y="-278"/>
      <point x="-55" y="-338" type="qcurve"/>
      <point x="-81" y="-388"/>
      <point x="-182" y="-514" type="qcurve"/>
    </contour>
  </outline>
</glyph>
<glyph name="ogonek" format="2">
  <advance width="814"/>
  <unicode hex="0328"/>
  <unicode hex="02DB"/>
  <outline>
    <contour>
      <point x="381" y="-312" type="qcurve"/>
      <point x="274" y="-314"/>
      <point x="202" y="-250" type="qcurve"/>
      <point x="134" y="-179"/>
      <point x="134" y="-72" type="qcurve"/>
      <point x="133" y="-7"/>
      <point x="169" y="48" type="qcurve"/>
      <point x="205" y="102"/>
      <point x="274" y="133" type="qcurve"/>
      <point x="692" y="0" type="line"/>
      <point x="364" y="0"/>
      <point x="346" y="-16" type="qcurve"/>
      <point x="331" y="-30"/>
      <point x="331" y="-55" type="qcurve"/>
      <point x="331" y="-86"/>
      <point x="344" y="-100" type="qcurve"/>
      <point x="357" y="-114"/>
      <point x="385" y="-112" type="qcurve"/>
      <point x="423" y="-110"/>
      <point x="483" y="-48" type="qcurve"/>
      <point x="592" y="-226" type="line"/>
      <point x="484" y="-312"/>
    </contour>
  </outline>
</glyph>
<glyph name="quoteright" format="2">
  <advance width="600"/>
  <unicode hex="2019"/>
  <outline>
    <contour>
      <point x="141" y="899" type="line"/>
      <point x="240" y="1013"/>
      <point x="244" y="1027" type="qcurve"/>
      <point x="248" y="1027"/>
      <point x="201" y="1070" type="qcurve"/>
      <point x="159" y="1115"/>
      <point x="159" y="1174" type="qcurve"/>
      <point x="159" y="1234"/>
      <point x="202" y="1275" type="qcurve"/>
      <point x="244" y="1315"/>
      <point x="304" y="1318" type="qcurve"/>
      <point x="381" y="1321"/>
      <point x="423" y="1259" type="qcurve"/>
      <point x="462" y="1208"/>
      <point x="462" y="1126" type="qcurve"/>
      <point x="463" y="1067"/>
      <point x="429" y="995" type="qcurve"/>
      <point x="399" y="935"/>
      <point x="285" y="791" type="qcurve"/>
    </contour>
  </outline>
</glyph>
<glyph name="quotedblleft" format="2">
  <advance width="981"/>
  <unicode hex="201C"/>
  <outline>
    <contour>
      <point x="472" y="1223" type="line"/>
      <point x="373" y="1112"/>
      <point x="368" y="1094" type="qcurve"/>
      <point x="369" y="1094"/>
      <point x="411" y="1052" type="qcurve"/>
      <point x="456" y="1009"/>
      <point x="454" y="947" type="qcurve"/>
      <point x="456" y="889"/>
      <point x="412" y="846" type="qcurve"/>
      <point x="366" y="807"/>
      <point x="306" y="806" type="qcurve"/>
      <point x="235" y="807"/>
      <point x="190" y="863" type="qcurve"/>
      <point x="150" y="917"/>
      <point x="148" y="996" type="qcurve"/>
      <point x="148" y="1060"/>
      <point x="184" y="1128" type="qcurve"/>
      <point x="217" y="1195"/>
      <point x="330" y="1332" type="qcurve"/>
    </contour>
    <contour>
      <point x="834" y="1224" type="line"/>
      <point x="737" y="1112"/>
      <point x="733" y="1094" type="qcurve"/>
      <point x="733" y="1094"/>
      <point x="774" y="1051" type="qcurve"/>
      <point x="816" y="1008"/>
      <point x="816" y="947" type="qcurve"/>
      <point x="816" y="889"/>
      <point x="776" y="847" type="qcurve"/>
      <point x="733" y="807"/>
      <point x="671" y="806" type="qcurve"/>
      <point x="598" y="807"/>
      <point x="553" y="864" type="qcurve"/>
      <point x="515" y="918"/>
      <point x="512" y="997" type="qcurve"/>
      <point x="513" y="1060"/>
      <point x="546" y="1128" type="qcurve"/>
      <point x="579" y="1195"/>
      <point x="692" y="1332" type="qcurve"/>
    </contour>
  </outline>
</glyph>
<glyph name="quotedblbase" format="2">
  <advance width="962"/>
  <unicode hex="201E"/>
  <outline>
    <contour>
      <point x="141" y="-150" type="line"/>
      <point x="240" y="-36"/>
      <point x="244" y="-22" type="qcurve"/>
      <point x="248" y="-22"/>
      <point x="201" y="21" type="qcurve"/>
      <point x="159" y="66"/>
      <point x="159" y="125" type="qcurve"/>
      <point x="159" y="186"/>
      <point x="202" y="225" type="qcurve"/>
      <point x="244" y="266"/>
      <point x="304" y="269" type="qcurve"/>
      <point x="381" y="272"/>
      <point x="423" y="210" type="qcurve"/>
      <point x="462" y="159"/>
      <point x="462" y="78" type="qcurve"/>
      <point x="465" y="19"/>
      <point x="429" y="-54" type="qcurve"/>
      <point x="399" y="-114"/>
      <point x="285" y="-258" type="qcurve"/>
    </contour>
    <contour>
      <point x="502" y="-150" type="line"/>
      <point x="602" y="-36"/>
      <point x="607" y="-22" type="qcurve"/>
      <point x="613" y="-22"/>
      <point x="567" y="20" type="qcurve"/>
      <point x="521" y="66"/>
      <point x="521" y="125" type="qcurve"/>
      <point x="521" y="188"/>
      <point x="568" y="227" type="qcurve"/>
      <point x="611" y="266"/>
      <point x="668" y="269" type="qcurve"/>
      <point x="746" y="272"/>
      <point x="785" y="209" type="qcurve"/>
      <point x="826" y="160"/>
      <point x="826" y="77" type="qcurve"/>
      <point x="826" y="19"/>
      <point x="791" y="-54" type="qcurve"/>
      <point x="761" y="-114"/>
      <point x="648" y="-258" type="qcurve"/>
    </contour>
  </outline>
</glyph>
<glyph name="bullet" format="2">
  <advance width="882"/>
  <unicode hex="2022"/>
  <outline>
    <contour>
      <point x="450" y="321" type="qcurve"/>
      <point x="344" y="320"/>
      <point x="264" y="400" type="qcurve"/>
      <point x="184" y="479"/>
      <point x="184" y="586" type="qcurve"/>
      <point x="182" y="695"/>
      <point x="262" y="773" type="qcurve"/>
      <point x="342" y="850"/>
      <point x="449" y="850" type="qcurve"/>
      <point x="557" y="850"/>
      <point x="633" y="773" type="qcurve"/>
      <point x="713" y="695"/>
      <point x="713" y="587" type="qcurve"/>
      <point x="713" y="480"/>
      <point x="634" y="402" type="qcurve"/>
      <point x="557" y="321"/>
    </contour>
  </outline>
</glyph>
<glyph name="perthousand" format="2">
  <advance width="2508"/>
  <unicode hex="2030"/>
  <outline>
    <contour>
      <point x="1241" y="1505" type="line"/>
      <point x="1431" y="1361" type="line"/>
      <point x="478" y="-33" type="line"/>
      <point x="290" y="112" type="line"/>
    </contour>
    <contour>
      <point x="1241" y="-20" type="qcurve"/>
      <point x="1167" y="-20"/>
      <point x="1095" y="10" type="qcurve"/>
      <point x="1025" y="40"/>
      <point x="969" y="94" type="qcurve"/>
      <point x="916" y="148"/>
      <point x="882" y="217" type="qcurve"/>
      <point x="848" y="290"/>
      <point x="848" y="372" type="qcurve"/>
      <point x="848" y="453"/>
      <point x="882" y="525" type="qcurve"/>
      <point x="915" y="595"/>
      <point x="968" y="649" type="qcurve"/>
      <point x="1023" y="701"/>
      <point x="1093" y="732" type="qcurve"/>
      <point x="1166" y="764"/>
      <point x="1240" y="764" type="qcurve"/>
      <point x="1314" y="765"/>
      <point x="1386" y="733" type="qcurve"/>
      <point x="1456" y="701"/>
      <point x="1510" y="649" type="qcurve"/>
      <point x="1564" y="597"/>
      <point x="1598" y="526" type="qcurve"/>
      <point x="1634" y="454"/>
      <point x="1633" y="372" type="qcurve"/>
      <point x="1634" y="290"/>
      <point x="1598" y="216" type="qcurve"/>
      <point x="1565" y="148"/>
      <point x="1511" y="94" type="qcurve"/>
      <point x="1455" y="42"/>
      <point x="1386" y="11" type="qcurve"/>
      <point x="1315" y="-19"/>
    </contour>
    <contour>
      <point x="1240" y="217" type="qcurve"/>
      <point x="1268" y="217"/>
      <point x="1295" y="228" type="qcurve"/>
      <point x="1324" y="241"/>
      <point x="1346" y="262" type="qcurve"/>
      <point x="1370" y="285"/>
      <point x="1384" y="315" type="qcurve"/>
      <point x="1399" y="342"/>
      <point x="1398" y="374" type="qcurve"/>
      <point x="1399" y="404"/>
      <point x="1386" y="431" type="qcurve"/>
      <point x="1371" y="461"/>
      <point x="1348" y="481" type="qcurve"/>
      <point x="1324" y="504"/>
      <point x="1294" y="517" type="qcurve"/>
      <point x="1267" y="530"/>
      <point x="1240" y="530" type="qcurve"/>
      <point x="1212" y="530"/>
      <point x="1183" y="518" type="qcurve"/>
      <point x="1154" y="506"/>
      <point x="1133" y="484" type="qcurve"/>
      <point x="1110" y="461"/>
      <point x="1094" y="431" type="qcurve"/>
      <point x="1082" y="404"/>
      <point x="1082" y="374" type="qcurve"/>
      <point x="1082" y="342"/>
      <point x="1095" y="315" type="qcurve"/>
      <point x="1108" y="286"/>
      <point x="1130" y="263" type="qcurve"/>
      <point x="1154" y="242"/>
      <point x="1182" y="229" type="qcurve"/>
      <point x="1212" y="217"/>
    </contour>
    <contour>
      <point x="476" y="700" type="qcurve"/>
      <point x="401" y="700"/>
      <point x="330" y="730" type="qcurve"/>
      <point x="259" y="761"/>
      <point x="203" y="815" type="qcurve"/>
      <point x="150" y="869"/>
      <point x="118" y="938" type="qcurve"/>
      <point x="85" y="1011"/>
      <point x="84" y="1093" type="qcurve"/>
      <point x="85" y="1174"/>
      <point x="117" y="1246" type="qcurve"/>
      <point x="151" y="1317"/>
      <point x="204" y="1370" type="qcurve"/>
      <point x="258" y="1422"/>
      <point x="328" y="1453" type="qcurve"/>
      <point x="400" y="1485"/>
      <point x="475" y="1485" type="qcurve"/>
      <point x="550" y="1485"/>
      <point x="620" y="1454" type="qcurve"/>
      <point x="691" y="1423"/>
      <point x="744" y="1370" type="qcurve"/>
      <point x="799" y="1318"/>
      <point x="833" y="1247" type="qcurve"/>
      <point x="869" y="1174"/>
      <point x="868" y="1093" type="qcurve"/>
      <point x="869" y="1011"/>
      <point x="833" y="937" type="qcurve"/>
      <point x="800" y="869"/>
      <point x="745" y="814" type="qcurve"/>
      <point x="690" y="762"/>
      <point x="620" y="731" type="qcurve"/>
      <point x="550" y="701"/>
    </contour>
    <contour>
      <point x="475" y="937" type="qcurve"/>
      <point x="503" y="937"/>
      <point x="530" y="948" type="qcurve"/>
      <point x="559" y="961"/>
      <point x="581" y="982" type="qcurve"/>
      <point x="604" y="1005"/>
      <point x="619" y="1035" type="qcurve"/>
      <point x="634" y="1062"/>
      <point x="633" y="1094" type="qcurve"/>
      <point x="634" y="1124"/>
      <point x="620" y="1151" type="qcurve"/>
      <point x="605" y="1181"/>
      <point x="583" y="1201" type="qcurve"/>
      <point x="559" y="1224"/>
      <point x="529" y="1237" type="qcurve"/>
      <point x="502" y="1250"/>
      <point x="475" y="1250" type="qcurve"/>
      <point x="446" y="1250"/>
      <point x="418" y="1238" type="qcurve"/>
      <point x="389" y="1226"/>
      <point x="368" y="1204" type="qcurve"/>
      <point x="346" y="1182"/>
      <point x="331" y="1152" type="qcurve"/>
      <point x="318" y="1124"/>
      <point x="318" y="1094" type="qcurve"/>
      <point x="318" y="1062"/>
      <point x="330" y="1035" type="qcurve"/>
      <point x="345" y="1006"/>
      <point x="367" y="983" type="qcurve"/>
      <point x="389" y="962"/>
      <point x="416" y="949" type="qcurve"/>
      <point x="446" y="937"/>
    </contour>
    <contour>
      <point x="2026" y="-20" type="qcurve"/>
      <point x="1951" y="-20"/>
      <point x="1880" y="10" type="qcurve"/>
      <point x="1810" y="40"/>
      <point x="1754" y="94" type="qcurve"/>
      <point x="1700" y="148"/>
      <point x="1667" y="217" type="qcurve"/>
      <point x="1634" y="290"/>
      <point x="1633" y="372" type="qcurve"/>
      <point x="1634" y="453"/>
      <point x="1666" y="525" type="qcurve"/>
      <point x="1700" y="596"/>
      <point x="1753" y="648" type="qcurve"/>
      <point x="1808" y="701"/>
      <point x="1878" y="732" type="qcurve"/>
      <point x="1951" y="764"/>
      <point x="2025" y="764" type="qcurve"/>
      <point x="2099" y="765"/>
      <point x="2171" y="733" type="qcurve"/>
      <point x="2241" y="701"/>
      <point x="2295" y="649" type="qcurve"/>
      <point x="2349" y="597"/>
      <point x="2383" y="526" type="qcurve"/>
      <point x="2418" y="455"/>
      <point x="2418" y="372" type="qcurve"/>
      <point x="2418" y="290"/>
      <point x="2383" y="217" type="qcurve"/>
      <point x="2349" y="147"/>
      <point x="2295" y="94" type="qcurve"/>
      <point x="2241" y="42"/>
      <point x="2170" y="11" type="qcurve"/>
      <point x="2100" y="-19"/>
    </contour>
    <contour>
      <point x="2025" y="217" type="qcurve"/>
      <point x="2053" y="217"/>
      <point x="2080" y="228" type="qcurve"/>
      <point x="2109" y="241"/>
      <point x="2131" y="262" type="qcurve"/>
      <point x="2154" y="285"/>
      <point x="2169" y="314" type="qcurve"/>
      <point x="2183" y="341"/>
      <point x="2183" y="375" type="qcurve"/>
      <point x="2184" y="404"/>
      <point x="2170" y="431" type="qcurve"/>
      <point x="2155" y="461"/>
      <point x="2133" y="481" type="qcurve"/>
      <point x="2109" y="503"/>
      <point x="2079" y="518" type="qcurve"/>
      <point x="2052" y="530"/>
      <point x="2025" y="530" type="qcurve"/>
      <point x="1997" y="530"/>
      <point x="1968" y="518" type="qcurve"/>
      <point x="1940" y="505"/>
      <point x="1917" y="484" type="qcurve"/>
      <point x="1894" y="462"/>
      <point x="1880" y="431" type="qcurve"/>
      <point x="1867" y="404"/>
      <point x="1867" y="374" type="qcurve"/>
      <point x="1867" y="342"/>
      <point x="1879" y="315" type="qcurve"/>
      <point x="1894" y="286"/>
      <point x="1916" y="263" type="qcurve"/>
      <point x="1938" y="243"/>
      <point x="1966" y="229" type="qcurve"/>
      <point x="1997" y="218"/>
    </contour>
  </outline>
</glyph>
<glyph name="guilsinglleft" format="2">
  <advance width="721"/>
  <unicode hex="2039"/>
  <outline>
    <contour>
      <point x="77" y="502" type="line"/>
      <point x="410" y="912" type="line"/>
      <point x="633" y="859" type="line"/>
      <point x="344" y="504" type="line"/>
      <point x="631" y="145" type="line"/>
      <point x="410" y="86" type="line"/>
    </contour>
  </outline>
</glyph>
<glyph name="guilsinglright" format="2">
  <advance width="697"/>
  <unicode hex="203A"/>
  <outline>
    <contour>
      <point x="70" y="146" type="line"/>
      <point x="354" y="504" type="line"/>
      <point x="68" y="859" type="line"/>
      <point x="288" y="913" type="line"/>
      <point x="622" y="503" type="line"/>
      <point x="287" y="86" type="line"/>
    </contour>
  </outline>
</glyph>
<glyph name="Euro" format="2">
  <advance width="1364"/>
  <unicode hex="20AC"/>
  <outline>
    <contour>
      <point x="801" y="212" type="qcurve"/>
      <point x="901" y="212"/>
      <point x="990" y="254" type="qcurve"/>
      <point x="1081" y="298"/>
      <point x="1184" y="410" type="qcurve"/>
      <point x="1357" y="230" type="line"/>
      <point x="1226" y="96"/>
      <point x="1086" y="36" type="qcurve"/>
      <point x="953" y="-23"/>
      <point x="800" y="-24" type="qcurve"/>
      <point x="642" y="-24"/>
      <point x="494" y="45" type="qcurve"/>
      <point x="352" y="114"/>
      <point x="247" y="230" type="qcurve"/>
      <point x="139" y="352"/>
      <point x="100" y="469" type="qcurve"/>
      <point x="-100" y="469" type="line"/>
      <point x="-100" y="697" type="line"/>
      <point x="51" y="697" type="line"/>
      <point x="51" y="701"/>
      <point x="51" y="732" type="qcurve"/>
      <point x="51" y="793"/>
      <point x="53" y="802" type="qcurve"/>
      <point x="-100" y="802" type="line"/>
      <point x="-100" y="1029" type="line"/>
      <point x="115" y="1029" type="line"/>
      <point x="160" y="1140"/>
      <point x="263" y="1250" type="qcurve"/>
      <point x="368" y="1361"/>
      <point x="505" y="1420" type="qcurve"/>
      <point x="647" y="1484"/>
      <point x="800" y="1484" type="qcurve"/>
      <point x="952" y="1487"/>
      <point x="1086" y="1428" type="qcurve"/>
      <point x="1226" y="1369"/>
      <point x="1357" y="1229" type="qcurve"/>
      <point x="1183" y="1053" type="line"/>
      <point x="1083" y="1167"/>
      <point x="992" y="1205" type="qcurve"/>
      <point x="901" y="1248"/>
      <point x="800" y="1248" type="qcurve"/>
      <point x="662" y="1248"/>
      <point x="540" y="1168" type="qcurve"/>
      <point x="420" y="1089"/>
      <point x="391" y="1029" type="qcurve"/>
      <point x="982" y="1029" type="line"/>
      <point x="982" y="802" type="line"/>
      <point x="308" y="802" type="line"/>
      <point x="306" y="792"/>
      <point x="306" y="732" type="qcurve"/>
      <point x="306" y="692"/>
      <point x="306" y="697" type="qcurve"/>
      <point x="982" y="697" type="line"/>
      <point x="982" y="469" type="line"/>
      <point x="368" y="469" type="line"/>
      <point x="401" y="396"/>
      <point x="527" y="302" type="qcurve"/>
      <point x="654" y="215"/>
    </contour>
  </outline>
</glyph>
<glyph name="minus" format="2">
  <advance width="1197"/>
  <unicode hex="2212"/>
  <outline>
    <contour>
      <point x="142" y="766" type="line"/>
      <point x="1069" y="766" type="line"/>
      <point x="1069" y="538" type="line"/>
      <point x="142" y="538" type="line"/>
    </contour>
  </outline>
</glyph>
<glyph name="M.salt" format="2">
  <advance width="1906"/>
  <outline>
    <contour>
      <point x="1867" y="0" type="line"/>
      <point x="1629" y="0" type="line"/>
      <point x="1358" y="1005" type="line"/>
      <point x="1041" y="0" type="line"/>
      <point x="833" y="0" type="line"/>
      <point x="515" y="1005" type="line"/>
      <point x="246" y="0" type="line"/>
      <point x="7" y="0" type="line"/>
      <point x="399" y="1463" type="line"/>
      <point x="611" y="1463" type="line"/>
      <point x="939" y="425" type="line"/>
      <point x="1264" y="1463" type="line"/>
      <point x="1476" y="1463" type="line"/>
    </contour>
  </outline>
</glyph>
<glyph name=".notdef" format="2">
  <advance width="1030"/>
  <outline>
    <contour>
      <point x="858" y="-372" type="line"/>
      <point x="188" y="-372" type="line"/>
      <point x="188" y="1535" type="line"/>
      <point x="858" y="1535" type="line"/>
    </contour>
    <contour>
      <point x="419" y="1320" type="line"/>
      <point x="419" y="1355" type="line"/>
      <point x="537" y="1355" type="line"/>
      <point x="537" y="1191" type="line"/>
      <point x="417" y="1191" type="line"/>
      <point x="417" y="1227" type="line"/>
      <point x="626" y="1227" type="line"/>
      <point x="626" y="1191" type="line"/>
      <point x="505" y="1191" type="line"/>
      <point x="505" y="1355" type="line"/>
      <point x="626" y="1355" type="line"/>
      <point x="626" y="1320" type="line"/>
    </contour>
    <contour>
      <point x="417" y="1085" type="line"/>
      <point x="417" y="992" type="line"/>
      <point x="626" y="992" type="line"/>
      <point x="626" y="960" type="line"/>
      <point x="505" y="960" type="line"/>
      <point x="505" y="1085" type="line"/>
    </contour>
    <contour>
      <point x="537" y="960" type="line"/>
      <point x="383" y="960" type="line"/>
      <point x="383" y="1118" type="line"/>
      <point x="537" y="1118" type="line"/>
    </contour>
    <contour>
      <point x="417" y="848" type="line"/>
      <point x="417" y="882" type="line"/>
      <point x="537" y="882" type="line"/>
      <point x="537" y="721" type="line"/>
      <point x="417" y="721" type="line"/>
      <point x="417" y="755" type="line"/>
      <point x="505" y="755" type="line"/>
      <point x="505" y="882" type="line"/>
      <point x="626" y="882" type="line"/>
      <point x="626" y="848" type="line"/>
    </contour>
    <contour>
      <point x="658" y="740" type="line"/>
      <point x="658" y="620" type="line"/>
      <point x="417" y="620" type="line"/>
      <point x="417" y="652" type="line"/>
      <point x="626" y="652" type="line"/>
      <point x="626" y="740" type="line"/>
    </contour>
    <contour>
      <point x="537" y="518" type="line"/>
      <point x="537" y="512" type="line"/>
      <point x="505" y="512" type="line"/>
      <point x="505" y="553" type="line"/>
      <point x="658" y="553" type="line"/>
      <point x="658" y="374" type="line"/>
      <point x="383" y="374" type="line"/>
      <point x="383" y="518" type="line"/>
      <point x="417" y="518" type="line"/>
      <point x="417" y="406" type="line"/>
      <point x="626" y="406" type="line"/>
      <point x="626" y="518" type="line"/>
    </contour>
    <contour>
      <point x="417" y="204" type="line"/>
      <point x="417" y="94" type="line"/>
      <point x="626" y="94" type="line"/>
      <point x="626" y="204" type="line"/>
    </contour>
    <contour>
      <point x="658" y="60" type="line"/>
      <point x="383" y="60" type="line"/>
      <point x="383" y="239" type="line"/>
      <point x="658" y="239" type="line"/>
    </contour>
    <contour>
      <point x="417" y="-42" type="line"/>
      <point x="417" y="-7" type="line"/>
      <point x="650" y="-7" type="line"/>
      <point x="417" y="-164" type="line"/>
      <point x="417" y="-152" type="line"/>
      <point x="626" y="-152" type="line"/>
      <point x="626" y="-187" type="line"/>
      <point x="337" y="-187" type="line"/>
      <point x="599" y="-7" type="line"/>
      <point x="626" y="-7" type="line"/>
      <point x="626" y="-42" type="line"/>
    </contour>
  </outline>
</glyph>
<glyph name="d_stroke" format="2">
  <advance width="1013"/>
  <outline>
    <contour>
      <point x="1119" y="1463" type="line"/>
      <point x="1119" y="936" type="line"/>
      <point x="889" y="936" type="line"/>
      <point x="889" y="1463" type="line"/>
    </contour>
  </outline>
</glyph>
<glyph name="g_stroke" format="2">
  <advance width="1013"/>
  <outline>
    <contour>
      <point x="889" y="94" type="qcurve"/>
      <point x="1120" y="94" type="line"/>
      <point x="1120" y="-63"/>
      <point x="1056" y="-158" type="qcurve"/>
      <point x="991" y="-261"/>
      <point x="875" y="-320" type="qcurve"/>
      <point x="762" y="-378"/>
      <point x="613" y="-380" type="qcurve"/>
      <point x="495" y="-377"/>
      <point x="386" y="-343" type="qcurve"/>
      <point x="277" y="-303"/>
      <point x="175" y="-220" type="qcurve"/>
      <point x="284" y="-24" type="line"/>
      <point x="375" y="-112"/>
      <point x="444" y="-138" type="qcurve"/>
      <point x="517" y="-164"/>
      <point x="597" y="-164" type="qcurve"/>
      <point x="741" y="-164"/>
      <point x="815" y="-101" type="qcurve"/>
      <point x="891" y="-16"/>
    </contour>
  </outline>
</glyph>
<glyph name="j.salt" format="2">
  <advance width="531"/>
  <outline>
    <contour>
      <point x="277" y="1108" type="qcurve"/>
      <point x="222" y="1105"/>
      <point x="180" y="1150" type="qcurve"/>
      <point x="139" y="1194"/>
      <point x="140" y="1244" type="qcurve"/>
      <point x="138" y="1299"/>
      <point x="179" y="1340" type="qcurve"/>
      <point x="220" y="1381"/>
      <point x="275" y="1381" type="qcurve"/>
      <point x="332" y="1386"/>
      <point x="374" y="1342" type="qcurve"/>
      <point x="418" y="1298"/>
      <point x="414" y="1245" type="qcurve"/>
      <point x="420" y="1196"/>
      <point x="378" y="1150" type="qcurve"/>
      <point x="337" y="1105"/>
    </contour>
    <contour>
      <point x="392" y="-356" type="line"/>
      <point x="162" y="-356" type="line"/>
      <point x="162" y="1030" type="line"/>
      <point x="392" y="1030" type="line"/>
    </contour>
  </outline>
</glyph>
<glyph name="k.salt" format="2">
  <advance width="1229"/>
  <outline>
    <contour>
      <point x="676" y="552" type="line"/>
      <point x="1107" y="0" type="line"/>
      <point x="820" y="0" type="line"/>
      <point x="513" y="391" type="line"/>
      <point x="396" y="275" type="line"/>
      <point x="396" y="0" type="line"/>
      <point x="167" y="0" type="line"/>
      <point x="167" y="1463" type="line"/>
      <point x="396" y="1463" type="line"/>
      <point x="396" y="581" type="line"/>
      <point x="840" y="1030" type="line"/>
      <point x="1148" y="1030" type="line"/>
    </contour>
  </outline>
</glyph>
<glyph name="l.salt" format="2">
  <advance width="758"/>
  <outline>
    <contour>
      <point x="149" y="1463" type="line"/>
      <point x="379" y="1463" type="line"/>
      <point x="379" y="264" type="line"/>
      <point x="381" y="231"/>
      <point x="400" y="212" type="qcurve"/>
      <point x="413" y="196"/>
      <point x="442" y="197" type="qcurve"/>
      <point x="482" y="199"/>
      <point x="554" y="240" type="qcurve"/>
      <point x="621" y="22" type="line"/>
      <point x="509" y="-19"/>
      <point x="415" y="-22" type="qcurve"/>
      <point x="311" y="-25"/>
      <point x="226" y="57" type="qcurve"/>
      <point x="147" y="137"/>
      <point x="149" y="264" type="qcurve"/>
    </contour>
  </outline>
</glyph>
<glyph name="y.salt" format="2">
  <advance width="1218"/>
  <outline>
    <contour>
      <point x="343" y="-325" type="qcurve"/>
      <point x="256" y="-323"/>
      <point x="137" y="-275" type="qcurve"/>
      <point x="199" y="-69" type="line"/>
      <point x="290" y="-108"/>
      <point x="339" y="-108" type="qcurve"/>
      <point x="375" y="-108"/>
      <point x="392" y="-99" type="qcurve"/>
      <point x="414" y="-85"/>
      <point x="435" y="-50" type="qcurve"/>
      <point x="477" y="43" type="line"/>
      <point x="50" y="1030" type="line"/>
      <point x="303" y="1030" type="line"/>
      <point x="599" y="328" type="line"/>
      <point x="879" y="1030" type="line"/>
      <point x="1129" y="1030" type="line"/>
      <point x="674" y="-74" type="line"/>
      <point x="628" y="-203"/>
      <point x="542" y="-263" type="qcurve"/>
      <point x="461" y="-321"/>
    </contour>
  </outline>
</glyph>
